  0
SECTION
  2
HEADER
  9
$ACADVER
  1
AC1014
  9
$HANDSEED
  5
FFFF
  9
$MEASUREMENT
 70
     1
  0
ENDSEC
  0
SECTION
  2
TABLES
  0
TABLE
  2
VPORT
  5
8
330
0
100
AcDbSymbolTable
 70
     4
  0
VPORT
  5
2E
330
8
100
AcDbSymbolTableRecord
100
AcDbViewportTableRecord
  2
*ACTIVE
 70
     0
 10
0.0
 20
0.0
 11
1.0
 21
1.0
 12
210.0
 22
148.5
 13
0.0
 23
0.0
 14
10.0
 24
10.0
 15
10.0
 25
10.0
 16
0.0
 26
0.0
 36
1.0
 17
0.0
 27
0.0
 37
0.0
 40
341.0
 41
1.24
 42
50.0
 43
0.0
 44
0.0
 50
0.0
 51
0.0
 71
     0
 72
   100
 73
     1
 74
     3
 75
     0
 76
     0
 77
     0
 78
     0
  0
ENDTAB
  0
TABLE
  2
LTYPE
  5
5
330
0
100
AcDbSymbolTable
 70
     1
  0
LTYPE
  5
14
330
5
100
AcDbSymbolTableRecord
100
AcDbLinetypeTableRecord
  2
BYBLOCK
 70
     0
  3

 72
    65
 73
     0
 40
0.0
  0
LTYPE
  5
15
330
5
100
AcDbSymbolTableRecord
100
AcDbLinetypeTableRecord
  2
BYLAYER
 70
     0
  3

 72
    65
 73
     0
 40
0.0
  0
LTYPE
  5
16
330
5
100
AcDbSymbolTableRecord
100
AcDbLinetypeTableRecord
  2
CONTINUOUS
 70
     0
  3
Solid line
 72
    65
 73
     0
 40
0.0
  0
ENDTAB
  0
TABLE
  2
LAYER
  5
2
100
AcDbSymbolTable
 70
2
  0
LAYER
  5
50
100
AcDbSymbolTableRecord
100
AcDbLayerTableRecord
  2
0
 70
0
  6
CONTINUOUS
  0
LAYER
  5
51
100
AcDbSymbolTableRecord
100
AcDbLayerTableRecord
  2
Layer_1
 70
0
  6
CONTINUOUS
  0
ENDTAB
  0
TABLE
  2
STYLE
  5
3
330
0
100
AcDbSymbolTable
 70
     1
  0
STYLE
  5
11
330
3
100
AcDbSymbolTableRecord
100
AcDbTextStyleTableRecord
  2
STANDARD
 70
     0
 40
0.0
 41
1.0
 50
0.0
 71
     0
 42
2.5
  3
txt
  4

  0
ENDTAB
  0
TABLE
  2
VIEW
  5
6
330
0
100
AcDbSymbolTable
 70
     0
  0
ENDTAB
  0
TABLE
  2
UCS
  5
7
330
0
100
AcDbSymbolTable
 70
     0
  0
ENDTAB
  0
TABLE
  2
APPID
  5
9
330
0
100
AcDbSymbolTable
 70
     2
  0
APPID
  5
12
330
9
100
AcDbSymbolTableRecord
100
AcDbRegAppTableRecord
  2
ACAD
 70
     0
  0
ENDTAB
  0
TABLE
  2
DIMSTYLE
  5
A
330
0
100
AcDbSymbolTable
 70
     1
  0
DIMSTYLE
105
27
330
A
100
AcDbSymbolTableRecord
100
AcDbDimStyleTableRecord
  2
ISO-25
 70
     0
  3

  4

  5

  6

  7

 40
1.0
 41
2.5
 42
0.625
 43
3.75
 44
1.25
 45
0.0
 46
0.0
 47
0.0
 48
0.0
140
2.5
141
2.5
142
0.0
143
0.03937007874016
144
1.0
145
0.0
146
1.0
147
0.625
 71
     0
 72
     0
 73
     0
 74
     0
 75
     0
 76
     0
 77
     1
 78
     8
170
     0
171
     3
172
     1
173
     0
174
     0
175
     0
176
     0
177
     0
178
     0
270
     2
271
     2
272
     2
273
     2
274
     3
340
11
275
     0
280
     0
281
     0
282
     0
283
     0
284
     8
285
     0
286
     0
287
     3
288
     0
  0
ENDTAB
  0
TABLE
  2
BLOCK_RECORD
  5
1
330
0
100
AcDbSymbolTable
 70
     1
  0
BLOCK_RECORD
  5
1F
330
1
100
AcDbSymbolTableRecord
100
AcDbBlockTableRecord
  2
*MODEL_SPACE
  0
BLOCK_RECORD
  5
1B
330
1
100
AcDbSymbolTableRecord
100
AcDbBlockTableRecord
  2
*PAPER_SPACE
  0
ENDTAB
  0
ENDSEC
  0
SECTION
  2
BLOCKS
  0
BLOCK
  5
20
330
1F
100
AcDbEntity
  8
0
100
AcDbBlockBegin
  2
*MODEL_SPACE
 70
     0
 10
0.0
 20
0.0
 30
0.0
  3
*MODEL_SPACE
  1

  0
ENDBLK
  5
21
330
1F
100
AcDbEntity
  8
0
100
AcDbBlockEnd
  0
BLOCK
  5
1C
330
1B
100
AcDbEntity
 67
     1
  8
0
100
AcDbBlockBegin
  2
*PAPER_SPACE
  1

  0
ENDBLK
  5
1D
330
1B
100
AcDbEntity
 67
     1
  8
0
100
AcDbBlockEnd
  0
ENDSEC
  0
SECTION
  2
ENTITIES
  0
SPLINE
  5
100
100
AcDbEntity
  8
Layer_1
 62
7
100
AcDbSpline
 70
8
 71
3
 72
8
 73
4
 74
0
 40
0
 40
0
 40
0
 40
0
 40
1
 40
1
 40
1
 40
1
 10
366.223242
 20
219.080990
 30
0.0
 10
366.223242
 20
219.901681
 30
0.0
 10
366.893596
 20
220.566983
 30
0.0
 10
367.720520
 20
220.566983
 30
0.0
  0
SPLINE
  5
101
100
AcDbEntity
  8
Layer_1
 62
7
100
AcDbSpline
 70
8
 71
3
 72
8
 73
4
 74
0
 40
0
 40
0
 40
0
 40
0
 40
1
 40
1
 40
1
 40
1
 10
367.720520
 20
220.566983
 30
0.0
 10
368.547442
 20
220.566983
 30
0.0
 10
369.217796
 20
219.901681
 30
0.0
 10
369.217796
 20
219.080990
 30
0.0
  0
SPLINE
  5
102
100
AcDbEntity
  8
Layer_1
 62
7
100
AcDbSpline
 70
8
 71
3
 72
8
 73
4
 74
0
 40
0
 40
0
 40
0
 40
0
 40
1
 40
1
 40
1
 40
1
 10
369.217796
 20
219.080990
 30
0.0
 10
369.217796
 20
218.260298
 30
0.0
 10
368.547442
 20
217.594996
 30
0.0
 10
367.720520
 20
217.594996
 30
0.0
  0
SPLINE
  5
103
100
AcDbEntity
  8
Layer_1
 62
7
100
AcDbSpline
 70
8
 71
3
 72
8
 73
4
 74
0
 40
0
 40
0
 40
0
 40
0
 40
1
 40
1
 40
1
 40
1
 10
367.720520
 20
217.594996
 30
0.0
 10
366.893596
 20
217.594996
 30
0.0
 10
366.223242
 20
218.260298
 30
0.0
 10
366.223242
 20
219.080990
 30
0.0
  0
LINE
  5
104
100
AcDbEntity
  8
Layer_1
 62
7
100
AcDbLine
 10
366.223242
 20
219.080990
 30
0.0
 11
366.223242
 21
219.080990
 31
0.0
  0
SPLINE
  5
105
100
AcDbEntity
  8
Layer_1
 62
7
100
AcDbSpline
 70
8
 71
3
 72
8
 73
4
 74
0
 40
0
 40
0
 40
0
 40
0
 40
1
 40
1
 40
1
 40
1
 10
366.223242
 20
276.210145
 30
0.0
 10
366.223242
 20
277.030836
 30
0.0
 10
366.893596
 20
277.696138
 30
0.0
 10
367.720520
 20
277.696138
 30
0.0
  0
SPLINE
  5
106
100
AcDbEntity
  8
Layer_1
 62
7
100
AcDbSpline
 70
8
 71
3
 72
8
 73
4
 74
0
 40
0
 40
0
 40
0
 40
0
 40
1
 40
1
 40
1
 40
1
 10
367.720520
 20
277.696138
 30
0.0
 10
368.547442
 20
277.696138
 30
0.0
 10
369.217796
 20
277.030836
 30
0.0
 10
369.217796
 20
276.210145
 30
0.0
  0
SPLINE
  5
107
100
AcDbEntity
  8
Layer_1
 62
7
100
AcDbSpline
 70
8
 71
3
 72
8
 73
4
 74
0
 40
0
 40
0
 40
0
 40
0
 40
1
 40
1
 40
1
 40
1
 10
369.217796
 20
276.210145
 30
0.0
 10
369.217796
 20
275.389453
 30
0.0
 10
368.547442
 20
274.724152
 30
0.0
 10
367.720520
 20
274.724152
 30
0.0
  0
SPLINE
  5
108
100
AcDbEntity
  8
Layer_1
 62
7
100
AcDbSpline
 70
8
 71
3
 72
8
 73
4
 74
0
 40
0
 40
0
 40
0
 40
0
 40
1
 40
1
 40
1
 40
1
 10
367.720520
 20
274.724152
 30
0.0
 10
366.893596
 20
274.724152
 30
0.0
 10
366.223242
 20
275.389453
 30
0.0
 10
366.223242
 20
276.210145
 30
0.0
  0
LINE
  5
109
100
AcDbEntity
  8
Layer_1
 62
7
100
AcDbLine
 10
366.223242
 20
276.210145
 30
0.0
 11
366.223242
 21
276.210145
 31
0.0
  0
SPLINE
  5
10a
100
AcDbEntity
  8
Layer_1
 62
7
100
AcDbSpline
 70
8
 71
3
 72
8
 73
4
 74
0
 40
0
 40
0
 40
0
 40
0
 40
1
 40
1
 40
1
 40
1
 10
327.669824
 20
219.080990
 30
0.0
 10
327.669824
 20
219.901681
 30
0.0
 10
328.340178
 20
220.566983
 30
0.0
 10
329.167102
 20
220.566983
 30
0.0
  0
SPLINE
  5
10b
100
AcDbEntity
  8
Layer_1
 62
7
100
AcDbSpline
 70
8
 71
3
 72
8
 73
4
 74
0
 40
0
 40
0
 40
0
 40
0
 40
1
 40
1
 40
1
 40
1
 10
329.167102
 20
220.566983
 30
0.0
 10
329.994024
 20
220.566983
 30
0.0
 10
330.664378
 20
219.901681
 30
0.0
 10
330.664378
 20
219.080990
 30
0.0
  0
SPLINE
  5
10c
100
AcDbEntity
  8
Layer_1
 62
7
100
AcDbSpline
 70
8
 71
3
 72
8
 73
4
 74
0
 40
0
 40
0
 40
0
 40
0
 40
1
 40
1
 40
1
 40
1
 10
330.664378
 20
219.080990
 30
0.0
 10
330.664378
 20
218.260298
 30
0.0
 10
329.994024
 20
217.594996
 30
0.0
 10
329.167102
 20
217.594996
 30
0.0
  0
SPLINE
  5
10d
100
AcDbEntity
  8
Layer_1
 62
7
100
AcDbSpline
 70
8
 71
3
 72
8
 73
4
 74
0
 40
0
 40
0
 40
0
 40
0
 40
1
 40
1
 40
1
 40
1
 10
329.167102
 20
217.594996
 30
0.0
 10
328.340178
 20
217.594996
 30
0.0
 10
327.669824
 20
218.260298
 30
0.0
 10
327.669824
 20
219.080990
 30
0.0
  0
LINE
  5
10e
100
AcDbEntity
  8
Layer_1
 62
7
100
AcDbLine
 10
327.669824
 20
219.080990
 30
0.0
 11
327.669824
 21
219.080990
 31
0.0
  0
SPLINE
  5
10f
100
AcDbEntity
  8
Layer_1
 62
7
100
AcDbSpline
 70
8
 71
3
 72
8
 73
4
 74
0
 40
0
 40
0
 40
0
 40
0
 40
1
 40
1
 40
1
 40
1
 10
327.669824
 20
276.210145
 30
0.0
 10
327.669824
 20
277.030836
 30
0.0
 10
328.340178
 20
277.696138
 30
0.0
 10
329.167102
 20
277.696138
 30
0.0
  0
SPLINE
  5
110
100
AcDbEntity
  8
Layer_1
 62
7
100
AcDbSpline
 70
8
 71
3
 72
8
 73
4
 74
0
 40
0
 40
0
 40
0
 40
0
 40
1
 40
1
 40
1
 40
1
 10
329.167102
 20
277.696138
 30
0.0
 10
329.994024
 20
277.696138
 30
0.0
 10
330.664378
 20
277.030836
 30
0.0
 10
330.664378
 20
276.210145
 30
0.0
  0
SPLINE
  5
111
100
AcDbEntity
  8
Layer_1
 62
7
100
AcDbSpline
 70
8
 71
3
 72
8
 73
4
 74
0
 40
0
 40
0
 40
0
 40
0
 40
1
 40
1
 40
1
 40
1
 10
330.664378
 20
276.210145
 30
0.0
 10
330.664378
 20
275.389453
 30
0.0
 10
329.994024
 20
274.724152
 30
0.0
 10
329.167102
 20
274.724152
 30
0.0
  0
SPLINE
  5
112
100
AcDbEntity
  8
Layer_1
 62
7
100
AcDbSpline
 70
8
 71
3
 72
8
 73
4
 74
0
 40
0
 40
0
 40
0
 40
0
 40
1
 40
1
 40
1
 40
1
 10
329.167102
 20
274.724152
 30
0.0
 10
328.340178
 20
274.724152
 30
0.0
 10
327.669824
 20
275.389453
 30
0.0
 10
327.669824
 20
276.210145
 30
0.0
  0
LINE
  5
113
100
AcDbEntity
  8
Layer_1
 62
7
100
AcDbLine
 10
327.669824
 20
276.210145
 30
0.0
 11
327.669824
 21
276.210145
 31
0.0
  0
SPLINE
  5
114
100
AcDbEntity
  8
Layer_1
 62
7
100
AcDbSpline
 70
8
 71
3
 72
8
 73
4
 74
0
 40
0
 40
0
 40
0
 40
0
 40
1
 40
1
 40
1
 40
1
 10
408.719528
 20
212.646940
 30
0.0
 10
411.489539
 20
212.646940
 30
0.0
 10
413.720139
 20
214.877565
 30
0.0
 10
413.720167
 20
217.647565
 30
0.0
  0
LINE
  5
115
100
AcDbEntity
  8
Layer_1
 62
7
100
AcDbLine
 10
413.720167
 20
217.647565
 30
0.0
 11
413.720167
 21
224.571467
 31
0.0
  0
LINE
  5
116
100
AcDbEntity
  8
Layer_1
 62
7
100
AcDbLine
 10
413.720167
 20
224.571467
 30
0.0
 11
403.322028
 21
224.571467
 31
0.0
  0
LINE
  5
117
100
AcDbEntity
  8
Layer_1
 62
7
100
AcDbLine
 10
403.322028
 20
224.571467
 30
0.0
 11
403.322028
 21
222.648190
 31
0.0
  0
LINE
  5
118
100
AcDbEntity
  8
Layer_1
 62
7
100
AcDbLine
 10
403.322028
 20
222.648190
 30
0.0
 11
333.322112
 21
222.648190
 31
0.0
  0
LINE
  5
119
100
AcDbEntity
  8
Layer_1
 62
7
100
AcDbLine
 10
333.322112
 20
222.648190
 30
0.0
 11
333.322112
 21
272.645621
 31
0.0
  0
LINE
  5
11a
100
AcDbEntity
  8
Layer_1
 62
7
100
AcDbLine
 10
333.322112
 20
272.645621
 30
0.0
 11
403.322028
 21
272.645621
 31
0.0
  0
LINE
  5
11b
100
AcDbEntity
  8
Layer_1
 62
7
100
AcDbLine
 10
403.322028
 20
272.645621
 30
0.0
 11
403.322028
 21
270.722347
 31
0.0
  0
LINE
  5
11c
100
AcDbEntity
  8
Layer_1
 62
7
100
AcDbLine
 10
403.322028
 20
270.722347
 30
0.0
 11
413.720167
 21
270.722347
 31
0.0
  0
LINE
  5
11d
100
AcDbEntity
  8
Layer_1
 62
7
100
AcDbLine
 10
413.720167
 20
270.722347
 30
0.0
 11
413.720167
 21
277.646246
 31
0.0
  0
SPLINE
  5
11e
100
AcDbEntity
  8
Layer_1
 62
7
100
AcDbSpline
 70
8
 71
3
 72
8
 73
4
 74
0
 40
0
 40
0
 40
0
 40
0
 40
1
 40
1
 40
1
 40
1
 10
413.720167
 20
277.646246
 30
0.0
 10
413.720167
 20
280.416246
 30
0.0
 10
411.489539
 20
282.646871
 30
0.0
 10
408.719528
 20
282.646871
 30
0.0
  0
LINE
  5
11f
100
AcDbEntity
  8
Layer_1
 62
7
100
AcDbLine
 10
408.719528
 20
282.646871
 30
0.0
 11
327.721750
 21
282.646871
 31
0.0
  0
SPLINE
  5
120
100
AcDbEntity
  8
Layer_1
 62
7
100
AcDbSpline
 70
8
 71
3
 72
8
 73
4
 74
0
 40
0
 40
0
 40
0
 40
0
 40
1
 40
1
 40
1
 40
1
 10
327.721750
 20
282.646871
 30
0.0
 10
324.951767
 20
282.646871
 30
0.0
 10
322.721111
 20
280.416246
 30
0.0
 10
322.721111
 20
277.646246
 30
0.0
  0
LINE
  5
121
100
AcDbEntity
  8
Layer_1
 62
7
100
AcDbLine
 10
322.721111
 20
277.646246
 30
0.0
 11
322.721111
 21
217.647565
 31
0.0
  0
SPLINE
  5
122
100
AcDbEntity
  8
Layer_1
 62
7
100
AcDbSpline
 70
8
 71
3
 72
8
 73
4
 74
0
 40
0
 40
0
 40
0
 40
0
 40
1
 40
1
 40
1
 40
1
 10
322.721111
 20
217.647565
 30
0.0
 10
322.721111
 20
214.877565
 30
0.0
 10
324.951767
 20
212.646940
 30
0.0
 10
327.721750
 20
212.646940
 30
0.0
  0
LINE
  5
123
100
AcDbEntity
  8
Layer_1
 62
7
100
AcDbLine
 10
327.721750
 20
212.646940
 30
0.0
 11
408.719528
 21
212.646940
 31
0.0
  0
SPLINE
  5
124
100
AcDbEntity
  8
Layer_1
 62
7
100
AcDbSpline
 70
8
 71
3
 72
8
 73
4
 74
0
 40
0
 40
0
 40
0
 40
0
 40
1
 40
1
 40
1
 40
1
 10
392.217995
 20
295.212780
 30
0.0
 10
392.217995
 20
294.392089
 30
0.0
 10
391.547641
 20
293.726787
 30
0.0
 10
390.720717
 20
293.726787
 30
0.0
  0
SPLINE
  5
125
100
AcDbEntity
  8
Layer_1
 62
7
100
AcDbSpline
 70
8
 71
3
 72
8
 73
4
 74
0
 40
0
 40
0
 40
0
 40
0
 40
1
 40
1
 40
1
 40
1
 10
390.720717
 20
293.726787
 30
0.0
 10
389.893795
 20
293.726787
 30
0.0
 10
389.223441
 20
294.392089
 30
0.0
 10
389.223441
 20
295.212780
 30
0.0
  0
SPLINE
  5
126
100
AcDbEntity
  8
Layer_1
 62
7
100
AcDbSpline
 70
8
 71
3
 72
8
 73
4
 74
0
 40
0
 40
0
 40
0
 40
0
 40
1
 40
1
 40
1
 40
1
 10
389.223441
 20
295.212780
 30
0.0
 10
389.223441
 20
296.033472
 30
0.0
 10
389.893795
 20
296.698774
 30
0.0
 10
390.720717
 20
296.698774
 30
0.0
  0
SPLINE
  5
127
100
AcDbEntity
  8
Layer_1
 62
7
100
AcDbSpline
 70
8
 71
3
 72
8
 73
4
 74
0
 40
0
 40
0
 40
0
 40
0
 40
1
 40
1
 40
1
 40
1
 10
390.720717
 20
296.698774
 30
0.0
 10
391.547641
 20
296.698774
 30
0.0
 10
392.217995
 20
296.033472
 30
0.0
 10
392.217995
 20
295.212780
 30
0.0
  0
LINE
  5
128
100
AcDbEntity
  8
Layer_1
 62
7
100
AcDbLine
 10
392.217995
 20
295.212780
 30
0.0
 11
392.217995
 21
295.212780
 31
0.0
  0
SPLINE
  5
129
100
AcDbEntity
  8
Layer_1
 62
7
100
AcDbSpline
 70
8
 71
3
 72
8
 73
4
 74
0
 40
0
 40
0
 40
0
 40
0
 40
1
 40
1
 40
1
 40
1
 10
392.217995
 20
238.083625
 30
0.0
 10
392.217995
 20
237.262934
 30
0.0
 10
391.547641
 20
236.597632
 30
0.0
 10
390.720717
 20
236.597632
 30
0.0
  0
SPLINE
  5
12a
100
AcDbEntity
  8
Layer_1
 62
7
100
AcDbSpline
 70
8
 71
3
 72
8
 73
4
 74
0
 40
0
 40
0
 40
0
 40
0
 40
1
 40
1
 40
1
 40
1
 10
390.720717
 20
236.597632
 30
0.0
 10
389.893795
 20
236.597632
 30
0.0
 10
389.223441
 20
237.262934
 30
0.0
 10
389.223441
 20
238.083625
 30
0.0
  0
SPLINE
  5
12b
100
AcDbEntity
  8
Layer_1
 62
7
100
AcDbSpline
 70
8
 71
3
 72
8
 73
4
 74
0
 40
0
 40
0
 40
0
 40
0
 40
1
 40
1
 40
1
 40
1
 10
389.223441
 20
238.083625
 30
0.0
 10
389.223441
 20
238.904317
 30
0.0
 10
389.893795
 20
239.569619
 30
0.0
 10
390.720717
 20
239.569619
 30
0.0
  0
SPLINE
  5
12c
100
AcDbEntity
  8
Layer_1
 62
7
100
AcDbSpline
 70
8
 71
3
 72
8
 73
4
 74
0
 40
0
 40
0
 40
0
 40
0
 40
1
 40
1
 40
1
 40
1
 10
390.720717
 20
239.569619
 30
0.0
 10
391.547641
 20
239.569619
 30
0.0
 10
392.217995
 20
238.904317
 30
0.0
 10
392.217995
 20
238.083625
 30
0.0
  0
LINE
  5
12d
100
AcDbEntity
  8
Layer_1
 62
7
100
AcDbLine
 10
392.217995
 20
238.083625
 30
0.0
 11
392.217995
 21
238.083625
 31
0.0
  0
SPLINE
  5
12e
100
AcDbEntity
  8
Layer_1
 62
7
100
AcDbSpline
 70
8
 71
3
 72
8
 73
4
 74
0
 40
0
 40
0
 40
0
 40
0
 40
1
 40
1
 40
1
 40
1
 10
430.771413
 20
295.212780
 30
0.0
 10
430.771413
 20
294.392089
 30
0.0
 10
430.101059
 20
293.726787
 30
0.0
 10
429.274135
 20
293.726787
 30
0.0
  0
SPLINE
  5
12f
100
AcDbEntity
  8
Layer_1
 62
7
100
AcDbSpline
 70
8
 71
3
 72
8
 73
4
 74
0
 40
0
 40
0
 40
0
 40
0
 40
1
 40
1
 40
1
 40
1
 10
429.274135
 20
293.726787
 30
0.0
 10
428.447213
 20
293.726787
 30
0.0
 10
427.776859
 20
294.392089
 30
0.0
 10
427.776859
 20
295.212780
 30
0.0
  0
SPLINE
  5
130
100
AcDbEntity
  8
Layer_1
 62
7
100
AcDbSpline
 70
8
 71
3
 72
8
 73
4
 74
0
 40
0
 40
0
 40
0
 40
0
 40
1
 40
1
 40
1
 40
1
 10
427.776859
 20
295.212780
 30
0.0
 10
427.776859
 20
296.033472
 30
0.0
 10
428.447213
 20
296.698774
 30
0.0
 10
429.274135
 20
296.698774
 30
0.0
  0
SPLINE
  5
131
100
AcDbEntity
  8
Layer_1
 62
7
100
AcDbSpline
 70
8
 71
3
 72
8
 73
4
 74
0
 40
0
 40
0
 40
0
 40
0
 40
1
 40
1
 40
1
 40
1
 10
429.274135
 20
296.698774
 30
0.0
 10
430.101059
 20
296.698774
 30
0.0
 10
430.771413
 20
296.033472
 30
0.0
 10
430.771413
 20
295.212780
 30
0.0
  0
LINE
  5
132
100
AcDbEntity
  8
Layer_1
 62
7
100
AcDbLine
 10
430.771413
 20
295.212780
 30
0.0
 11
430.771413
 21
295.212780
 31
0.0
  0
SPLINE
  5
133
100
AcDbEntity
  8
Layer_1
 62
7
100
AcDbSpline
 70
8
 71
3
 72
8
 73
4
 74
0
 40
0
 40
0
 40
0
 40
0
 40
1
 40
1
 40
1
 40
1
 10
430.771413
 20
238.083625
 30
0.0
 10
430.771413
 20
237.262934
 30
0.0
 10
430.101059
 20
236.597632
 30
0.0
 10
429.274135
 20
236.597632
 30
0.0
  0
SPLINE
  5
134
100
AcDbEntity
  8
Layer_1
 62
7
100
AcDbSpline
 70
8
 71
3
 72
8
 73
4
 74
0
 40
0
 40
0
 40
0
 40
0
 40
1
 40
1
 40
1
 40
1
 10
429.274135
 20
236.597632
 30
0.0
 10
428.447213
 20
236.597632
 30
0.0
 10
427.776859
 20
237.262934
 30
0.0
 10
427.776859
 20
238.083625
 30
0.0
  0
SPLINE
  5
135
100
AcDbEntity
  8
Layer_1
 62
7
100
AcDbSpline
 70
8
 71
3
 72
8
 73
4
 74
0
 40
0
 40
0
 40
0
 40
0
 40
1
 40
1
 40
1
 40
1
 10
427.776859
 20
238.083625
 30
0.0
 10
427.776859
 20
238.904317
 30
0.0
 10
428.447213
 20
239.569619
 30
0.0
 10
429.274135
 20
239.569619
 30
0.0
  0
SPLINE
  5
136
100
AcDbEntity
  8
Layer_1
 62
7
100
AcDbSpline
 70
8
 71
3
 72
8
 73
4
 74
0
 40
0
 40
0
 40
0
 40
0
 40
1
 40
1
 40
1
 40
1
 10
429.274135
 20
239.569619
 30
0.0
 10
430.101059
 20
239.569619
 30
0.0
 10
430.771413
 20
238.904317
 30
0.0
 10
430.771413
 20
238.083625
 30
0.0
  0
LINE
  5
137
100
AcDbEntity
  8
Layer_1
 62
7
100
AcDbLine
 10
430.771413
 20
238.083625
 30
0.0
 11
430.771413
 21
238.083625
 31
0.0
  0
LINE
  5
138
100
AcDbEntity
  8
Layer_1
 62
7
100
AcDbLine
 10
401.712348
 20
264.725192
 30
0.0
 11
401.712348
 21
261.696087
 31
0.0
  0
LINE
  5
139
100
AcDbEntity
  8
Layer_1
 62
7
100
AcDbLine
 10
401.712348
 20
261.696087
 30
0.0
 11
401.712348
 21
248.572754
 31
0.0
  0
LINE
  5
13a
100
AcDbEntity
  8
Layer_1
 62
7
100
AcDbLine
 10
401.712348
 20
248.572754
 30
0.0
 11
344.717345
 21
248.572754
 31
0.0
  0
LINE
  5
13b
100
AcDbEntity
  8
Layer_1
 62
7
100
AcDbLine
 10
344.717345
 20
248.572754
 30
0.0
 11
344.717345
 21
236.648865
 31
0.0
  0
SPLINE
  5
13c
100
AcDbEntity
  8
Layer_1
 62
7
100
AcDbSpline
 70
8
 71
3
 72
8
 73
4
 74
0
 40
0
 40
0
 40
0
 40
0
 40
1
 40
1
 40
1
 40
1
 10
344.717345
 20
236.648865
 30
0.0
 10
344.717345
 20
233.878865
 30
0.0
 10
346.947973
 20
231.648240
 30
0.0
 10
349.717984
 20
231.648240
 30
0.0
  0
LINE
  5
13d
100
AcDbEntity
  8
Layer_1
 62
7
100
AcDbLine
 10
349.717984
 20
231.648240
 30
0.0
 11
430.719487
 21
231.648240
 31
0.0
  0
SPLINE
  5
13e
100
AcDbEntity
  8
Layer_1
 62
7
100
AcDbSpline
 70
8
 71
3
 72
8
 73
4
 74
0
 40
0
 40
0
 40
0
 40
0
 40
1
 40
1
 40
1
 40
1
 10
430.719487
 20
231.648240
 30
0.0
 10
433.489470
 20
231.648240
 30
0.0
 10
435.720126
 20
233.878865
 30
0.0
 10
435.720126
 20
236.648865
 30
0.0
  0
LINE
  5
13f
100
AcDbEntity
  8
Layer_1
 62
7
100
AcDbLine
 10
435.720126
 20
236.648865
 30
0.0
 11
435.720126
 21
296.647545
 31
0.0
  0
SPLINE
  5
140
100
AcDbEntity
  8
Layer_1
 62
7
100
AcDbSpline
 70
8
 71
3
 72
8
 73
4
 74
0
 40
0
 40
0
 40
0
 40
0
 40
1
 40
1
 40
1
 40
1
 10
435.720126
 20
296.647545
 30
0.0
 10
435.720126
 20
299.417545
 30
0.0
 10
433.489470
 20
301.648170
 30
0.0
 10
430.719487
 20
301.648170
 30
0.0
  0
LINE
  5
141
100
AcDbEntity
  8
Layer_1
 62
7
100
AcDbLine
 10
430.719487
 20
301.648170
 30
0.0
 11
349.717984
 21
301.648170
 31
0.0
  0
SPLINE
  5
142
100
AcDbEntity
  8
Layer_1
 62
7
100
AcDbSpline
 70
8
 71
3
 72
8
 73
4
 74
0
 40
0
 40
0
 40
0
 40
0
 40
1
 40
1
 40
1
 40
1
 10
349.717984
 20
301.648170
 30
0.0
 10
346.947973
 20
301.648170
 30
0.0
 10
344.717345
 20
299.417545
 30
0.0
 10
344.717345
 20
296.647545
 30
0.0
  0
LINE
  5
143
100
AcDbEntity
  8
Layer_1
 62
7
100
AcDbLine
 10
344.717345
 20
296.647545
 30
0.0
 11
344.717345
 21
284.150393
 31
0.0
  0
LINE
  5
144
100
AcDbEntity
  8
Layer_1
 62
7
100
AcDbLine
 10
344.717345
 20
284.150393
 30
0.0
 11
399.639765
 21
284.150393
 31
0.0
  0
LINE
  5
145
100
AcDbEntity
  8
Layer_1
 62
7
100
AcDbLine
 10
399.639765
 20
284.150393
 30
0.0
 11
401.712348
 21
284.150393
 31
0.0
  0
LINE
  5
146
100
AcDbEntity
  8
Layer_1
 62
7
100
AcDbLine
 10
401.712348
 20
284.150393
 30
0.0
 11
415.717626
 21
284.150393
 31
0.0
  0
LINE
  5
147
100
AcDbEntity
  8
Layer_1
 62
7
100
AcDbLine
 10
415.717626
 20
284.150393
 30
0.0
 11
415.717626
 21
269.651226
 31
0.0
  0
LINE
  5
148
100
AcDbEntity
  8
Layer_1
 62
7
100
AcDbLine
 10
415.717626
 20
269.651226
 30
0.0
 11
404.712314
 21
269.638752
 31
0.0
  0
SPLINE
  5
149
100
AcDbEntity
  8
Layer_1
 62
7
100
AcDbSpline
 70
8
 71
3
 72
8
 73
4
 74
0
 40
0
 40
0
 40
0
 40
0
 40
1
 40
1
 40
1
 40
1
 10
404.712314
 20
269.638752
 30
0.0
 10
403.055472
 20
269.626278
 30
0.0
 10
401.712348
 20
268.279667
 30
0.0
 10
401.712348
 20
266.634886
 30
0.0
  0
LINE
  5
14a
100
AcDbEntity
  8
Layer_1
 62
7
100
AcDbLine
 10
401.712348
 20
266.634886
 30
0.0
 11
401.712348
 21
264.725192
 31
0.0
  0
SPLINE
  5
14b
100
AcDbEntity
  8
Layer_1
 62
7
100
AcDbSpline
 70
8
 71
3
 72
8
 73
4
 74
0
 40
0
 40
0
 40
0
 40
0
 40
1
 40
1
 40
1
 40
1
 10
424.816503
 20
290.148168
 30
0.0
 10
424.816503
 20
289.777149
 30
0.0
 10
424.504590
 20
289.476377
 30
0.0
 10
424.119829
 20
289.476377
 30
0.0
  0
SPLINE
  5
14c
100
AcDbEntity
  8
Layer_1
 62
7
100
AcDbSpline
 70
8
 71
3
 72
8
 73
4
 74
0
 40
0
 40
0
 40
0
 40
0
 40
1
 40
1
 40
1
 40
1
 10
424.119829
 20
289.476377
 30
0.0
 10
423.735067
 20
289.476377
 30
0.0
 10
423.423154
 20
289.777149
 30
0.0
 10
423.423154
 20
290.148168
 30
0.0
  0
SPLINE
  5
14d
100
AcDbEntity
  8
Layer_1
 62
7
100
AcDbSpline
 70
8
 71
3
 72
8
 73
4
 74
0
 40
0
 40
0
 40
0
 40
0
 40
1
 40
1
 40
1
 40
1
 10
423.423154
 20
290.148168
 30
0.0
 10
423.423154
 20
290.519186
 30
0.0
 10
423.735067
 20
290.819958
 30
0.0
 10
424.119829
 20
290.819958
 30
0.0
  0
SPLINE
  5
14e
100
AcDbEntity
  8
Layer_1
 62
7
100
AcDbSpline
 70
8
 71
3
 72
8
 73
4
 74
0
 40
0
 40
0
 40
0
 40
0
 40
1
 40
1
 40
1
 40
1
 10
424.119829
 20
290.819958
 30
0.0
 10
424.504590
 20
290.819958
 30
0.0
 10
424.816503
 20
290.519186
 30
0.0
 10
424.816503
 20
290.148168
 30
0.0
  0
LINE
  5
14f
100
AcDbEntity
  8
Layer_1
 62
7
100
AcDbLine
 10
424.816503
 20
290.148168
 30
0.0
 11
424.816503
 21
290.148168
 31
0.0
  0
SPLINE
  5
150
100
AcDbEntity
  8
Layer_1
 62
7
100
AcDbSpline
 70
8
 71
3
 72
8
 73
4
 74
0
 40
0
 40
0
 40
0
 40
0
 40
1
 40
1
 40
1
 40
1
 10
424.816503
 20
243.148262
 30
0.0
 10
424.816503
 20
242.777243
 30
0.0
 10
424.504590
 20
242.476471
 30
0.0
 10
424.119829
 20
242.476471
 30
0.0
  0
SPLINE
  5
151
100
AcDbEntity
  8
Layer_1
 62
7
100
AcDbSpline
 70
8
 71
3
 72
8
 73
4
 74
0
 40
0
 40
0
 40
0
 40
0
 40
1
 40
1
 40
1
 40
1
 10
424.119829
 20
242.476471
 30
0.0
 10
423.735067
 20
242.476471
 30
0.0
 10
423.423154
 20
242.777243
 30
0.0
 10
423.423154
 20
243.148262
 30
0.0
  0
SPLINE
  5
152
100
AcDbEntity
  8
Layer_1
 62
7
100
AcDbSpline
 70
8
 71
3
 72
8
 73
4
 74
0
 40
0
 40
0
 40
0
 40
0
 40
1
 40
1
 40
1
 40
1
 10
423.423154
 20
243.148262
 30
0.0
 10
423.423154
 20
243.519280
 30
0.0
 10
423.735067
 20
243.820052
 30
0.0
 10
424.119829
 20
243.820052
 30
0.0
  0
SPLINE
  5
153
100
AcDbEntity
  8
Layer_1
 62
7
100
AcDbSpline
 70
8
 71
3
 72
8
 73
4
 74
0
 40
0
 40
0
 40
0
 40
0
 40
1
 40
1
 40
1
 40
1
 10
424.119829
 20
243.820052
 30
0.0
 10
424.504590
 20
243.820052
 30
0.0
 10
424.816503
 20
243.519280
 30
0.0
 10
424.816503
 20
243.148262
 30
0.0
  0
LINE
  5
154
100
AcDbEntity
  8
Layer_1
 62
7
100
AcDbLine
 10
424.816503
 20
243.148262
 30
0.0
 11
424.816503
 21
243.148262
 31
0.0
  0
SPLINE
  5
155
100
AcDbEntity
  8
Layer_1
 62
7
100
AcDbSpline
 70
8
 71
3
 72
8
 73
4
 74
0
 40
0
 40
0
 40
0
 40
0
 40
1
 40
1
 40
1
 40
1
 10
356.816639
 20
290.148168
 30
0.0
 10
356.816639
 20
289.777149
 30
0.0
 10
356.504726
 20
289.476377
 30
0.0
 10
356.119965
 20
289.476377
 30
0.0
  0
SPLINE
  5
156
100
AcDbEntity
  8
Layer_1
 62
7
100
AcDbSpline
 70
8
 71
3
 72
8
 73
4
 74
0
 40
0
 40
0
 40
0
 40
0
 40
1
 40
1
 40
1
 40
1
 10
356.119965
 20
289.476377
 30
0.0
 10
355.735203
 20
289.476377
 30
0.0
 10
355.423290
 20
289.777149
 30
0.0
 10
355.423290
 20
290.148168
 30
0.0
  0
SPLINE
  5
157
100
AcDbEntity
  8
Layer_1
 62
7
100
AcDbSpline
 70
8
 71
3
 72
8
 73
4
 74
0
 40
0
 40
0
 40
0
 40
0
 40
1
 40
1
 40
1
 40
1
 10
355.423290
 20
290.148168
 30
0.0
 10
355.423290
 20
290.519186
 30
0.0
 10
355.735203
 20
290.819958
 30
0.0
 10
356.119965
 20
290.819958
 30
0.0
  0
SPLINE
  5
158
100
AcDbEntity
  8
Layer_1
 62
7
100
AcDbSpline
 70
8
 71
3
 72
8
 73
4
 74
0
 40
0
 40
0
 40
0
 40
0
 40
1
 40
1
 40
1
 40
1
 10
356.119965
 20
290.819958
 30
0.0
 10
356.504726
 20
290.819958
 30
0.0
 10
356.816639
 20
290.519186
 30
0.0
 10
356.816639
 20
290.148168
 30
0.0
  0
LINE
  5
159
100
AcDbEntity
  8
Layer_1
 62
7
100
AcDbLine
 10
356.816639
 20
290.148168
 30
0.0
 11
356.816639
 21
290.148168
 31
0.0
  0
SPLINE
  5
15a
100
AcDbEntity
  8
Layer_1
 62
7
100
AcDbSpline
 70
8
 71
3
 72
8
 73
4
 74
0
 40
0
 40
0
 40
0
 40
0
 40
1
 40
1
 40
1
 40
1
 10
356.816639
 20
243.148262
 30
0.0
 10
356.816639
 20
242.777243
 30
0.0
 10
356.504726
 20
242.476471
 30
0.0
 10
356.119965
 20
242.476471
 30
0.0
  0
SPLINE
  5
15b
100
AcDbEntity
  8
Layer_1
 62
7
100
AcDbSpline
 70
8
 71
3
 72
8
 73
4
 74
0
 40
0
 40
0
 40
0
 40
0
 40
1
 40
1
 40
1
 40
1
 10
356.119965
 20
242.476471
 30
0.0
 10
355.735203
 20
242.476471
 30
0.0
 10
355.423290
 20
242.777243
 30
0.0
 10
355.423290
 20
243.148262
 30
0.0
  0
SPLINE
  5
15c
100
AcDbEntity
  8
Layer_1
 62
7
100
AcDbSpline
 70
8
 71
3
 72
8
 73
4
 74
0
 40
0
 40
0
 40
0
 40
0
 40
1
 40
1
 40
1
 40
1
 10
355.423290
 20
243.148262
 30
0.0
 10
355.423290
 20
243.519280
 30
0.0
 10
355.735203
 20
243.820052
 30
0.0
 10
356.119965
 20
243.820052
 30
0.0
  0
SPLINE
  5
15d
100
AcDbEntity
  8
Layer_1
 62
7
100
AcDbSpline
 70
8
 71
3
 72
8
 73
4
 74
0
 40
0
 40
0
 40
0
 40
0
 40
1
 40
1
 40
1
 40
1
 10
356.119965
 20
243.820052
 30
0.0
 10
356.504726
 20
243.820052
 30
0.0
 10
356.816639
 20
243.519280
 30
0.0
 10
356.816639
 20
243.148262
 30
0.0
  0
LINE
  5
15e
100
AcDbEntity
  8
Layer_1
 62
7
100
AcDbLine
 10
356.816639
 20
243.148262
 30
0.0
 11
356.816639
 21
243.148262
 31
0.0
  0
LINE
  5
15f
100
AcDbEntity
  8
Layer_1
 62
1
100
AcDbLine
 10
69.858788
 20
211.167994
 30
0.0
 11
69.858788
 21
176.163619
 31
0.0
  0
LINE
  5
160
100
AcDbEntity
  8
Layer_1
 62
1
100
AcDbLine
 10
69.858788
 20
176.163619
 30
0.0
 11
155.857191
 21
176.163619
 31
0.0
  0
LINE
  5
161
100
AcDbEntity
  8
Layer_1
 62
1
100
AcDbLine
 10
155.857191
 20
176.163619
 30
0.0
 11
155.857191
 21
211.167994
 31
0.0
  0
LINE
  5
162
100
AcDbEntity
  8
Layer_1
 62
1
100
AcDbLine
 10
155.857191
 20
211.167994
 30
0.0
 11
133.861497
 21
211.167994
 31
0.0
  0
LINE
  5
163
100
AcDbEntity
  8
Layer_1
 62
1
100
AcDbLine
 10
133.861497
 20
211.167994
 30
0.0
 11
133.861497
 21
199.164730
 31
0.0
  0
LINE
  5
164
100
AcDbEntity
  8
Layer_1
 62
1
100
AcDbLine
 10
133.861497
 20
199.164730
 30
0.0
 11
121.858233
 21
199.164730
 31
0.0
  0
LINE
  5
165
100
AcDbEntity
  8
Layer_1
 62
1
100
AcDbLine
 10
121.858233
 20
199.164730
 30
0.0
 11
121.858233
 21
211.167994
 31
0.0
  0
LINE
  5
166
100
AcDbEntity
  8
Layer_1
 62
1
100
AcDbLine
 10
121.858233
 20
211.167994
 30
0.0
 11
69.858788
 21
211.167994
 31
0.0
  0
LINE
  5
167
100
AcDbEntity
  8
Layer_1
 62
1
100
AcDbLine
 10
69.858788
 20
211.167994
 30
0.0
 11
69.858788
 21
211.167994
 31
0.0
  0
SPLINE
  5
168
100
AcDbEntity
  8
Layer_1
 62
7
100
AcDbSpline
 70
8
 71
3
 72
8
 73
4
 74
0
 40
0
 40
0
 40
0
 40
0
 40
1
 40
1
 40
1
 40
1
 10
77.403793
 20
208.869102
 30
0.0
 10
77.403793
 20
208.168344
 30
0.0
 10
76.851998
 20
207.600268
 30
0.0
 10
76.171321
 20
207.600268
 30
0.0
  0
SPLINE
  5
169
100
AcDbEntity
  8
Layer_1
 62
7
100
AcDbSpline
 70
8
 71
3
 72
8
 73
4
 74
0
 40
0
 40
0
 40
0
 40
0
 40
1
 40
1
 40
1
 40
1
 10
76.171321
 20
207.600268
 30
0.0
 10
75.490643
 20
207.600268
 30
0.0
 10
74.938845
 20
208.168344
 30
0.0
 10
74.938845
 20
208.869102
 30
0.0
  0
SPLINE
  5
16a
100
AcDbEntity
  8
Layer_1
 62
7
100
AcDbSpline
 70
8
 71
3
 72
8
 73
4
 74
0
 40
0
 40
0
 40
0
 40
0
 40
1
 40
1
 40
1
 40
1
 10
74.938845
 20
208.869102
 30
0.0
 10
74.938845
 20
209.569860
 30
0.0
 10
75.490643
 20
210.137942
 30
0.0
 10
76.171321
 20
210.137942
 30
0.0
  0
SPLINE
  5
16b
100
AcDbEntity
  8
Layer_1
 62
7
100
AcDbSpline
 70
8
 71
3
 72
8
 73
4
 74
0
 40
0
 40
0
 40
0
 40
0
 40
1
 40
1
 40
1
 40
1
 10
76.171321
 20
210.137942
 30
0.0
 10
76.851998
 20
210.137942
 30
0.0
 10
77.403793
 20
209.569860
 30
0.0
 10
77.403793
 20
208.869102
 30
0.0
  0
LINE
  5
16c
100
AcDbEntity
  8
Layer_1
 62
7
100
AcDbLine
 10
77.403793
 20
208.869102
 30
0.0
 11
77.403793
 21
208.869102
 31
0.0
  0
SPLINE
  5
16d
100
AcDbEntity
  8
Layer_1
 62
7
100
AcDbSpline
 70
8
 71
3
 72
8
 73
4
 74
0
 40
0
 40
0
 40
0
 40
0
 40
1
 40
1
 40
1
 40
1
 10
98.403751
 20
208.869102
 30
0.0
 10
98.403751
 20
208.168344
 30
0.0
 10
97.851956
 20
207.600268
 30
0.0
 10
97.171279
 20
207.600268
 30
0.0
  0
SPLINE
  5
16e
100
AcDbEntity
  8
Layer_1
 62
7
100
AcDbSpline
 70
8
 71
3
 72
8
 73
4
 74
0
 40
0
 40
0
 40
0
 40
0
 40
1
 40
1
 40
1
 40
1
 10
97.171279
 20
207.600268
 30
0.0
 10
96.490601
 20
207.600268
 30
0.0
 10
95.938803
 20
208.168344
 30
0.0
 10
95.938803
 20
208.869102
 30
0.0
  0
SPLINE
  5
16f
100
AcDbEntity
  8
Layer_1
 62
7
100
AcDbSpline
 70
8
 71
3
 72
8
 73
4
 74
0
 40
0
 40
0
 40
0
 40
0
 40
1
 40
1
 40
1
 40
1
 10
95.938803
 20
208.869102
 30
0.0
 10
95.938803
 20
209.569860
 30
0.0
 10
96.490601
 20
210.137942
 30
0.0
 10
97.171279
 20
210.137942
 30
0.0
  0
SPLINE
  5
170
100
AcDbEntity
  8
Layer_1
 62
7
100
AcDbSpline
 70
8
 71
3
 72
8
 73
4
 74
0
 40
0
 40
0
 40
0
 40
0
 40
1
 40
1
 40
1
 40
1
 10
97.171279
 20
210.137942
 30
0.0
 10
97.851956
 20
210.137942
 30
0.0
 10
98.403751
 20
209.569860
 30
0.0
 10
98.403751
 20
208.869102
 30
0.0
  0
LINE
  5
171
100
AcDbEntity
  8
Layer_1
 62
7
100
AcDbLine
 10
98.403751
 20
208.869102
 30
0.0
 11
98.403751
 21
208.869102
 31
0.0
  0
SPLINE
  5
172
100
AcDbEntity
  8
Layer_1
 62
7
100
AcDbSpline
 70
8
 71
3
 72
8
 73
4
 74
0
 40
0
 40
0
 40
0
 40
0
 40
1
 40
1
 40
1
 40
1
 10
74.103792
 20
178.162512
 30
0.0
 10
74.103792
 20
177.461754
 30
0.0
 10
73.551996
 20
176.893677
 30
0.0
 10
72.871319
 20
176.893677
 30
0.0
  0
SPLINE
  5
173
100
AcDbEntity
  8
Layer_1
 62
7
100
AcDbSpline
 70
8
 71
3
 72
8
 73
4
 74
0
 40
0
 40
0
 40
0
 40
0
 40
1
 40
1
 40
1
 40
1
 10
72.871319
 20
176.893677
 30
0.0
 10
72.190644
 20
176.893677
 30
0.0
 10
71.638843
 20
177.461754
 30
0.0
 10
71.638843
 20
178.162512
 30
0.0
  0
SPLINE
  5
174
100
AcDbEntity
  8
Layer_1
 62
7
100
AcDbSpline
 70
8
 71
3
 72
8
 73
4
 74
0
 40
0
 40
0
 40
0
 40
0
 40
1
 40
1
 40
1
 40
1
 10
71.638843
 20
178.162512
 30
0.0
 10
71.638843
 20
178.863269
 30
0.0
 10
72.190644
 20
179.431352
 30
0.0
 10
72.871319
 20
179.431352
 30
0.0
  0
SPLINE
  5
175
100
AcDbEntity
  8
Layer_1
 62
7
100
AcDbSpline
 70
8
 71
3
 72
8
 73
4
 74
0
 40
0
 40
0
 40
0
 40
0
 40
1
 40
1
 40
1
 40
1
 10
72.871319
 20
179.431352
 30
0.0
 10
73.551996
 20
179.431352
 30
0.0
 10
74.103792
 20
178.863269
 30
0.0
 10
74.103792
 20
178.162512
 30
0.0
  0
LINE
  5
176
100
AcDbEntity
  8
Layer_1
 62
7
100
AcDbLine
 10
74.103792
 20
178.162512
 30
0.0
 11
74.103792
 21
178.162512
 31
0.0
  0
SPLINE
  5
177
100
AcDbEntity
  8
Layer_1
 62
7
100
AcDbSpline
 70
8
 71
3
 72
8
 73
4
 74
0
 40
0
 40
0
 40
0
 40
0
 40
1
 40
1
 40
1
 40
1
 10
125.881435
 20
196.065831
 30
0.0
 10
125.881435
 20
195.365074
 30
0.0
 10
125.329640
 20
194.796997
 30
0.0
 10
124.648962
 20
194.796997
 30
0.0
  0
SPLINE
  5
178
100
AcDbEntity
  8
Layer_1
 62
7
100
AcDbSpline
 70
8
 71
3
 72
8
 73
4
 74
0
 40
0
 40
0
 40
0
 40
0
 40
1
 40
1
 40
1
 40
1
 10
124.648962
 20
194.796997
 30
0.0
 10
123.968287
 20
194.796997
 30
0.0
 10
123.416486
 20
195.365074
 30
0.0
 10
123.416486
 20
196.065831
 30
0.0
  0
SPLINE
  5
179
100
AcDbEntity
  8
Layer_1
 62
7
100
AcDbSpline
 70
8
 71
3
 72
8
 73
4
 74
0
 40
0
 40
0
 40
0
 40
0
 40
1
 40
1
 40
1
 40
1
 10
123.416486
 20
196.065831
 30
0.0
 10
123.416486
 20
196.766589
 30
0.0
 10
123.968287
 20
197.334672
 30
0.0
 10
124.648962
 20
197.334672
 30
0.0
  0
SPLINE
  5
17a
100
AcDbEntity
  8
Layer_1
 62
7
100
AcDbSpline
 70
8
 71
3
 72
8
 73
4
 74
0
 40
0
 40
0
 40
0
 40
0
 40
1
 40
1
 40
1
 40
1
 10
124.648962
 20
197.334672
 30
0.0
 10
125.329640
 20
197.334672
 30
0.0
 10
125.881435
 20
196.766589
 30
0.0
 10
125.881435
 20
196.065831
 30
0.0
  0
LINE
  5
17b
100
AcDbEntity
  8
Layer_1
 62
7
100
AcDbLine
 10
125.881435
 20
196.065831
 30
0.0
 11
125.881435
 21
196.065831
 31
0.0
  0
LINE
  5
17c
100
AcDbEntity
  8
Layer_1
 62
1
100
AcDbLine
 10
139.707185
 20
208.168009
 30
0.0
 11
157.207187
 21
208.168009
 31
0.0
  0
LINE
  5
17d
100
AcDbEntity
  8
Layer_1
 62
1
100
AcDbLine
 10
157.207187
 20
208.168009
 30
0.0
 11
157.207187
 21
202.168009
 31
0.0
  0
LINE
  5
17e
100
AcDbEntity
  8
Layer_1
 62
1
100
AcDbLine
 10
157.207187
 20
202.168009
 30
0.0
 11
139.707185
 21
202.168009
 31
0.0
  0
LINE
  5
17f
100
AcDbEntity
  8
Layer_1
 62
1
100
AcDbLine
 10
139.707185
 20
202.168009
 30
0.0
 11
139.707185
 21
208.168009
 31
0.0
  0
LINE
  5
180
100
AcDbEntity
  8
Layer_1
 62
7
100
AcDbLine
 10
69.719898
 20
212.334664
 30
0.0
 11
72.497676
 21
212.334664
 31
0.0
  0
LINE
  5
181
100
AcDbEntity
  8
Layer_1
 62
7
100
AcDbLine
 10
72.497676
 20
212.334664
 30
0.0
 11
72.497676
 21
189.001332
 31
0.0
  0
LINE
  5
182
100
AcDbEntity
  8
Layer_1
 62
7
100
AcDbLine
 10
72.497676
 20
189.001332
 30
0.0
 11
69.719898
 21
189.001332
 31
0.0
  0
LINE
  5
183
100
AcDbEntity
  8
Layer_1
 62
7
100
AcDbLine
 10
69.719898
 20
189.001332
 30
0.0
 11
69.719898
 21
212.334664
 31
0.0
  0
SPLINE
  5
184
100
AcDbEntity
  8
Layer_1
 62
7
100
AcDbSpline
 70
8
 71
3
 72
8
 73
4
 74
0
 40
0
 40
0
 40
0
 40
0
 40
1
 40
1
 40
1
 40
1
 10
120.803791
 20
178.162512
 30
0.0
 10
120.803791
 20
177.461754
 30
0.0
 10
120.251996
 20
176.893677
 30
0.0
 10
119.571318
 20
176.893677
 30
0.0
  0
SPLINE
  5
185
100
AcDbEntity
  8
Layer_1
 62
7
100
AcDbSpline
 70
8
 71
3
 72
8
 73
4
 74
0
 40
0
 40
0
 40
0
 40
0
 40
1
 40
1
 40
1
 40
1
 10
119.571318
 20
176.893677
 30
0.0
 10
118.890641
 20
176.893677
 30
0.0
 10
118.338843
 20
177.461754
 30
0.0
 10
118.338843
 20
178.162512
 30
0.0
  0
SPLINE
  5
186
100
AcDbEntity
  8
Layer_1
 62
7
100
AcDbSpline
 70
8
 71
3
 72
8
 73
4
 74
0
 40
0
 40
0
 40
0
 40
0
 40
1
 40
1
 40
1
 40
1
 10
118.338843
 20
178.162512
 30
0.0
 10
118.338843
 20
178.863269
 30
0.0
 10
118.890641
 20
179.431352
 30
0.0
 10
119.571318
 20
179.431352
 30
0.0
  0
SPLINE
  5
187
100
AcDbEntity
  8
Layer_1
 62
7
100
AcDbSpline
 70
8
 71
3
 72
8
 73
4
 74
0
 40
0
 40
0
 40
0
 40
0
 40
1
 40
1
 40
1
 40
1
 10
119.571318
 20
179.431352
 30
0.0
 10
120.251996
 20
179.431352
 30
0.0
 10
120.803791
 20
178.863269
 30
0.0
 10
120.803791
 20
178.162512
 30
0.0
  0
LINE
  5
188
100
AcDbEntity
  8
Layer_1
 62
7
100
AcDbLine
 10
120.803791
 20
178.162512
 30
0.0
 11
120.803791
 21
178.162512
 31
0.0
  0
SPLINE
  5
189
100
AcDbEntity
  8
Layer_1
 62
7
100
AcDbSpline
 70
8
 71
3
 72
8
 73
4
 74
0
 40
0
 40
0
 40
0
 40
0
 40
1
 40
1
 40
1
 40
1
 10
125.881435
 20
209.065811
 30
0.0
 10
125.881435
 20
208.365053
 30
0.0
 10
125.329640
 20
207.796977
 30
0.0
 10
124.648962
 20
207.796977
 30
0.0
  0
SPLINE
  5
18a
100
AcDbEntity
  8
Layer_1
 62
7
100
AcDbSpline
 70
8
 71
3
 72
8
 73
4
 74
0
 40
0
 40
0
 40
0
 40
0
 40
1
 40
1
 40
1
 40
1
 10
124.648962
 20
207.796977
 30
0.0
 10
123.968287
 20
207.796977
 30
0.0
 10
123.416486
 20
208.365053
 30
0.0
 10
123.416486
 20
209.065811
 30
0.0
  0
SPLINE
  5
18b
100
AcDbEntity
  8
Layer_1
 62
7
100
AcDbSpline
 70
8
 71
3
 72
8
 73
4
 74
0
 40
0
 40
0
 40
0
 40
0
 40
1
 40
1
 40
1
 40
1
 10
123.416486
 20
209.065811
 30
0.0
 10
123.416486
 20
209.766569
 30
0.0
 10
123.968287
 20
210.334651
 30
0.0
 10
124.648962
 20
210.334651
 30
0.0
  0
SPLINE
  5
18c
100
AcDbEntity
  8
Layer_1
 62
7
100
AcDbSpline
 70
8
 71
3
 72
8
 73
4
 74
0
 40
0
 40
0
 40
0
 40
0
 40
1
 40
1
 40
1
 40
1
 10
124.648962
 20
210.334651
 30
0.0
 10
125.329640
 20
210.334651
 30
0.0
 10
125.881435
 20
209.766569
 30
0.0
 10
125.881435
 20
209.065811
 30
0.0
  0
LINE
  5
18d
100
AcDbEntity
  8
Layer_1
 62
7
100
AcDbLine
 10
125.881435
 20
209.065811
 30
0.0
 11
125.881435
 21
209.065811
 31
0.0
  0
LINE
  5
18e
100
AcDbEntity
  8
Layer_1
 62
7
100
AcDbLine
 10
118.182427
 20
192.272528
 30
0.0
 11
120.960205
 21
192.272528
 31
0.0
  0
LINE
  5
18f
100
AcDbEntity
  8
Layer_1
 62
7
100
AcDbLine
 10
120.960205
 20
192.272528
 30
0.0
 11
120.960205
 21
180.050307
 31
0.0
  0
LINE
  5
190
100
AcDbEntity
  8
Layer_1
 62
7
100
AcDbLine
 10
120.960205
 20
180.050307
 30
0.0
 11
118.182427
 21
180.050307
 31
0.0
  0
LINE
  5
191
100
AcDbEntity
  8
Layer_1
 62
7
100
AcDbLine
 10
118.182427
 20
180.050307
 30
0.0
 11
118.182427
 21
192.272528
 31
0.0
  0
LINE
  5
192
100
AcDbEntity
  8
Layer_1
 62
7
100
AcDbLine
 10
118.182427
 20
212.472501
 30
0.0
 11
120.960205
 21
212.472501
 31
0.0
  0
LINE
  5
193
100
AcDbEntity
  8
Layer_1
 62
7
100
AcDbLine
 10
120.960205
 20
212.472501
 30
0.0
 11
120.960205
 21
200.250278
 31
0.0
  0
LINE
  5
194
100
AcDbEntity
  8
Layer_1
 62
7
100
AcDbLine
 10
120.960205
 20
200.250278
 30
0.0
 11
118.182427
 21
200.250278
 31
0.0
  0
LINE
  5
195
100
AcDbEntity
  8
Layer_1
 62
7
100
AcDbLine
 10
118.182427
 20
200.250278
 30
0.0
 11
118.182427
 21
212.472501
 31
0.0
  0
LINE
  5
196
100
AcDbEntity
  8
Layer_1
 62
7
100
AcDbLine
 10
81.636571
 20
193.552518
 30
0.0
 11
96.081015
 21
193.552518
 31
0.0
  0
LINE
  5
197
100
AcDbEntity
  8
Layer_1
 62
7
100
AcDbLine
 10
96.081015
 20
193.552518
 30
0.0
 11
96.081015
 21
190.774741
 31
0.0
  0
LINE
  5
198
100
AcDbEntity
  8
Layer_1
 62
7
100
AcDbLine
 10
96.081015
 20
190.774741
 30
0.0
 11
81.636571
 21
190.774741
 31
0.0
  0
LINE
  5
199
100
AcDbEntity
  8
Layer_1
 62
7
100
AcDbLine
 10
81.636571
 20
190.774741
 30
0.0
 11
81.636571
 21
193.552518
 31
0.0
  0
LINE
  5
19a
100
AcDbEntity
  8
Layer_1
 62
7
100
AcDbLine
 10
76.658786
 20
183.052522
 30
0.0
 11
86.658786
 21
183.052522
 31
0.0
  0
LINE
  5
19b
100
AcDbEntity
  8
Layer_1
 62
7
100
AcDbLine
 10
86.658786
 20
183.052522
 30
0.0
 11
86.658786
 21
180.274745
 31
0.0
  0
LINE
  5
19c
100
AcDbEntity
  8
Layer_1
 62
7
100
AcDbLine
 10
86.658786
 20
180.274745
 30
0.0
 11
76.658786
 21
180.274745
 31
0.0
  0
LINE
  5
19d
100
AcDbEntity
  8
Layer_1
 62
7
100
AcDbLine
 10
76.658786
 20
180.274745
 30
0.0
 11
76.658786
 21
183.052522
 31
0.0
  0
LINE
  5
19e
100
AcDbEntity
  8
Layer_1
 62
7
100
AcDbLine
 10
88.325455
 20
183.052522
 30
0.0
 11
94.992122
 21
183.052522
 31
0.0
  0
LINE
  5
19f
100
AcDbEntity
  8
Layer_1
 62
7
100
AcDbLine
 10
94.992122
 20
183.052522
 30
0.0
 11
94.992122
 21
180.274745
 31
0.0
  0
LINE
  5
1a0
100
AcDbEntity
  8
Layer_1
 62
7
100
AcDbLine
 10
94.992122
 20
180.274745
 30
0.0
 11
88.325455
 21
180.274745
 31
0.0
  0
LINE
  5
1a1
100
AcDbEntity
  8
Layer_1
 62
7
100
AcDbLine
 10
88.325455
 20
180.274745
 30
0.0
 11
88.325455
 21
183.052522
 31
0.0
  0
LINE
  5
1a2
100
AcDbEntity
  8
Layer_1
 62
1
100
AcDbLine
 10
129.857105
 20
218.665806
 30
0.0
 11
199.857103
 21
218.665806
 31
0.0
  0
LINE
  5
1a3
100
AcDbEntity
  8
Layer_1
 62
1
100
AcDbLine
 10
199.857103
 20
218.665806
 30
0.0
 11
199.857103
 21
168.665806
 31
0.0
  0
LINE
  5
1a4
100
AcDbEntity
  8
Layer_1
 62
1
100
AcDbLine
 10
199.857103
 20
168.665806
 30
0.0
 11
129.857105
 21
168.665806
 31
0.0
  0
LINE
  5
1a5
100
AcDbEntity
  8
Layer_1
 62
1
100
AcDbLine
 10
129.857105
 20
168.665806
 30
0.0
 11
129.857105
 21
218.665806
 31
0.0
  0
LINE
  5
1a6
100
AcDbEntity
  8
Layer_1
 62
1
100
AcDbLine
 10
136.857125
 20
217.165809
 30
0.0
 11
197.857127
 21
217.165809
 31
0.0
  0
LINE
  5
1a7
100
AcDbEntity
  8
Layer_1
 62
1
100
AcDbLine
 10
197.857127
 20
217.165809
 30
0.0
 11
197.857127
 21
170.165809
 31
0.0
  0
LINE
  5
1a8
100
AcDbEntity
  8
Layer_1
 62
1
100
AcDbLine
 10
197.857127
 20
170.165809
 30
0.0
 11
136.857125
 21
170.165809
 31
0.0
  0
LINE
  5
1a9
100
AcDbEntity
  8
Layer_1
 62
1
100
AcDbLine
 10
136.857125
 20
170.165809
 30
0.0
 11
136.857125
 21
217.165809
 31
0.0
  0
SPLINE
  5
1aa
100
AcDbEntity
  8
Layer_1
 62
7
100
AcDbSpline
 70
8
 71
3
 72
8
 73
4
 74
0
 40
0
 40
0
 40
0
 40
0
 40
1
 40
1
 40
1
 40
1
 10
68.401923
 20
222.230383
 30
0.0
 10
68.401923
 20
221.409692
 30
0.0
 10
67.731569
 20
220.744390
 30
0.0
 10
66.904647
 20
220.744390
 30
0.0
  0
SPLINE
  5
1ab
100
AcDbEntity
  8
Layer_1
 62
7
100
AcDbSpline
 70
8
 71
3
 72
8
 73
4
 74
0
 40
0
 40
0
 40
0
 40
0
 40
1
 40
1
 40
1
 40
1
 10
66.904647
 20
220.744390
 30
0.0
 10
66.077725
 20
220.744390
 30
0.0
 10
65.407371
 20
221.409692
 30
0.0
 10
65.407371
 20
222.230383
 30
0.0
  0
SPLINE
  5
1ac
100
AcDbEntity
  8
Layer_1
 62
7
100
AcDbSpline
 70
8
 71
3
 72
8
 73
4
 74
0
 40
0
 40
0
 40
0
 40
0
 40
1
 40
1
 40
1
 40
1
 10
65.407371
 20
222.230383
 30
0.0
 10
65.407371
 20
223.051074
 30
0.0
 10
66.077725
 20
223.716376
 30
0.0
 10
66.904647
 20
223.716376
 30
0.0
  0
SPLINE
  5
1ad
100
AcDbEntity
  8
Layer_1
 62
7
100
AcDbSpline
 70
8
 71
3
 72
8
 73
4
 74
0
 40
0
 40
0
 40
0
 40
0
 40
1
 40
1
 40
1
 40
1
 10
66.904647
 20
223.716376
 30
0.0
 10
67.731569
 20
223.716376
 30
0.0
 10
68.401923
 20
223.051074
 30
0.0
 10
68.401923
 20
222.230383
 30
0.0
  0
LINE
  5
1ae
100
AcDbEntity
  8
Layer_1
 62
7
100
AcDbLine
 10
68.401923
 20
222.230383
 30
0.0
 11
68.401923
 21
222.230383
 31
0.0
  0
SPLINE
  5
1af
100
AcDbEntity
  8
Layer_1
 62
7
100
AcDbSpline
 70
8
 71
3
 72
8
 73
4
 74
0
 40
0
 40
0
 40
0
 40
0
 40
1
 40
1
 40
1
 40
1
 10
68.401923
 20
165.101228
 30
0.0
 10
68.401923
 20
164.280537
 30
0.0
 10
67.731569
 20
163.615235
 30
0.0
 10
66.904647
 20
163.615235
 30
0.0
  0
SPLINE
  5
1b0
100
AcDbEntity
  8
Layer_1
 62
7
100
AcDbSpline
 70
8
 71
3
 72
8
 73
4
 74
0
 40
0
 40
0
 40
0
 40
0
 40
1
 40
1
 40
1
 40
1
 10
66.904647
 20
163.615235
 30
0.0
 10
66.077725
 20
163.615235
 30
0.0
 10
65.407371
 20
164.280537
 30
0.0
 10
65.407371
 20
165.101228
 30
0.0
  0
SPLINE
  5
1b1
100
AcDbEntity
  8
Layer_1
 62
7
100
AcDbSpline
 70
8
 71
3
 72
8
 73
4
 74
0
 40
0
 40
0
 40
0
 40
0
 40
1
 40
1
 40
1
 40
1
 10
65.407371
 20
165.101228
 30
0.0
 10
65.407371
 20
165.921919
 30
0.0
 10
66.077725
 20
166.587221
 30
0.0
 10
66.904647
 20
166.587221
 30
0.0
  0
SPLINE
  5
1b2
100
AcDbEntity
  8
Layer_1
 62
7
100
AcDbSpline
 70
8
 71
3
 72
8
 73
4
 74
0
 40
0
 40
0
 40
0
 40
0
 40
1
 40
1
 40
1
 40
1
 10
66.904647
 20
166.587221
 30
0.0
 10
67.731569
 20
166.587221
 30
0.0
 10
68.401923
 20
165.921919
 30
0.0
 10
68.401923
 20
165.101228
 30
0.0
  0
LINE
  5
1b3
100
AcDbEntity
  8
Layer_1
 62
7
100
AcDbLine
 10
68.401923
 20
165.101228
 30
0.0
 11
68.401923
 21
165.101228
 31
0.0
  0
SPLINE
  5
1b4
100
AcDbEntity
  8
Layer_1
 62
7
100
AcDbSpline
 70
8
 71
3
 72
8
 73
4
 74
0
 40
0
 40
0
 40
0
 40
0
 40
1
 40
1
 40
1
 40
1
 10
166.955210
 20
222.230383
 30
0.0
 10
166.955210
 20
221.409692
 30
0.0
 10
166.284856
 20
220.744390
 30
0.0
 10
165.457934
 20
220.744390
 30
0.0
  0
SPLINE
  5
1b5
100
AcDbEntity
  8
Layer_1
 62
7
100
AcDbSpline
 70
8
 71
3
 72
8
 73
4
 74
0
 40
0
 40
0
 40
0
 40
0
 40
1
 40
1
 40
1
 40
1
 10
165.457934
 20
220.744390
 30
0.0
 10
164.631012
 20
220.744390
 30
0.0
 10
163.960658
 20
221.409692
 30
0.0
 10
163.960658
 20
222.230383
 30
0.0
  0
SPLINE
  5
1b6
100
AcDbEntity
  8
Layer_1
 62
7
100
AcDbSpline
 70
8
 71
3
 72
8
 73
4
 74
0
 40
0
 40
0
 40
0
 40
0
 40
1
 40
1
 40
1
 40
1
 10
163.960658
 20
222.230383
 30
0.0
 10
163.960658
 20
223.051074
 30
0.0
 10
164.631012
 20
223.716376
 30
0.0
 10
165.457934
 20
223.716376
 30
0.0
  0
SPLINE
  5
1b7
100
AcDbEntity
  8
Layer_1
 62
7
100
AcDbSpline
 70
8
 71
3
 72
8
 73
4
 74
0
 40
0
 40
0
 40
0
 40
0
 40
1
 40
1
 40
1
 40
1
 10
165.457934
 20
223.716376
 30
0.0
 10
166.284856
 20
223.716376
 30
0.0
 10
166.955210
 20
223.051074
 30
0.0
 10
166.955210
 20
222.230383
 30
0.0
  0
LINE
  5
1b8
100
AcDbEntity
  8
Layer_1
 62
7
100
AcDbLine
 10
166.955210
 20
222.230383
 30
0.0
 11
166.955210
 21
222.230383
 31
0.0
  0
SPLINE
  5
1b9
100
AcDbEntity
  8
Layer_1
 62
7
100
AcDbSpline
 70
8
 71
3
 72
8
 73
4
 74
0
 40
0
 40
0
 40
0
 40
0
 40
1
 40
1
 40
1
 40
1
 10
166.955210
 20
165.101228
 30
0.0
 10
166.955210
 20
164.280537
 30
0.0
 10
166.284856
 20
163.615235
 30
0.0
 10
165.457934
 20
163.615235
 30
0.0
  0
SPLINE
  5
1ba
100
AcDbEntity
  8
Layer_1
 62
7
100
AcDbSpline
 70
8
 71
3
 72
8
 73
4
 74
0
 40
0
 40
0
 40
0
 40
0
 40
1
 40
1
 40
1
 40
1
 10
165.457934
 20
163.615235
 30
0.0
 10
164.631012
 20
163.615235
 30
0.0
 10
163.960658
 20
164.280537
 30
0.0
 10
163.960658
 20
165.101228
 30
0.0
  0
SPLINE
  5
1bb
100
AcDbEntity
  8
Layer_1
 62
7
100
AcDbSpline
 70
8
 71
3
 72
8
 73
4
 74
0
 40
0
 40
0
 40
0
 40
0
 40
1
 40
1
 40
1
 40
1
 10
163.960658
 20
165.101228
 30
0.0
 10
163.960658
 20
165.921919
 30
0.0
 10
164.631012
 20
166.587221
 30
0.0
 10
165.457934
 20
166.587221
 30
0.0
  0
SPLINE
  5
1bc
100
AcDbEntity
  8
Layer_1
 62
7
100
AcDbSpline
 70
8
 71
3
 72
8
 73
4
 74
0
 40
0
 40
0
 40
0
 40
0
 40
1
 40
1
 40
1
 40
1
 10
165.457934
 20
166.587221
 30
0.0
 10
166.284856
 20
166.587221
 30
0.0
 10
166.955210
 20
165.921919
 30
0.0
 10
166.955210
 20
165.101228
 30
0.0
  0
LINE
  5
1bd
100
AcDbEntity
  8
Layer_1
 62
7
100
AcDbLine
 10
166.955210
 20
165.101228
 30
0.0
 11
166.955210
 21
165.101228
 31
0.0
  0
SPLINE
  5
1be
100
AcDbEntity
  8
Layer_1
 62
7
100
AcDbSpline
 70
8
 71
3
 72
8
 73
4
 74
0
 40
0
 40
0
 40
0
 40
0
 40
1
 40
1
 40
1
 40
1
 10
205.508617
 20
222.230383
 30
0.0
 10
205.508617
 20
221.409692
 30
0.0
 10
204.838263
 20
220.744390
 30
0.0
 10
204.011341
 20
220.744390
 30
0.0
  0
SPLINE
  5
1bf
100
AcDbEntity
  8
Layer_1
 62
7
100
AcDbSpline
 70
8
 71
3
 72
8
 73
4
 74
0
 40
0
 40
0
 40
0
 40
0
 40
1
 40
1
 40
1
 40
1
 10
204.011341
 20
220.744390
 30
0.0
 10
203.184419
 20
220.744390
 30
0.0
 10
202.514065
 20
221.409692
 30
0.0
 10
202.514065
 20
222.230383
 30
0.0
  0
SPLINE
  5
1c0
100
AcDbEntity
  8
Layer_1
 62
7
100
AcDbSpline
 70
8
 71
3
 72
8
 73
4
 74
0
 40
0
 40
0
 40
0
 40
0
 40
1
 40
1
 40
1
 40
1
 10
202.514065
 20
222.230383
 30
0.0
 10
202.514065
 20
223.051074
 30
0.0
 10
203.184419
 20
223.716376
 30
0.0
 10
204.011341
 20
223.716376
 30
0.0
  0
SPLINE
  5
1c1
100
AcDbEntity
  8
Layer_1
 62
7
100
AcDbSpline
 70
8
 71
3
 72
8
 73
4
 74
0
 40
0
 40
0
 40
0
 40
0
 40
1
 40
1
 40
1
 40
1
 10
204.011341
 20
223.716376
 30
0.0
 10
204.838263
 20
223.716376
 30
0.0
 10
205.508617
 20
223.051074
 30
0.0
 10
205.508617
 20
222.230383
 30
0.0
  0
LINE
  5
1c2
100
AcDbEntity
  8
Layer_1
 62
7
100
AcDbLine
 10
205.508617
 20
222.230383
 30
0.0
 11
205.508617
 21
222.230383
 31
0.0
  0
SPLINE
  5
1c3
100
AcDbEntity
  8
Layer_1
 62
7
100
AcDbSpline
 70
8
 71
3
 72
8
 73
4
 74
0
 40
0
 40
0
 40
0
 40
0
 40
1
 40
1
 40
1
 40
1
 10
205.508617
 20
165.101228
 30
0.0
 10
205.508617
 20
164.280537
 30
0.0
 10
204.838263
 20
163.615235
 30
0.0
 10
204.011341
 20
163.615235
 30
0.0
  0
SPLINE
  5
1c4
100
AcDbEntity
  8
Layer_1
 62
7
100
AcDbSpline
 70
8
 71
3
 72
8
 73
4
 74
0
 40
0
 40
0
 40
0
 40
0
 40
1
 40
1
 40
1
 40
1
 10
204.011341
 20
163.615235
 30
0.0
 10
203.184419
 20
163.615235
 30
0.0
 10
202.514065
 20
164.280537
 30
0.0
 10
202.514065
 20
165.101228
 30
0.0
  0
SPLINE
  5
1c5
100
AcDbEntity
  8
Layer_1
 62
7
100
AcDbSpline
 70
8
 71
3
 72
8
 73
4
 74
0
 40
0
 40
0
 40
0
 40
0
 40
1
 40
1
 40
1
 40
1
 10
202.514065
 20
165.101228
 30
0.0
 10
202.514065
 20
165.921919
 30
0.0
 10
203.184419
 20
166.587221
 30
0.0
 10
204.011341
 20
166.587221
 30
0.0
  0
SPLINE
  5
1c6
100
AcDbEntity
  8
Layer_1
 62
7
100
AcDbSpline
 70
8
 71
3
 72
8
 73
4
 74
0
 40
0
 40
0
 40
0
 40
0
 40
1
 40
1
 40
1
 40
1
 10
204.011341
 20
166.587221
 30
0.0
 10
204.838263
 20
166.587221
 30
0.0
 10
205.508617
 20
165.921919
 30
0.0
 10
205.508617
 20
165.101228
 30
0.0
  0
LINE
  5
1c7
100
AcDbEntity
  8
Layer_1
 62
7
100
AcDbLine
 10
205.508617
 20
165.101228
 30
0.0
 11
205.508617
 21
165.101228
 31
0.0
  0
SPLINE
  5
1c8
100
AcDbEntity
  8
Layer_1
 62
7
100
AcDbSpline
 70
8
 71
3
 72
8
 73
4
 74
0
 40
0
 40
0
 40
0
 40
0
 40
1
 40
1
 40
1
 40
1
 10
106.955330
 20
222.230383
 30
0.0
 10
106.955330
 20
221.409692
 30
0.0
 10
106.284976
 20
220.744390
 30
0.0
 10
105.458054
 20
220.744390
 30
0.0
  0
SPLINE
  5
1c9
100
AcDbEntity
  8
Layer_1
 62
7
100
AcDbSpline
 70
8
 71
3
 72
8
 73
4
 74
0
 40
0
 40
0
 40
0
 40
0
 40
1
 40
1
 40
1
 40
1
 10
105.458054
 20
220.744390
 30
0.0
 10
104.631132
 20
220.744390
 30
0.0
 10
103.960778
 20
221.409692
 30
0.0
 10
103.960778
 20
222.230383
 30
0.0
  0
SPLINE
  5
1ca
100
AcDbEntity
  8
Layer_1
 62
7
100
AcDbSpline
 70
8
 71
3
 72
8
 73
4
 74
0
 40
0
 40
0
 40
0
 40
0
 40
1
 40
1
 40
1
 40
1
 10
103.960778
 20
222.230383
 30
0.0
 10
103.960778
 20
223.051074
 30
0.0
 10
104.631132
 20
223.716376
 30
0.0
 10
105.458054
 20
223.716376
 30
0.0
  0
SPLINE
  5
1cb
100
AcDbEntity
  8
Layer_1
 62
7
100
AcDbSpline
 70
8
 71
3
 72
8
 73
4
 74
0
 40
0
 40
0
 40
0
 40
0
 40
1
 40
1
 40
1
 40
1
 10
105.458054
 20
223.716376
 30
0.0
 10
106.284976
 20
223.716376
 30
0.0
 10
106.955330
 20
223.051074
 30
0.0
 10
106.955330
 20
222.230383
 30
0.0
  0
LINE
  5
1cc
100
AcDbEntity
  8
Layer_1
 62
7
100
AcDbLine
 10
106.955330
 20
222.230383
 30
0.0
 11
106.955330
 21
222.230383
 31
0.0
  0
SPLINE
  5
1cd
100
AcDbEntity
  8
Layer_1
 62
7
100
AcDbSpline
 70
8
 71
3
 72
8
 73
4
 74
0
 40
0
 40
0
 40
0
 40
0
 40
1
 40
1
 40
1
 40
1
 10
106.955330
 20
165.101228
 30
0.0
 10
106.955330
 20
164.280537
 30
0.0
 10
106.284976
 20
163.615235
 30
0.0
 10
105.458054
 20
163.615235
 30
0.0
  0
SPLINE
  5
1ce
100
AcDbEntity
  8
Layer_1
 62
7
100
AcDbSpline
 70
8
 71
3
 72
8
 73
4
 74
0
 40
0
 40
0
 40
0
 40
0
 40
1
 40
1
 40
1
 40
1
 10
105.458054
 20
163.615235
 30
0.0
 10
104.631132
 20
163.615235
 30
0.0
 10
103.960778
 20
164.280537
 30
0.0
 10
103.960778
 20
165.101228
 30
0.0
  0
SPLINE
  5
1cf
100
AcDbEntity
  8
Layer_1
 62
7
100
AcDbSpline
 70
8
 71
3
 72
8
 73
4
 74
0
 40
0
 40
0
 40
0
 40
0
 40
1
 40
1
 40
1
 40
1
 10
103.960778
 20
165.101228
 30
0.0
 10
103.960778
 20
165.921919
 30
0.0
 10
104.631132
 20
166.587221
 30
0.0
 10
105.458054
 20
166.587221
 30
0.0
  0
SPLINE
  5
1d0
100
AcDbEntity
  8
Layer_1
 62
7
100
AcDbSpline
 70
8
 71
3
 72
8
 73
4
 74
0
 40
0
 40
0
 40
0
 40
0
 40
1
 40
1
 40
1
 40
1
 10
105.458054
 20
166.587221
 30
0.0
 10
106.284976
 20
166.587221
 30
0.0
 10
106.955330
 20
165.921919
 30
0.0
 10
106.955330
 20
165.101228
 30
0.0
  0
LINE
  5
1d1
100
AcDbEntity
  8
Layer_1
 62
7
100
AcDbLine
 10
106.955330
 20
165.101228
 30
0.0
 11
106.955330
 21
165.101228
 31
0.0
  0
SPLINE
  5
1d2
100
AcDbEntity
  8
Layer_1
 62
7
100
AcDbSpline
 70
8
 71
3
 72
8
 73
4
 74
0
 40
0
 40
0
 40
0
 40
0
 40
1
 40
1
 40
1
 40
1
 10
60.457258
 20
163.666469
 30
0.0
 10
60.457258
 20
160.896469
 30
0.0
 10
62.687883
 20
158.665844
 30
0.0
 10
65.457883
 20
158.665844
 30
0.0
  0
LINE
  5
1d3
100
AcDbEntity
  8
Layer_1
 62
7
100
AcDbLine
 10
65.457883
 20
158.665844
 30
0.0
 11
205.457744
 21
158.665844
 31
0.0
  0
SPLINE
  5
1d4
100
AcDbEntity
  8
Layer_1
 62
7
100
AcDbSpline
 70
8
 71
3
 72
8
 73
4
 74
0
 40
0
 40
0
 40
0
 40
0
 40
1
 40
1
 40
1
 40
1
 10
205.457744
 20
158.665844
 30
0.0
 10
208.227744
 20
158.665844
 30
0.0
 10
210.458369
 20
160.896469
 30
0.0
 10
210.458369
 20
163.666469
 30
0.0
  0
LINE
  5
1d5
100
AcDbEntity
  8
Layer_1
 62
7
100
AcDbLine
 10
210.458369
 20
163.666469
 30
0.0
 11
210.458369
 21
223.665150
 31
0.0
  0
SPLINE
  5
1d6
100
AcDbEntity
  8
Layer_1
 62
7
100
AcDbSpline
 70
8
 71
3
 72
8
 73
4
 74
0
 40
0
 40
0
 40
0
 40
0
 40
1
 40
1
 40
1
 40
1
 10
210.458369
 20
223.665150
 30
0.0
 10
210.458369
 20
226.435150
 30
0.0
 10
208.227744
 20
228.665775
 30
0.0
 10
205.457744
 20
228.665775
 30
0.0
  0
LINE
  5
1d7
100
AcDbEntity
  8
Layer_1
 62
7
100
AcDbLine
 10
205.457744
 20
228.665775
 30
0.0
 11
99.457479
 21
228.665772
 31
0.0
  0
SPLINE
  5
1d8
100
AcDbEntity
  8
Layer_1
 62
7
100
AcDbSpline
 70
8
 71
3
 72
8
 73
4
 74
0
 40
0
 40
0
 40
0
 40
0
 40
1
 40
1
 40
1
 40
1
 10
99.457479
 20
228.665772
 30
0.0
 10
96.698666
 20
228.665772
 30
0.0
 10
94.461180
 20
226.420364
 30
0.0
 10
94.458700
 20
223.658148
 30
0.0
  0
LINE
  5
1d9
100
AcDbEntity
  8
Layer_1
 62
7
100
AcDbLine
 10
94.458700
 20
223.658148
 30
0.0
 11
94.467251
 21
216.672016
 31
0.0
  0
SPLINE
  5
1da
100
AcDbEntity
  8
Layer_1
 62
7
100
AcDbSpline
 70
8
 71
3
 72
8
 73
4
 74
0
 40
0
 40
0
 40
0
 40
0
 40
1
 40
1
 40
1
 40
1
 10
94.467251
 20
216.672016
 30
0.0
 10
94.478258
 20
213.912306
 30
0.0
 10
92.240783
 20
211.666898
 30
0.0
 10
89.468472
 20
211.664389
 30
0.0
  0
LINE
  5
1db
100
AcDbEntity
  8
Layer_1
 62
7
100
AcDbLine
 10
89.468472
 20
211.664389
 30
0.0
 11
82.453658
 21
211.664389
 31
0.0
  0
SPLINE
  5
1dc
100
AcDbEntity
  8
Layer_1
 62
7
100
AcDbSpline
 70
8
 71
3
 72
8
 73
4
 74
0
 40
0
 40
0
 40
0
 40
0
 40
1
 40
1
 40
1
 40
1
 10
82.453658
 20
211.664389
 30
0.0
 10
79.686082
 20
211.666929
 30
0.0
 10
77.448596
 20
213.912306
 30
0.0
 10
77.454879
 20
216.672016
 30
0.0
  0
LINE
  5
1dd
100
AcDbEntity
  8
Layer_1
 62
7
100
AcDbLine
 10
77.454879
 20
216.672016
 30
0.0
 11
77.463430
 21
223.658148
 31
0.0
  0
SPLINE
  5
1de
100
AcDbEntity
  8
Layer_1
 62
7
100
AcDbSpline
 70
8
 71
3
 72
8
 73
4
 74
0
 40
0
 40
0
 40
0
 40
0
 40
1
 40
1
 40
1
 40
1
 10
77.463430
 20
223.658148
 30
0.0
 10
77.465688
 20
226.420364
 30
0.0
 10
75.228199
 20
228.665772
 30
0.0
 10
72.464648
 20
228.665772
 30
0.0
  0
LINE
  5
1df
100
AcDbEntity
  8
Layer_1
 62
7
100
AcDbLine
 10
72.464648
 20
228.665772
 30
0.0
 11
65.457908
 21
228.665775
 31
0.0
  0
SPLINE
  5
1e0
100
AcDbEntity
  8
Layer_1
 62
7
100
AcDbSpline
 70
8
 71
3
 72
8
 73
4
 74
0
 40
0
 40
0
 40
0
 40
0
 40
1
 40
1
 40
1
 40
1
 10
65.457908
 20
228.665775
 30
0.0
 10
62.687908
 20
228.665775
 30
0.0
 10
60.457283
 20
226.435150
 30
0.0
 10
60.457283
 20
223.665150
 30
0.0
  0
LINE
  5
1e1
100
AcDbEntity
  8
Layer_1
 62
7
100
AcDbLine
 10
60.457283
 20
223.665150
 30
0.0
 11
60.457283
 21
206.810678
 31
0.0
  0
LINE
  5
1e2
100
AcDbEntity
  8
Layer_1
 62
7
100
AcDbLine
 10
60.457283
 20
206.810678
 30
0.0
 11
60.457283
 21
197.661174
 31
0.0
  0
SPLINE
  5
1e3
100
AcDbEntity
  8
Layer_1
 62
7
100
AcDbSpline
 70
8
 71
3
 72
8
 73
4
 74
0
 40
0
 40
0
 40
0
 40
0
 40
1
 40
1
 40
1
 40
1
 10
60.457283
 20
197.661174
 30
0.0
 10
60.457283
 20
194.901092
 30
0.0
 10
62.702691
 20
192.663606
 30
0.0
 10
65.457979
 20
192.665401
 30
0.0
  0
SPLINE
  5
1e4
100
AcDbEntity
  8
Layer_1
 62
7
100
AcDbSpline
 70
8
 71
3
 72
8
 73
4
 74
0
 40
0
 40
0
 40
0
 40
0
 40
1
 40
1
 40
1
 40
1
 10
65.457979
 20
192.665401
 30
0.0
 10
68.210757
 20
192.680697
 30
0.0
 10
68.456169
 20
190.443208
 30
0.0
 10
68.458681
 20
187.670892
 30
0.0
  0
LINE
  5
1e5
100
AcDbEntity
  8
Layer_1
 62
7
100
AcDbLine
 10
68.458681
 20
187.670892
 30
0.0
 11
68.458681
 21
183.656066
 31
0.0
  0
SPLINE
  5
1e6
100
AcDbEntity
  8
Layer_1
 62
7
100
AcDbSpline
 70
8
 71
3
 72
8
 73
4
 74
0
 40
0
 40
0
 40
0
 40
0
 40
1
 40
1
 40
1
 40
1
 10
68.458681
 20
183.656066
 30
0.0
 10
68.456141
 20
180.888490
 30
0.0
 10
68.210757
 20
178.651004
 30
0.0
 10
65.452896
 20
178.658413
 30
0.0
  0
SPLINE
  5
1e7
100
AcDbEntity
  8
Layer_1
 62
7
100
AcDbSpline
 70
8
 71
3
 72
8
 73
4
 74
0
 40
0
 40
0
 40
0
 40
0
 40
1
 40
1
 40
1
 40
1
 10
65.452896
 20
178.658413
 30
0.0
 10
62.702669
 20
178.668093
 30
0.0
 10
60.457261
 20
176.430593
 30
0.0
 10
60.457261
 20
173.670510
 30
0.0
  0
LINE
  5
1e8
100
AcDbEntity
  8
Layer_1
 62
7
100
AcDbLine
 10
60.457261
 20
173.670510
 30
0.0
 11
60.484298
 21
163.141036
 31
0.0
  0
SPLINE
  5
1e9
100
AcDbEntity
  8
Layer_1
 62
1
100
AcDbSpline
 70
8
 71
3
 72
8
 73
4
 74
0
 40
0
 40
0
 40
0
 40
0
 40
1
 40
1
 40
1
 40
1
 10
89.180369
 20
174.651761
 30
0.0
 10
89.180369
 20
175.013006
 30
0.0
 10
89.455818
 20
175.157504
 30
0.0
 10
89.778680
 20
175.157504
 30
0.0
  0
SPLINE
  5
1ea
100
AcDbEntity
  8
Layer_1
 62
1
100
AcDbSpline
 70
8
 71
3
 72
8
 73
4
 74
0
 40
0
 40
0
 40
0
 40
0
 40
1
 40
1
 40
1
 40
1
 10
89.778680
 20
175.157504
 30
0.0
 10
90.106058
 20
175.157504
 30
0.0
 10
90.311516
 20
174.952046
 30
0.0
 10
90.318289
 20
174.751104
 30
0.0
  0
SPLINE
  5
1eb
100
AcDbEntity
  8
Layer_1
 62
1
100
AcDbSpline
 70
8
 71
3
 72
8
 73
4
 74
0
 40
0
 40
0
 40
0
 40
0
 40
1
 40
1
 40
1
 40
1
 10
90.318289
 20
174.751104
 30
0.0
 10
90.325062
 20
174.552419
 30
0.0
 10
90.223462
 20
174.394375
 30
0.0
 10
90.022520
 20
174.351477
 30
0.0
  0
LINE
  5
1ec
100
AcDbEntity
  8
Layer_1
 62
1
100
AcDbLine
 10
90.022520
 20
174.351477
 30
0.0
 11
89.469365
 21
174.231815
 31
0.0
  0
SPLINE
  5
1ed
100
AcDbEntity
  8
Layer_1
 62
1
100
AcDbSpline
 70
8
 71
3
 72
8
 73
4
 74
0
 40
0
 40
0
 40
0
 40
0
 40
1
 40
1
 40
1
 40
1
 10
89.469365
 20
174.231815
 30
0.0
 10
89.313578
 20
174.197948
 30
0.0
 10
89.221009
 20
174.107637
 30
0.0
 10
89.221009
 20
173.895406
 30
0.0
  0
SPLINE
  5
1ee
100
AcDbEntity
  8
Layer_1
 62
1
100
AcDbSpline
 70
8
 71
3
 72
8
 73
4
 74
0
 40
0
 40
0
 40
0
 40
0
 40
1
 40
1
 40
1
 40
1
 10
89.221009
 20
173.895406
 30
0.0
 10
89.221009
 20
173.683175
 30
0.0
 10
89.399374
 20
173.500295
 30
0.0
 10
89.724494
 20
173.500295
 30
0.0
  0
SPLINE
  5
1ef
100
AcDbEntity
  8
Layer_1
 62
1
100
AcDbSpline
 70
8
 71
3
 72
8
 73
4
 74
0
 40
0
 40
0
 40
0
 40
0
 40
1
 40
1
 40
1
 40
1
 10
89.724494
 20
173.500295
 30
0.0
 10
90.049614
 20
173.500295
 30
0.0
 10
90.286680
 20
173.653824
 30
0.0
 10
90.277649
 20
173.922499
 30
0.0
  0
SPLINE
  5
1f0
100
AcDbEntity
  8
Layer_1
 62
1
100
AcDbSpline
 70
8
 71
3
 72
8
 73
4
 74
0
 40
0
 40
0
 40
0
 40
0
 40
1
 40
1
 40
1
 40
1
 10
90.277649
 20
173.922499
 30
0.0
 10
90.286680
 20
173.653824
 30
0.0
 10
90.049614
 20
173.500295
 30
0.0
 10
89.724494
 20
173.500295
 30
0.0
  0
SPLINE
  5
1f1
100
AcDbEntity
  8
Layer_1
 62
1
100
AcDbSpline
 70
8
 71
3
 72
8
 73
4
 74
0
 40
0
 40
0
 40
0
 40
0
 40
1
 40
1
 40
1
 40
1
 10
89.724494
 20
173.500295
 30
0.0
 10
89.399374
 20
173.500295
 30
0.0
 10
89.221009
 20
173.683175
 30
0.0
 10
89.221009
 20
173.895406
 30
0.0
  0
SPLINE
  5
1f2
100
AcDbEntity
  8
Layer_1
 62
1
100
AcDbSpline
 70
8
 71
3
 72
8
 73
4
 74
0
 40
0
 40
0
 40
0
 40
0
 40
1
 40
1
 40
1
 40
1
 10
89.221009
 20
173.895406
 30
0.0
 10
89.221009
 20
174.107637
 30
0.0
 10
89.309062
 20
174.195690
 30
0.0
 10
89.469365
 20
174.231815
 30
0.0
  0
LINE
  5
1f3
100
AcDbEntity
  8
Layer_1
 62
1
100
AcDbLine
 10
89.469365
 20
174.231815
 30
0.0
 11
90.022520
 21
174.351477
 31
0.0
  0
SPLINE
  5
1f4
100
AcDbEntity
  8
Layer_1
 62
1
100
AcDbSpline
 70
8
 71
3
 72
8
 73
4
 74
0
 40
0
 40
0
 40
0
 40
0
 40
1
 40
1
 40
1
 40
1
 10
90.022520
 20
174.351477
 30
0.0
 10
90.227978
 20
174.394375
 30
0.0
 10
90.325062
 20
174.552419
 30
0.0
 10
90.318289
 20
174.751104
 30
0.0
  0
SPLINE
  5
1f5
100
AcDbEntity
  8
Layer_1
 62
1
100
AcDbSpline
 70
8
 71
3
 72
8
 73
4
 74
0
 40
0
 40
0
 40
0
 40
0
 40
1
 40
1
 40
1
 40
1
 10
90.318289
 20
174.751104
 30
0.0
 10
90.311516
 20
174.952046
 30
0.0
 10
90.106058
 20
175.157504
 30
0.0
 10
89.778680
 20
175.157504
 30
0.0
  0
SPLINE
  5
1f6
100
AcDbEntity
  8
Layer_1
 62
1
100
AcDbSpline
 70
8
 71
3
 72
8
 73
4
 74
0
 40
0
 40
0
 40
0
 40
0
 40
1
 40
1
 40
1
 40
1
 10
89.778680
 20
175.157504
 30
0.0
 10
89.455818
 20
175.157504
 30
0.0
 10
89.180369
 20
175.013006
 30
0.0
 10
89.180369
 20
174.651761
 30
0.0
  0
LINE
  5
1f7
100
AcDbEntity
  8
Layer_1
 62
1
100
AcDbLine
 10
91.108723
 20
175.143957
 30
0.0
 11
91.108723
 21
173.516099
 31
0.0
  0
LINE
  5
1f8
100
AcDbEntity
  8
Layer_1
 62
1
100
AcDbLine
 10
91.108723
 20
173.516099
 30
0.0
 11
91.628012
 21
173.516099
 31
0.0
  0
SPLINE
  5
1f9
100
AcDbEntity
  8
Layer_1
 62
1
100
AcDbSpline
 70
8
 71
3
 72
8
 73
4
 74
0
 40
0
 40
0
 40
0
 40
0
 40
1
 40
1
 40
1
 40
1
 10
91.628012
 20
173.516099
 30
0.0
 10
92.045701
 20
173.516099
 30
0.0
 10
92.140527
 20
173.714784
 30
0.0
 10
92.151816
 20
173.933788
 30
0.0
  0
SPLINE
  5
1fa
100
AcDbEntity
  8
Layer_1
 62
1
100
AcDbSpline
 70
8
 71
3
 72
8
 73
4
 74
0
 40
0
 40
0
 40
0
 40
0
 40
1
 40
1
 40
1
 40
1
 10
92.151816
 20
173.933788
 30
0.0
 10
92.160847
 20
174.152792
 30
0.0
 10
92.043443
 20
174.380828
 30
0.0
 10
91.670910
 20
174.380828
 30
0.0
  0
LINE
  5
1fb
100
AcDbEntity
  8
Layer_1
 62
1
100
AcDbLine
 10
91.670910
 20
174.380828
 30
0.0
 11
91.108723
 21
174.380828
 31
0.0
  0
LINE
  5
1fc
100
AcDbEntity
  8
Layer_1
 62
1
100
AcDbLine
 10
91.108723
 20
174.380828
 30
0.0
 11
91.670910
 21
174.380828
 31
0.0
  0
SPLINE
  5
1fd
100
AcDbEntity
  8
Layer_1
 62
1
100
AcDbSpline
 70
8
 71
3
 72
8
 73
4
 74
0
 40
0
 40
0
 40
0
 40
0
 40
1
 40
1
 40
1
 40
1
 10
91.670910
 20
174.380828
 30
0.0
 10
92.036670
 20
174.380828
 30
0.0
 10
92.160847
 20
174.152792
 30
0.0
 10
92.151816
 20
173.933788
 30
0.0
  0
SPLINE
  5
1fe
100
AcDbEntity
  8
Layer_1
 62
1
100
AcDbSpline
 70
8
 71
3
 72
8
 73
4
 74
0
 40
0
 40
0
 40
0
 40
0
 40
1
 40
1
 40
1
 40
1
 10
92.151816
 20
173.933788
 30
0.0
 10
92.140527
 20
173.714784
 30
0.0
 10
92.041185
 20
173.516099
 30
0.0
 10
91.628012
 20
173.516099
 30
0.0
  0
LINE
  5
1ff
100
AcDbEntity
  8
Layer_1
 62
1
100
AcDbLine
 10
91.628012
 20
173.516099
 30
0.0
 11
91.108723
 21
173.516099
 31
0.0
  0
LINE
  5
200
100
AcDbEntity
  8
Layer_1
 62
1
100
AcDbLine
 10
91.108723
 20
173.516099
 30
0.0
 11
91.108723
 21
175.143957
 31
0.0
  0
LINE
  5
201
100
AcDbEntity
  8
Layer_1
 62
1
100
AcDbLine
 10
92.956395
 20
175.143957
 30
0.0
 11
92.956395
 21
173.516099
 31
0.0
  0
LINE
  5
202
100
AcDbEntity
  8
Layer_1
 62
1
100
AcDbLine
 10
92.956395
 20
173.516099
 30
0.0
 11
92.956395
 21
174.505006
 31
0.0
  0
LINE
  5
203
100
AcDbEntity
  8
Layer_1
 62
1
100
AcDbLine
 10
92.956395
 20
174.505006
 30
0.0
 11
94.028840
 21
173.516099
 31
0.0
  0
LINE
  5
204
100
AcDbEntity
  8
Layer_1
 62
1
100
AcDbLine
 10
94.028840
 20
173.516099
 30
0.0
 11
93.371826
 21
174.121184
 31
0.0
  0
LINE
  5
205
100
AcDbEntity
  8
Layer_1
 62
1
100
AcDbLine
 10
93.371826
 20
174.121184
 30
0.0
 11
94.137213
 21
175.143957
 31
0.0
  0
LINE
  5
206
100
AcDbEntity
  8
Layer_1
 62
1
100
AcDbLine
 10
94.137213
 20
175.143957
 30
0.0
 11
93.371826
 21
174.121184
 31
0.0
  0
LINE
  5
207
100
AcDbEntity
  8
Layer_1
 62
1
100
AcDbLine
 10
93.371826
 20
174.121184
 30
0.0
 11
92.956395
 21
174.505006
 31
0.0
  0
LINE
  5
208
100
AcDbEntity
  8
Layer_1
 62
1
100
AcDbLine
 10
92.956395
 20
174.505006
 30
0.0
 11
92.956395
 21
175.143957
 31
0.0
  0
LINE
  5
209
100
AcDbEntity
  8
Layer_1
 62
1
100
AcDbLine
 10
116.414221
 20
181.496849
 30
0.0
 11
117.071234
 21
181.496849
 31
0.0
  0
LINE
  5
20a
100
AcDbEntity
  8
Layer_1
 62
1
100
AcDbLine
 10
117.071234
 20
181.496849
 30
0.0
 11
116.414221
 21
181.496849
 31
0.0
  0
LINE
  5
20b
100
AcDbEntity
  8
Layer_1
 62
1
100
AcDbLine
 10
113.628546
 20
183.542395
 30
0.0
 11
113.037009
 21
185.170253
 31
0.0
  0
LINE
  5
20c
100
AcDbEntity
  8
Layer_1
 62
1
100
AcDbLine
 10
113.037009
 20
185.170253
 30
0.0
 11
112.445471
 21
183.542395
 31
0.0
  0
LINE
  5
20d
100
AcDbEntity
  8
Layer_1
 62
1
100
AcDbLine
 10
112.445471
 20
183.542395
 30
0.0
 11
113.037009
 21
185.170253
 31
0.0
  0
LINE
  5
20e
100
AcDbEntity
  8
Layer_1
 62
1
100
AcDbLine
 10
113.037009
 20
185.170253
 30
0.0
 11
113.628546
 21
183.542395
 31
0.0
  0
LINE
  5
20f
100
AcDbEntity
  8
Layer_1
 62
1
100
AcDbLine
 10
115.357158
 20
183.542395
 30
0.0
 11
114.765620
 21
185.170253
 31
0.0
  0
LINE
  5
210
100
AcDbEntity
  8
Layer_1
 62
1
100
AcDbLine
 10
114.765620
 20
185.170253
 30
0.0
 11
114.174082
 21
183.542395
 31
0.0
  0
LINE
  5
211
100
AcDbEntity
  8
Layer_1
 62
1
100
AcDbLine
 10
114.174082
 20
183.542395
 30
0.0
 11
114.765620
 21
185.170253
 31
0.0
  0
LINE
  5
212
100
AcDbEntity
  8
Layer_1
 62
1
100
AcDbLine
 10
114.765620
 20
185.170253
 30
0.0
 11
115.357158
 21
183.542395
 31
0.0
  0
SPLINE
  5
213
100
AcDbEntity
  8
Layer_1
 62
1
100
AcDbSpline
 70
8
 71
3
 72
8
 73
4
 74
0
 40
0
 40
0
 40
0
 40
0
 40
1
 40
1
 40
1
 40
1
 10
115.902693
 20
184.678058
 30
0.0
 10
115.902693
 20
185.039302
 30
0.0
 10
116.178142
 20
185.183800
 30
0.0
 10
116.501004
 20
185.183800
 30
0.0
  0
SPLINE
  5
214
100
AcDbEntity
  8
Layer_1
 62
1
100
AcDbSpline
 70
8
 71
3
 72
8
 73
4
 74
0
 40
0
 40
0
 40
0
 40
0
 40
1
 40
1
 40
1
 40
1
 10
116.501004
 20
185.183800
 30
0.0
 10
116.828382
 20
185.183800
 30
0.0
 10
117.033840
 20
184.978342
 30
0.0
 10
117.040613
 20
184.777400
 30
0.0
  0
SPLINE
  5
215
100
AcDbEntity
  8
Layer_1
 62
1
100
AcDbSpline
 70
8
 71
3
 72
8
 73
4
 74
0
 40
0
 40
0
 40
0
 40
0
 40
1
 40
1
 40
1
 40
1
 10
117.040613
 20
184.777400
 30
0.0
 10
117.047386
 20
184.578715
 30
0.0
 10
116.945786
 20
184.420671
 30
0.0
 10
116.744844
 20
184.377773
 30
0.0
  0
LINE
  5
216
100
AcDbEntity
  8
Layer_1
 62
1
100
AcDbLine
 10
116.744844
 20
184.377773
 30
0.0
 11
116.191689
 21
184.258111
 31
0.0
  0
SPLINE
  5
217
100
AcDbEntity
  8
Layer_1
 62
1
100
AcDbSpline
 70
8
 71
3
 72
8
 73
4
 74
0
 40
0
 40
0
 40
0
 40
0
 40
1
 40
1
 40
1
 40
1
 10
116.191689
 20
184.258111
 30
0.0
 10
116.035902
 20
184.224244
 30
0.0
 10
115.943333
 20
184.133933
 30
0.0
 10
115.943333
 20
183.921702
 30
0.0
  0
SPLINE
  5
218
100
AcDbEntity
  8
Layer_1
 62
1
100
AcDbSpline
 70
8
 71
3
 72
8
 73
4
 74
0
 40
0
 40
0
 40
0
 40
0
 40
1
 40
1
 40
1
 40
1
 10
115.943333
 20
183.921702
 30
0.0
 10
115.943333
 20
183.709471
 30
0.0
 10
116.121698
 20
183.526591
 30
0.0
 10
116.446818
 20
183.526591
 30
0.0
  0
SPLINE
  5
219
100
AcDbEntity
  8
Layer_1
 62
1
100
AcDbSpline
 70
8
 71
3
 72
8
 73
4
 74
0
 40
0
 40
0
 40
0
 40
0
 40
1
 40
1
 40
1
 40
1
 10
116.446818
 20
183.526591
 30
0.0
 10
116.771938
 20
183.526591
 30
0.0
 10
117.009004
 20
183.680120
 30
0.0
 10
116.999973
 20
183.948795
 30
0.0
  0
SPLINE
  5
21a
100
AcDbEntity
  8
Layer_1
 62
1
100
AcDbSpline
 70
8
 71
3
 72
8
 73
4
 74
0
 40
0
 40
0
 40
0
 40
0
 40
1
 40
1
 40
1
 40
1
 10
116.999973
 20
183.948795
 30
0.0
 10
117.009004
 20
183.680120
 30
0.0
 10
116.771938
 20
183.526591
 30
0.0
 10
116.446818
 20
183.526591
 30
0.0
  0
SPLINE
  5
21b
100
AcDbEntity
  8
Layer_1
 62
1
100
AcDbSpline
 70
8
 71
3
 72
8
 73
4
 74
0
 40
0
 40
0
 40
0
 40
0
 40
1
 40
1
 40
1
 40
1
 10
116.446818
 20
183.526591
 30
0.0
 10
116.121698
 20
183.526591
 30
0.0
 10
115.943333
 20
183.709471
 30
0.0
 10
115.943333
 20
183.921702
 30
0.0
  0
SPLINE
  5
21c
100
AcDbEntity
  8
Layer_1
 62
1
100
AcDbSpline
 70
8
 71
3
 72
8
 73
4
 74
0
 40
0
 40
0
 40
0
 40
0
 40
1
 40
1
 40
1
 40
1
 10
115.943333
 20
183.921702
 30
0.0
 10
115.943333
 20
184.133933
 30
0.0
 10
116.031386
 20
184.221986
 30
0.0
 10
116.191689
 20
184.258111
 30
0.0
  0
LINE
  5
21d
100
AcDbEntity
  8
Layer_1
 62
1
100
AcDbLine
 10
116.191689
 20
184.258111
 30
0.0
 11
116.744844
 21
184.377773
 31
0.0
  0
SPLINE
  5
21e
100
AcDbEntity
  8
Layer_1
 62
1
100
AcDbSpline
 70
8
 71
3
 72
8
 73
4
 74
0
 40
0
 40
0
 40
0
 40
0
 40
1
 40
1
 40
1
 40
1
 10
116.744844
 20
184.377773
 30
0.0
 10
116.950302
 20
184.420671
 30
0.0
 10
117.047386
 20
184.578715
 30
0.0
 10
117.040613
 20
184.777400
 30
0.0
  0
SPLINE
  5
21f
100
AcDbEntity
  8
Layer_1
 62
1
100
AcDbSpline
 70
8
 71
3
 72
8
 73
4
 74
0
 40
0
 40
0
 40
0
 40
0
 40
1
 40
1
 40
1
 40
1
 10
117.040613
 20
184.777400
 30
0.0
 10
117.033840
 20
184.978342
 30
0.0
 10
116.828382
 20
185.183800
 30
0.0
 10
116.501004
 20
185.183800
 30
0.0
  0
SPLINE
  5
220
100
AcDbEntity
  8
Layer_1
 62
1
100
AcDbSpline
 70
8
 71
3
 72
8
 73
4
 74
0
 40
0
 40
0
 40
0
 40
0
 40
1
 40
1
 40
1
 40
1
 10
116.501004
 20
185.183800
 30
0.0
 10
116.178142
 20
185.183800
 30
0.0
 10
115.902693
 20
185.039302
 30
0.0
 10
115.902693
 20
184.678058
 30
0.0
  0
LINE
  5
221
100
AcDbEntity
  8
Layer_1
 62
1
100
AcDbLine
 10
112.219095
 20
187.202253
 30
0.0
 11
112.799344
 21
187.202253
 31
0.0
  0
SPLINE
  5
222
100
AcDbEntity
  8
Layer_1
 62
1
100
AcDbSpline
 70
8
 71
3
 72
8
 73
4
 74
0
 40
0
 40
0
 40
0
 40
0
 40
1
 40
1
 40
1
 40
1
 10
112.799344
 20
187.202253
 30
0.0
 10
112.799344
 20
187.757664
 30
0.0
 10
112.548728
 20
188.003764
 30
0.0
 10
112.149104
 20
188.003764
 30
0.0
  0
SPLINE
  5
223
100
AcDbEntity
  8
Layer_1
 62
1
100
AcDbSpline
 70
8
 71
3
 72
8
 73
4
 74
0
 40
0
 40
0
 40
0
 40
0
 40
1
 40
1
 40
1
 40
1
 10
112.149104
 20
188.003764
 30
0.0
 10
111.749477
 20
188.003764
 30
0.0
 10
111.435646
 20
187.793788
 30
0.0
 10
111.435646
 20
187.177418
 30
0.0
  0
SPLINE
  5
224
100
AcDbEntity
  8
Layer_1
 62
1
100
AcDbSpline
 70
8
 71
3
 72
8
 73
4
 74
0
 40
0
 40
0
 40
0
 40
0
 40
1
 40
1
 40
1
 40
1
 10
111.435646
 20
187.177418
 30
0.0
 10
111.435646
 20
186.558786
 30
0.0
 10
111.702064
 20
186.344298
 30
0.0
 10
112.149104
 20
186.344298
 30
0.0
  0
SPLINE
  5
225
100
AcDbEntity
  8
Layer_1
 62
1
100
AcDbSpline
 70
8
 71
3
 72
8
 73
4
 74
0
 40
0
 40
0
 40
0
 40
0
 40
1
 40
1
 40
1
 40
1
 10
112.149104
 20
186.344298
 30
0.0
 10
112.467450
 20
186.344298
 30
0.0
 10
112.695486
 20
186.454929
 30
0.0
 10
112.799344
 20
186.746182
 30
0.0
  0
SPLINE
  5
226
100
AcDbEntity
  8
Layer_1
 62
1
100
AcDbSpline
 70
8
 71
3
 72
8
 73
4
 74
0
 40
0
 40
0
 40
0
 40
0
 40
1
 40
1
 40
1
 40
1
 10
112.799344
 20
186.746182
 30
0.0
 10
112.695486
 20
186.454929
 30
0.0
 10
112.467450
 20
186.344298
 30
0.0
 10
112.149104
 20
186.344298
 30
0.0
  0
SPLINE
  5
227
100
AcDbEntity
  8
Layer_1
 62
1
100
AcDbSpline
 70
8
 71
3
 72
8
 73
4
 74
0
 40
0
 40
0
 40
0
 40
0
 40
1
 40
1
 40
1
 40
1
 10
112.149104
 20
186.344298
 30
0.0
 10
111.702064
 20
186.344298
 30
0.0
 10
111.435646
 20
186.558786
 30
0.0
 10
111.435646
 20
187.177418
 30
0.0
  0
SPLINE
  5
228
100
AcDbEntity
  8
Layer_1
 62
1
100
AcDbSpline
 70
8
 71
3
 72
8
 73
4
 74
0
 40
0
 40
0
 40
0
 40
0
 40
1
 40
1
 40
1
 40
1
 10
111.435646
 20
187.177418
 30
0.0
 10
111.435646
 20
187.793788
 30
0.0
 10
111.749477
 20
188.003764
 30
0.0
 10
112.149104
 20
188.003764
 30
0.0
  0
SPLINE
  5
229
100
AcDbEntity
  8
Layer_1
 62
1
100
AcDbSpline
 70
8
 71
3
 72
8
 73
4
 74
0
 40
0
 40
0
 40
0
 40
0
 40
1
 40
1
 40
1
 40
1
 10
112.149104
 20
188.003764
 30
0.0
 10
112.548728
 20
188.003764
 30
0.0
 10
112.799344
 20
187.757664
 30
0.0
 10
112.799344
 20
187.202253
 30
0.0
  0
LINE
  5
22a
100
AcDbEntity
  8
Layer_1
 62
1
100
AcDbLine
 10
112.799344
 20
187.202253
 30
0.0
 11
112.219095
 21
187.202253
 31
0.0
  0
LINE
  5
22b
100
AcDbEntity
  8
Layer_1
 62
1
100
AcDbLine
 10
112.799344
 20
187.992475
 30
0.0
 11
112.799344
 21
187.202253
 31
0.0
  0
LINE
  5
22c
100
AcDbEntity
  8
Layer_1
 62
1
100
AcDbLine
 10
112.799344
 20
187.202253
 30
0.0
 11
112.799344
 21
187.992475
 31
0.0
  0
LINE
  5
22d
100
AcDbEntity
  8
Layer_1
 62
1
100
AcDbLine
 10
113.597714
 20
187.992475
 30
0.0
 11
113.597714
 21
186.364618
 31
0.0
  0
LINE
  5
22e
100
AcDbEntity
  8
Layer_1
 62
1
100
AcDbLine
 10
113.597714
 20
186.364618
 30
0.0
 11
114.758211
 21
187.992475
 31
0.0
  0
LINE
  5
22f
100
AcDbEntity
  8
Layer_1
 62
1
100
AcDbLine
 10
114.758211
 20
187.992475
 30
0.0
 11
114.758211
 21
186.364618
 31
0.0
  0
LINE
  5
230
100
AcDbEntity
  8
Layer_1
 62
1
100
AcDbLine
 10
114.758211
 20
186.364618
 30
0.0
 11
114.758211
 21
187.992475
 31
0.0
  0
LINE
  5
231
100
AcDbEntity
  8
Layer_1
 62
1
100
AcDbLine
 10
114.758211
 20
187.992475
 30
0.0
 11
113.597714
 21
186.364618
 31
0.0
  0
LINE
  5
232
100
AcDbEntity
  8
Layer_1
 62
1
100
AcDbLine
 10
113.597714
 20
186.364618
 30
0.0
 11
113.597714
 21
187.992475
 31
0.0
  0
LINE
  5
233
100
AcDbEntity
  8
Layer_1
 62
1
100
AcDbLine
 10
115.811394
 20
187.992475
 30
0.0
 11
115.811394
 21
186.364618
 31
0.0
  0
LINE
  5
234
100
AcDbEntity
  8
Layer_1
 62
1
100
AcDbLine
 10
115.811394
 20
186.364618
 30
0.0
 11
116.398416
 21
186.364618
 31
0.0
  0
SPLINE
  5
235
100
AcDbEntity
  8
Layer_1
 62
1
100
AcDbSpline
 70
8
 71
3
 72
8
 73
4
 74
0
 40
0
 40
0
 40
0
 40
0
 40
1
 40
1
 40
1
 40
1
 10
116.398416
 20
186.364618
 30
0.0
 10
116.935768
 20
186.364618
 30
0.0
 10
117.001243
 20
186.816173
 30
0.0
 10
117.014790
 20
187.154840
 30
0.0
  0
SPLINE
  5
236
100
AcDbEntity
  8
Layer_1
 62
1
100
AcDbSpline
 70
8
 71
3
 72
8
 73
4
 74
0
 40
0
 40
0
 40
0
 40
0
 40
1
 40
1
 40
1
 40
1
 10
117.014790
 20
187.154840
 30
0.0
 10
117.028336
 20
187.493506
 30
0.0
 10
116.913190
 20
187.992475
 30
0.0
 10
116.398416
 20
187.992475
 30
0.0
  0
LINE
  5
237
100
AcDbEntity
  8
Layer_1
 62
1
100
AcDbLine
 10
116.398416
 20
187.992475
 30
0.0
 11
115.811394
 21
187.992475
 31
0.0
  0
LINE
  5
238
100
AcDbEntity
  8
Layer_1
 62
1
100
AcDbLine
 10
115.811394
 20
187.992475
 30
0.0
 11
115.811394
 21
186.364618
 31
0.0
  0
LINE
  5
239
100
AcDbEntity
  8
Layer_1
 62
1
100
AcDbLine
 10
115.811394
 20
186.364618
 30
0.0
 11
116.398416
 21
186.364618
 31
0.0
  0
SPLINE
  5
23a
100
AcDbEntity
  8
Layer_1
 62
1
100
AcDbSpline
 70
8
 71
3
 72
8
 73
4
 74
0
 40
0
 40
0
 40
0
 40
0
 40
1
 40
1
 40
1
 40
1
 10
116.398416
 20
186.364618
 30
0.0
 10
116.935768
 20
186.364618
 30
0.0
 10
117.001243
 20
186.816173
 30
0.0
 10
117.014790
 20
187.154840
 30
0.0
  0
SPLINE
  5
23b
100
AcDbEntity
  8
Layer_1
 62
1
100
AcDbSpline
 70
8
 71
3
 72
8
 73
4
 74
0
 40
0
 40
0
 40
0
 40
0
 40
1
 40
1
 40
1
 40
1
 10
117.014790
 20
187.154840
 30
0.0
 10
117.028336
 20
187.493506
 30
0.0
 10
116.913190
 20
187.992475
 30
0.0
 10
116.398416
 20
187.992475
 30
0.0
  0
LINE
  5
23c
100
AcDbEntity
  8
Layer_1
 62
1
100
AcDbLine
 10
116.398416
 20
187.992475
 30
0.0
 11
115.811394
 21
187.992475
 31
0.0
  0
LINE
  5
23d
100
AcDbEntity
  8
Layer_1
 62
1
100
AcDbLine
 10
112.219095
 20
190.024475
 30
0.0
 11
112.799344
 21
190.024475
 31
0.0
  0
SPLINE
  5
23e
100
AcDbEntity
  8
Layer_1
 62
1
100
AcDbSpline
 70
8
 71
3
 72
8
 73
4
 74
0
 40
0
 40
0
 40
0
 40
0
 40
1
 40
1
 40
1
 40
1
 10
112.799344
 20
190.024475
 30
0.0
 10
112.799344
 20
190.579886
 30
0.0
 10
112.548728
 20
190.825986
 30
0.0
 10
112.149104
 20
190.825986
 30
0.0
  0
SPLINE
  5
23f
100
AcDbEntity
  8
Layer_1
 62
1
100
AcDbSpline
 70
8
 71
3
 72
8
 73
4
 74
0
 40
0
 40
0
 40
0
 40
0
 40
1
 40
1
 40
1
 40
1
 10
112.149104
 20
190.825986
 30
0.0
 10
111.749477
 20
190.825986
 30
0.0
 10
111.435646
 20
190.616010
 30
0.0
 10
111.435646
 20
189.999640
 30
0.0
  0
SPLINE
  5
240
100
AcDbEntity
  8
Layer_1
 62
1
100
AcDbSpline
 70
8
 71
3
 72
8
 73
4
 74
0
 40
0
 40
0
 40
0
 40
0
 40
1
 40
1
 40
1
 40
1
 10
111.435646
 20
189.999640
 30
0.0
 10
111.435646
 20
189.381009
 30
0.0
 10
111.702064
 20
189.166520
 30
0.0
 10
112.149104
 20
189.166520
 30
0.0
  0
SPLINE
  5
241
100
AcDbEntity
  8
Layer_1
 62
1
100
AcDbSpline
 70
8
 71
3
 72
8
 73
4
 74
0
 40
0
 40
0
 40
0
 40
0
 40
1
 40
1
 40
1
 40
1
 10
112.149104
 20
189.166520
 30
0.0
 10
112.467450
 20
189.166520
 30
0.0
 10
112.695486
 20
189.277151
 30
0.0
 10
112.799344
 20
189.568404
 30
0.0
  0
SPLINE
  5
242
100
AcDbEntity
  8
Layer_1
 62
1
100
AcDbSpline
 70
8
 71
3
 72
8
 73
4
 74
0
 40
0
 40
0
 40
0
 40
0
 40
1
 40
1
 40
1
 40
1
 10
112.799344
 20
189.568404
 30
0.0
 10
112.695486
 20
189.277151
 30
0.0
 10
112.467450
 20
189.166520
 30
0.0
 10
112.149104
 20
189.166520
 30
0.0
  0
SPLINE
  5
243
100
AcDbEntity
  8
Layer_1
 62
1
100
AcDbSpline
 70
8
 71
3
 72
8
 73
4
 74
0
 40
0
 40
0
 40
0
 40
0
 40
1
 40
1
 40
1
 40
1
 10
112.149104
 20
189.166520
 30
0.0
 10
111.702064
 20
189.166520
 30
0.0
 10
111.435646
 20
189.381009
 30
0.0
 10
111.435646
 20
189.999640
 30
0.0
  0
SPLINE
  5
244
100
AcDbEntity
  8
Layer_1
 62
1
100
AcDbSpline
 70
8
 71
3
 72
8
 73
4
 74
0
 40
0
 40
0
 40
0
 40
0
 40
1
 40
1
 40
1
 40
1
 10
111.435646
 20
189.999640
 30
0.0
 10
111.435646
 20
190.616010
 30
0.0
 10
111.749477
 20
190.825986
 30
0.0
 10
112.149104
 20
190.825986
 30
0.0
  0
SPLINE
  5
245
100
AcDbEntity
  8
Layer_1
 62
1
100
AcDbSpline
 70
8
 71
3
 72
8
 73
4
 74
0
 40
0
 40
0
 40
0
 40
0
 40
1
 40
1
 40
1
 40
1
 10
112.149104
 20
190.825986
 30
0.0
 10
112.548728
 20
190.825986
 30
0.0
 10
112.799344
 20
190.579886
 30
0.0
 10
112.799344
 20
190.024475
 30
0.0
  0
LINE
  5
246
100
AcDbEntity
  8
Layer_1
 62
1
100
AcDbLine
 10
112.799344
 20
190.024475
 30
0.0
 11
112.219095
 21
190.024475
 31
0.0
  0
LINE
  5
247
100
AcDbEntity
  8
Layer_1
 62
1
100
AcDbLine
 10
112.799344
 20
190.814698
 30
0.0
 11
112.799344
 21
190.024475
 31
0.0
  0
LINE
  5
248
100
AcDbEntity
  8
Layer_1
 62
1
100
AcDbLine
 10
112.799344
 20
190.024475
 30
0.0
 11
112.799344
 21
190.814698
 31
0.0
  0
LINE
  5
249
100
AcDbEntity
  8
Layer_1
 62
1
100
AcDbLine
 10
113.597714
 20
190.814698
 30
0.0
 11
113.597714
 21
189.186840
 31
0.0
  0
LINE
  5
24a
100
AcDbEntity
  8
Layer_1
 62
1
100
AcDbLine
 10
113.597714
 20
189.186840
 30
0.0
 11
114.758211
 21
190.814698
 31
0.0
  0
LINE
  5
24b
100
AcDbEntity
  8
Layer_1
 62
1
100
AcDbLine
 10
114.758211
 20
190.814698
 30
0.0
 11
114.758211
 21
189.186840
 31
0.0
  0
LINE
  5
24c
100
AcDbEntity
  8
Layer_1
 62
1
100
AcDbLine
 10
114.758211
 20
189.186840
 30
0.0
 11
114.758211
 21
190.814698
 31
0.0
  0
LINE
  5
24d
100
AcDbEntity
  8
Layer_1
 62
1
100
AcDbLine
 10
114.758211
 20
190.814698
 30
0.0
 11
113.597714
 21
189.186840
 31
0.0
  0
LINE
  5
24e
100
AcDbEntity
  8
Layer_1
 62
1
100
AcDbLine
 10
113.597714
 20
189.186840
 30
0.0
 11
113.597714
 21
190.814698
 31
0.0
  0
LINE
  5
24f
100
AcDbEntity
  8
Layer_1
 62
1
100
AcDbLine
 10
115.811394
 20
190.814698
 30
0.0
 11
115.811394
 21
189.186840
 31
0.0
  0
LINE
  5
250
100
AcDbEntity
  8
Layer_1
 62
1
100
AcDbLine
 10
115.811394
 20
189.186840
 30
0.0
 11
116.398416
 21
189.186840
 31
0.0
  0
SPLINE
  5
251
100
AcDbEntity
  8
Layer_1
 62
1
100
AcDbSpline
 70
8
 71
3
 72
8
 73
4
 74
0
 40
0
 40
0
 40
0
 40
0
 40
1
 40
1
 40
1
 40
1
 10
116.398416
 20
189.186840
 30
0.0
 10
116.935768
 20
189.186840
 30
0.0
 10
117.001243
 20
189.638395
 30
0.0
 10
117.014790
 20
189.977062
 30
0.0
  0
SPLINE
  5
252
100
AcDbEntity
  8
Layer_1
 62
1
100
AcDbSpline
 70
8
 71
3
 72
8
 73
4
 74
0
 40
0
 40
0
 40
0
 40
0
 40
1
 40
1
 40
1
 40
1
 10
117.014790
 20
189.977062
 30
0.0
 10
117.028336
 20
190.315729
 30
0.0
 10
116.913190
 20
190.814698
 30
0.0
 10
116.398416
 20
190.814698
 30
0.0
  0
LINE
  5
253
100
AcDbEntity
  8
Layer_1
 62
1
100
AcDbLine
 10
116.398416
 20
190.814698
 30
0.0
 11
115.811394
 21
190.814698
 31
0.0
  0
LINE
  5
254
100
AcDbEntity
  8
Layer_1
 62
1
100
AcDbLine
 10
115.811394
 20
190.814698
 30
0.0
 11
115.811394
 21
189.186840
 31
0.0
  0
LINE
  5
255
100
AcDbEntity
  8
Layer_1
 62
1
100
AcDbLine
 10
115.811394
 20
189.186840
 30
0.0
 11
116.398416
 21
189.186840
 31
0.0
  0
SPLINE
  5
256
100
AcDbEntity
  8
Layer_1
 62
1
100
AcDbSpline
 70
8
 71
3
 72
8
 73
4
 74
0
 40
0
 40
0
 40
0
 40
0
 40
1
 40
1
 40
1
 40
1
 10
116.398416
 20
189.186840
 30
0.0
 10
116.935768
 20
189.186840
 30
0.0
 10
117.001243
 20
189.638395
 30
0.0
 10
117.014790
 20
189.977062
 30
0.0
  0
SPLINE
  5
257
100
AcDbEntity
  8
Layer_1
 62
1
100
AcDbSpline
 70
8
 71
3
 72
8
 73
4
 74
0
 40
0
 40
0
 40
0
 40
0
 40
1
 40
1
 40
1
 40
1
 10
117.014790
 20
189.977062
 30
0.0
 10
117.028336
 20
190.315729
 30
0.0
 10
116.913190
 20
190.814698
 30
0.0
 10
116.398416
 20
190.814698
 30
0.0
  0
LINE
  5
258
100
AcDbEntity
  8
Layer_1
 62
1
100
AcDbLine
 10
116.398416
 20
190.814698
 30
0.0
 11
115.811394
 21
190.814698
 31
0.0
  0
SPLINE
  5
259
100
AcDbEntity
  8
Layer_1
 62
1
100
AcDbSpline
 70
8
 71
3
 72
8
 73
4
 74
0
 40
0
 40
0
 40
0
 40
0
 40
1
 40
1
 40
1
 40
1
 10
115.638862
 20
203.916424
 30
0.0
 10
115.397280
 20
203.916424
 30
0.0
 10
115.230204
 20
204.092531
 30
0.0
 10
115.230204
 20
204.381526
 30
0.0
  0
SPLINE
  5
25a
100
AcDbEntity
  8
Layer_1
 62
1
100
AcDbSpline
 70
8
 71
3
 72
8
 73
4
 74
0
 40
0
 40
0
 40
0
 40
0
 40
1
 40
1
 40
1
 40
1
 10
115.230204
 20
204.381526
 30
0.0
 10
115.230204
 20
204.670522
 30
0.0
 10
115.349867
 20
204.869206
 30
0.0
 10
115.647893
 20
204.869206
 30
0.0
  0
SPLINE
  5
25b
100
AcDbEntity
  8
Layer_1
 62
1
100
AcDbSpline
 70
8
 71
3
 72
8
 73
4
 74
0
 40
0
 40
0
 40
0
 40
0
 40
1
 40
1
 40
1
 40
1
 10
115.647893
 20
204.869206
 30
0.0
 10
115.945920
 20
204.869206
 30
0.0
 10
116.106222
 20
204.693099
 30
0.0
 10
116.106222
 20
204.300246
 30
0.0
  0
SPLINE
  5
25c
100
AcDbEntity
  8
Layer_1
 62
1
100
AcDbSpline
 70
8
 71
3
 72
8
 73
4
 74
0
 40
0
 40
0
 40
0
 40
0
 40
1
 40
1
 40
1
 40
1
 10
116.106222
 20
204.300246
 30
0.0
 10
116.103964
 20
204.690842
 30
0.0
 10
116.264267
 20
204.817277
 30
0.0
 10
116.481013
 20
204.817277
 30
0.0
  0
SPLINE
  5
25d
100
AcDbEntity
  8
Layer_1
 62
1
100
AcDbSpline
 70
8
 71
3
 72
8
 73
4
 74
0
 40
0
 40
0
 40
0
 40
0
 40
1
 40
1
 40
1
 40
1
 10
116.481013
 20
204.817277
 30
0.0
 10
116.697760
 20
204.817277
 30
0.0
 10
116.867093
 20
204.706646
 30
0.0
 10
116.867093
 20
204.399588
 30
0.0
  0
SPLINE
  5
25e
100
AcDbEntity
  8
Layer_1
 62
1
100
AcDbSpline
 70
8
 71
3
 72
8
 73
4
 74
0
 40
0
 40
0
 40
0
 40
0
 40
1
 40
1
 40
1
 40
1
 10
116.867093
 20
204.399588
 30
0.0
 10
116.867093
 20
204.094788
 30
0.0
 10
116.675182
 20
203.948033
 30
0.0
 10
116.458436
 20
203.948033
 30
0.0
  0
SPLINE
  5
25f
100
AcDbEntity
  8
Layer_1
 62
1
100
AcDbSpline
 70
8
 71
3
 72
8
 73
4
 74
0
 40
0
 40
0
 40
0
 40
0
 40
1
 40
1
 40
1
 40
1
 10
116.458436
 20
203.948033
 30
0.0
 10
116.675182
 20
203.948033
 30
0.0
 10
116.867093
 20
204.094788
 30
0.0
 10
116.867093
 20
204.399588
 30
0.0
  0
SPLINE
  5
260
100
AcDbEntity
  8
Layer_1
 62
1
100
AcDbSpline
 70
8
 71
3
 72
8
 73
4
 74
0
 40
0
 40
0
 40
0
 40
0
 40
1
 40
1
 40
1
 40
1
 10
116.867093
 20
204.399588
 30
0.0
 10
116.867093
 20
204.706646
 30
0.0
 10
116.697760
 20
204.817277
 30
0.0
 10
116.481013
 20
204.817277
 30
0.0
  0
SPLINE
  5
261
100
AcDbEntity
  8
Layer_1
 62
1
100
AcDbSpline
 70
8
 71
3
 72
8
 73
4
 74
0
 40
0
 40
0
 40
0
 40
0
 40
1
 40
1
 40
1
 40
1
 10
116.481013
 20
204.817277
 30
0.0
 10
116.264267
 20
204.817277
 30
0.0
 10
116.103964
 20
204.690842
 30
0.0
 10
116.106222
 20
204.300246
 30
0.0
  0
SPLINE
  5
262
100
AcDbEntity
  8
Layer_1
 62
1
100
AcDbSpline
 70
8
 71
3
 72
8
 73
4
 74
0
 40
0
 40
0
 40
0
 40
0
 40
1
 40
1
 40
1
 40
1
 10
116.106222
 20
204.300246
 30
0.0
 10
116.106222
 20
204.693099
 30
0.0
 10
115.945920
 20
204.869206
 30
0.0
 10
115.647893
 20
204.869206
 30
0.0
  0
SPLINE
  5
263
100
AcDbEntity
  8
Layer_1
 62
1
100
AcDbSpline
 70
8
 71
3
 72
8
 73
4
 74
0
 40
0
 40
0
 40
0
 40
0
 40
1
 40
1
 40
1
 40
1
 10
115.647893
 20
204.869206
 30
0.0
 10
115.349867
 20
204.869206
 30
0.0
 10
115.230204
 20
204.670522
 30
0.0
 10
115.230204
 20
204.381526
 30
0.0
  0
SPLINE
  5
264
100
AcDbEntity
  8
Layer_1
 62
1
100
AcDbSpline
 70
8
 71
3
 72
8
 73
4
 74
0
 40
0
 40
0
 40
0
 40
0
 40
1
 40
1
 40
1
 40
1
 10
115.230204
 20
204.381526
 30
0.0
 10
115.230204
 20
204.092531
 30
0.0
 10
115.397280
 20
203.916424
 30
0.0
 10
115.638862
 20
203.916424
 30
0.0
  0
LINE
  5
265
100
AcDbEntity
  8
Layer_1
 62
1
100
AcDbLine
 10
115.230204
 20
205.646339
 30
0.0
 11
115.354382
 21
205.646339
 31
0.0
  0
LINE
  5
266
100
AcDbEntity
  8
Layer_1
 62
1
100
AcDbLine
 10
115.354382
 20
205.646339
 30
0.0
 11
115.230204
 21
205.646339
 31
0.0
  0
SPLINE
  5
267
100
AcDbEntity
  8
Layer_1
 62
1
100
AcDbSpline
 70
8
 71
3
 72
8
 73
4
 74
0
 40
0
 40
0
 40
0
 40
0
 40
1
 40
1
 40
1
 40
1
 10
115.638862
 20
206.399096
 30
0.0
 10
115.397280
 20
206.399096
 30
0.0
 10
115.230204
 20
206.575203
 30
0.0
 10
115.230204
 20
206.864198
 30
0.0
  0
SPLINE
  5
268
100
AcDbEntity
  8
Layer_1
 62
1
100
AcDbSpline
 70
8
 71
3
 72
8
 73
4
 74
0
 40
0
 40
0
 40
0
 40
0
 40
1
 40
1
 40
1
 40
1
 10
115.230204
 20
206.864198
 30
0.0
 10
115.230204
 20
207.153194
 30
0.0
 10
115.349867
 20
207.351878
 30
0.0
 10
115.647893
 20
207.351878
 30
0.0
  0
SPLINE
  5
269
100
AcDbEntity
  8
Layer_1
 62
1
100
AcDbSpline
 70
8
 71
3
 72
8
 73
4
 74
0
 40
0
 40
0
 40
0
 40
0
 40
1
 40
1
 40
1
 40
1
 10
115.647893
 20
207.351878
 30
0.0
 10
115.945920
 20
207.351878
 30
0.0
 10
116.106222
 20
207.175772
 30
0.0
 10
116.106222
 20
206.782918
 30
0.0
  0
SPLINE
  5
26a
100
AcDbEntity
  8
Layer_1
 62
1
100
AcDbSpline
 70
8
 71
3
 72
8
 73
4
 74
0
 40
0
 40
0
 40
0
 40
0
 40
1
 40
1
 40
1
 40
1
 10
116.106222
 20
206.782918
 30
0.0
 10
116.103964
 20
207.173514
 30
0.0
 10
116.264267
 20
207.299949
 30
0.0
 10
116.481013
 20
207.299949
 30
0.0
  0
SPLINE
  5
26b
100
AcDbEntity
  8
Layer_1
 62
1
100
AcDbSpline
 70
8
 71
3
 72
8
 73
4
 74
0
 40
0
 40
0
 40
0
 40
0
 40
1
 40
1
 40
1
 40
1
 10
116.481013
 20
207.299949
 30
0.0
 10
116.697760
 20
207.299949
 30
0.0
 10
116.867093
 20
207.189318
 30
0.0
 10
116.867093
 20
206.882261
 30
0.0
  0
SPLINE
  5
26c
100
AcDbEntity
  8
Layer_1
 62
1
100
AcDbSpline
 70
8
 71
3
 72
8
 73
4
 74
0
 40
0
 40
0
 40
0
 40
0
 40
1
 40
1
 40
1
 40
1
 10
116.867093
 20
206.882261
 30
0.0
 10
116.867093
 20
206.577461
 30
0.0
 10
116.675182
 20
206.430705
 30
0.0
 10
116.458436
 20
206.430705
 30
0.0
  0
SPLINE
  5
26d
100
AcDbEntity
  8
Layer_1
 62
1
100
AcDbSpline
 70
8
 71
3
 72
8
 73
4
 74
0
 40
0
 40
0
 40
0
 40
0
 40
1
 40
1
 40
1
 40
1
 10
116.458436
 20
206.430705
 30
0.0
 10
116.675182
 20
206.430705
 30
0.0
 10
116.867093
 20
206.577461
 30
0.0
 10
116.867093
 20
206.882261
 30
0.0
  0
SPLINE
  5
26e
100
AcDbEntity
  8
Layer_1
 62
1
100
AcDbSpline
 70
8
 71
3
 72
8
 73
4
 74
0
 40
0
 40
0
 40
0
 40
0
 40
1
 40
1
 40
1
 40
1
 10
116.867093
 20
206.882261
 30
0.0
 10
116.867093
 20
207.189318
 30
0.0
 10
116.697760
 20
207.299949
 30
0.0
 10
116.481013
 20
207.299949
 30
0.0
  0
SPLINE
  5
26f
100
AcDbEntity
  8
Layer_1
 62
1
100
AcDbSpline
 70
8
 71
3
 72
8
 73
4
 74
0
 40
0
 40
0
 40
0
 40
0
 40
1
 40
1
 40
1
 40
1
 10
116.481013
 20
207.299949
 30
0.0
 10
116.264267
 20
207.299949
 30
0.0
 10
116.103964
 20
207.173514
 30
0.0
 10
116.106222
 20
206.782918
 30
0.0
  0
SPLINE
  5
270
100
AcDbEntity
  8
Layer_1
 62
1
100
AcDbSpline
 70
8
 71
3
 72
8
 73
4
 74
0
 40
0
 40
0
 40
0
 40
0
 40
1
 40
1
 40
1
 40
1
 10
116.106222
 20
206.782918
 30
0.0
 10
116.106222
 20
207.175772
 30
0.0
 10
115.945920
 20
207.351878
 30
0.0
 10
115.647893
 20
207.351878
 30
0.0
  0
SPLINE
  5
271
100
AcDbEntity
  8
Layer_1
 62
1
100
AcDbSpline
 70
8
 71
3
 72
8
 73
4
 74
0
 40
0
 40
0
 40
0
 40
0
 40
1
 40
1
 40
1
 40
1
 10
115.647893
 20
207.351878
 30
0.0
 10
115.349867
 20
207.351878
 30
0.0
 10
115.230204
 20
207.153194
 30
0.0
 10
115.230204
 20
206.864198
 30
0.0
  0
SPLINE
  5
272
100
AcDbEntity
  8
Layer_1
 62
1
100
AcDbSpline
 70
8
 71
3
 72
8
 73
4
 74
0
 40
0
 40
0
 40
0
 40
0
 40
1
 40
1
 40
1
 40
1
 10
115.230204
 20
206.864198
 30
0.0
 10
115.230204
 20
206.575203
 30
0.0
 10
115.397280
 20
206.399096
 30
0.0
 10
115.638862
 20
206.399096
 30
0.0
  0
LINE
  5
273
100
AcDbEntity
  8
Layer_1
 62
1
100
AcDbLine
 10
116.388444
 20
208.806347
 30
0.0
 11
115.230204
 21
208.343503
 31
0.0
  0
LINE
  5
274
100
AcDbEntity
  8
Layer_1
 62
1
100
AcDbLine
 10
115.230204
 20
208.343503
 30
0.0
 11
116.388444
 21
207.885174
 31
0.0
  0
LINE
  5
275
100
AcDbEntity
  8
Layer_1
 62
1
100
AcDbLine
 10
116.388444
 20
207.885174
 30
0.0
 11
115.230204
 21
208.343503
 31
0.0
  0
LINE
  5
276
100
AcDbEntity
  8
Layer_1
 62
1
100
AcDbLine
 10
115.230204
 20
208.343503
 30
0.0
 11
116.388444
 21
208.806347
 31
0.0
  0
LINE
  5
277
100
AcDbEntity
  8
Layer_1
 62
1
100
AcDbLine
 10
112.407982
 20
205.522867
 30
0.0
 11
114.035840
 21
205.522867
 31
0.0
  0
LINE
  5
278
100
AcDbEntity
  8
Layer_1
 62
1
100
AcDbLine
 10
114.035840
 20
205.522867
 30
0.0
 11
112.407982
 21
205.522867
 31
0.0
  0
LINE
  5
279
100
AcDbEntity
  8
Layer_1
 62
1
100
AcDbLine
 10
112.385404
 20
206.275624
 30
0.0
 11
114.051644
 21
206.828779
 31
0.0
  0
LINE
  5
27a
100
AcDbEntity
  8
Layer_1
 62
1
100
AcDbLine
 10
114.051644
 20
206.828779
 30
0.0
 11
112.385404
 21
206.275624
 31
0.0
  0
SPLINE
  5
27b
100
AcDbEntity
  8
Layer_1
 62
1
100
AcDbSpline
 70
8
 71
3
 72
8
 73
4
 74
0
 40
0
 40
0
 40
0
 40
0
 40
1
 40
1
 40
1
 40
1
 10
112.394436
 20
208.060750
 30
0.0
 10
112.394436
 20
208.455861
 30
0.0
 10
112.611182
 20
208.778723
 30
0.0
 10
113.234329
 20
208.778723
 30
0.0
  0
SPLINE
  5
27c
100
AcDbEntity
  8
Layer_1
 62
1
100
AcDbSpline
 70
8
 71
3
 72
8
 73
4
 74
0
 40
0
 40
0
 40
0
 40
0
 40
1
 40
1
 40
1
 40
1
 10
113.234329
 20
208.778723
 30
0.0
 10
113.857476
 20
208.778723
 30
0.0
 10
114.078738
 20
208.455861
 30
0.0
 10
114.078738
 20
208.060750
 30
0.0
  0
SPLINE
  5
27d
100
AcDbEntity
  8
Layer_1
 62
1
100
AcDbSpline
 70
8
 71
3
 72
8
 73
4
 74
0
 40
0
 40
0
 40
0
 40
0
 40
1
 40
1
 40
1
 40
1
 10
114.078738
 20
208.060750
 30
0.0
 10
114.078738
 20
207.665639
 30
0.0
 10
113.857476
 20
207.342777
 30
0.0
 10
113.234329
 20
207.342777
 30
0.0
  0
SPLINE
  5
27e
100
AcDbEntity
  8
Layer_1
 62
1
100
AcDbSpline
 70
8
 71
3
 72
8
 73
4
 74
0
 40
0
 40
0
 40
0
 40
0
 40
1
 40
1
 40
1
 40
1
 10
113.234329
 20
207.342777
 30
0.0
 10
112.611182
 20
207.342777
 30
0.0
 10
112.394436
 20
207.665639
 30
0.0
 10
112.394436
 20
208.060750
 30
0.0
  0
SPLINE
  5
27f
100
AcDbEntity
  8
Layer_1
 62
1
100
AcDbSpline
 70
8
 71
3
 72
8
 73
4
 74
0
 40
0
 40
0
 40
0
 40
0
 40
1
 40
1
 40
1
 40
1
 10
112.394436
 20
208.060750
 30
0.0
 10
112.394436
 20
208.455861
 30
0.0
 10
112.611182
 20
208.778723
 30
0.0
 10
113.234329
 20
208.778723
 30
0.0
  0
SPLINE
  5
280
100
AcDbEntity
  8
Layer_1
 62
1
100
AcDbSpline
 70
8
 71
3
 72
8
 73
4
 74
0
 40
0
 40
0
 40
0
 40
0
 40
1
 40
1
 40
1
 40
1
 10
113.234329
 20
208.778723
 30
0.0
 10
113.857476
 20
208.778723
 30
0.0
 10
114.078738
 20
208.455861
 30
0.0
 10
114.078738
 20
208.060750
 30
0.0
  0
SPLINE
  5
281
100
AcDbEntity
  8
Layer_1
 62
1
100
AcDbSpline
 70
8
 71
3
 72
8
 73
4
 74
0
 40
0
 40
0
 40
0
 40
0
 40
1
 40
1
 40
1
 40
1
 10
114.078738
 20
208.060750
 30
0.0
 10
114.078738
 20
207.665639
 30
0.0
 10
113.857476
 20
207.342777
 30
0.0
 10
113.234329
 20
207.342777
 30
0.0
  0
SPLINE
  5
282
100
AcDbEntity
  8
Layer_1
 62
1
100
AcDbSpline
 70
8
 71
3
 72
8
 73
4
 74
0
 40
0
 40
0
 40
0
 40
0
 40
1
 40
1
 40
1
 40
1
 10
113.234329
 20
207.342777
 30
0.0
 10
112.611182
 20
207.342777
 30
0.0
 10
112.394436
 20
207.665639
 30
0.0
 10
112.394436
 20
208.060750
 30
0.0
  0
LINE
  5
283
100
AcDbEntity
  8
Layer_1
 62
7
100
AcDbLine
 10
65.457942
 20
308.665645
 30
0.0
 11
205.458046
 21
308.665645
 31
0.0
  0
SPLINE
  5
284
100
AcDbEntity
  8
Layer_1
 62
7
100
AcDbSpline
 70
8
 71
3
 72
8
 73
4
 74
0
 40
0
 40
0
 40
0
 40
0
 40
1
 40
1
 40
1
 40
1
 10
205.458046
 20
308.665645
 30
0.0
 10
208.228046
 20
308.665645
 30
0.0
 10
210.458047
 20
306.435644
 30
0.0
 10
210.458047
 20
303.665644
 30
0.0
  0
LINE
  5
285
100
AcDbEntity
  8
Layer_1
 62
7
100
AcDbLine
 10
210.458047
 20
303.665644
 30
0.0
 11
210.458047
 21
243.665646
 31
0.0
  0
SPLINE
  5
286
100
AcDbEntity
  8
Layer_1
 62
7
100
AcDbSpline
 70
8
 71
3
 72
8
 73
4
 74
0
 40
0
 40
0
 40
0
 40
0
 40
1
 40
1
 40
1
 40
1
 10
210.458047
 20
243.665646
 30
0.0
 10
210.458047
 20
240.895646
 30
0.0
 10
208.228046
 20
238.665645
 30
0.0
 10
205.458046
 20
238.665645
 30
0.0
  0
LINE
  5
287
100
AcDbEntity
  8
Layer_1
 62
7
100
AcDbLine
 10
205.458046
 20
238.665645
 30
0.0
 11
65.457942
 21
238.665645
 31
0.0
  0
SPLINE
  5
288
100
AcDbEntity
  8
Layer_1
 62
7
100
AcDbSpline
 70
8
 71
3
 72
8
 73
4
 74
0
 40
0
 40
0
 40
0
 40
0
 40
1
 40
1
 40
1
 40
1
 10
65.457942
 20
238.665645
 30
0.0
 10
62.687942
 20
238.665645
 30
0.0
 10
60.457941
 20
240.895646
 30
0.0
 10
60.457941
 20
243.665646
 30
0.0
  0
LINE
  5
289
100
AcDbEntity
  8
Layer_1
 62
7
100
AcDbLine
 10
60.457941
 20
243.665646
 30
0.0
 11
60.457941
 21
303.665644
 31
0.0
  0
SPLINE
  5
28a
100
AcDbEntity
  8
Layer_1
 62
7
100
AcDbSpline
 70
8
 71
3
 72
8
 73
4
 74
0
 40
0
 40
0
 40
0
 40
0
 40
1
 40
1
 40
1
 40
1
 10
60.457941
 20
303.665644
 30
0.0
 10
60.457941
 20
306.435644
 30
0.0
 10
62.687942
 20
308.665645
 30
0.0
 10
65.457942
 20
308.665645
 30
0.0
  0
LINE
  5
28b
100
AcDbEntity
  8
Layer_1
 62
7
100
AcDbLine
 10
65.457942
 20
308.665645
 30
0.0
 11
65.457942
 21
308.665645
 31
0.0
  0
SPLINE
  5
28c
100
AcDbEntity
  8
Layer_1
 62
7
100
AcDbSpline
 70
8
 71
3
 72
8
 73
4
 74
0
 40
0
 40
0
 40
0
 40
0
 40
1
 40
1
 40
1
 40
1
 10
68.401923
 20
302.230208
 30
0.0
 10
68.401923
 20
301.409517
 30
0.0
 10
67.731569
 20
300.744215
 30
0.0
 10
66.904647
 20
300.744215
 30
0.0
  0
SPLINE
  5
28d
100
AcDbEntity
  8
Layer_1
 62
7
100
AcDbSpline
 70
8
 71
3
 72
8
 73
4
 74
0
 40
0
 40
0
 40
0
 40
0
 40
1
 40
1
 40
1
 40
1
 10
66.904647
 20
300.744215
 30
0.0
 10
66.077725
 20
300.744215
 30
0.0
 10
65.407371
 20
301.409517
 30
0.0
 10
65.407371
 20
302.230208
 30
0.0
  0
SPLINE
  5
28e
100
AcDbEntity
  8
Layer_1
 62
7
100
AcDbSpline
 70
8
 71
3
 72
8
 73
4
 74
0
 40
0
 40
0
 40
0
 40
0
 40
1
 40
1
 40
1
 40
1
 10
65.407371
 20
302.230208
 30
0.0
 10
65.407371
 20
303.050899
 30
0.0
 10
66.077725
 20
303.716201
 30
0.0
 10
66.904647
 20
303.716201
 30
0.0
  0
SPLINE
  5
28f
100
AcDbEntity
  8
Layer_1
 62
7
100
AcDbSpline
 70
8
 71
3
 72
8
 73
4
 74
0
 40
0
 40
0
 40
0
 40
0
 40
1
 40
1
 40
1
 40
1
 10
66.904647
 20
303.716201
 30
0.0
 10
67.731569
 20
303.716201
 30
0.0
 10
68.401923
 20
303.050899
 30
0.0
 10
68.401923
 20
302.230208
 30
0.0
  0
LINE
  5
290
100
AcDbEntity
  8
Layer_1
 62
7
100
AcDbLine
 10
68.401923
 20
302.230208
 30
0.0
 11
68.401923
 21
302.230208
 31
0.0
  0
SPLINE
  5
291
100
AcDbEntity
  8
Layer_1
 62
7
100
AcDbSpline
 70
8
 71
3
 72
8
 73
4
 74
0
 40
0
 40
0
 40
0
 40
0
 40
1
 40
1
 40
1
 40
1
 10
68.401923
 20
245.101068
 30
0.0
 10
68.401923
 20
244.280377
 30
0.0
 10
67.731569
 20
243.615075
 30
0.0
 10
66.904647
 20
243.615075
 30
0.0
  0
SPLINE
  5
292
100
AcDbEntity
  8
Layer_1
 62
7
100
AcDbSpline
 70
8
 71
3
 72
8
 73
4
 74
0
 40
0
 40
0
 40
0
 40
0
 40
1
 40
1
 40
1
 40
1
 10
66.904647
 20
243.615075
 30
0.0
 10
66.077725
 20
243.615075
 30
0.0
 10
65.407371
 20
244.280377
 30
0.0
 10
65.407371
 20
245.101068
 30
0.0
  0
SPLINE
  5
293
100
AcDbEntity
  8
Layer_1
 62
7
100
AcDbSpline
 70
8
 71
3
 72
8
 73
4
 74
0
 40
0
 40
0
 40
0
 40
0
 40
1
 40
1
 40
1
 40
1
 10
65.407371
 20
245.101068
 30
0.0
 10
65.407371
 20
245.921759
 30
0.0
 10
66.077725
 20
246.587061
 30
0.0
 10
66.904647
 20
246.587061
 30
0.0
  0
SPLINE
  5
294
100
AcDbEntity
  8
Layer_1
 62
7
100
AcDbSpline
 70
8
 71
3
 72
8
 73
4
 74
0
 40
0
 40
0
 40
0
 40
0
 40
1
 40
1
 40
1
 40
1
 10
66.904647
 20
246.587061
 30
0.0
 10
67.731569
 20
246.587061
 30
0.0
 10
68.401923
 20
245.921759
 30
0.0
 10
68.401923
 20
245.101068
 30
0.0
  0
LINE
  5
295
100
AcDbEntity
  8
Layer_1
 62
7
100
AcDbLine
 10
68.401923
 20
245.101068
 30
0.0
 11
68.401923
 21
245.101068
 31
0.0
  0
SPLINE
  5
296
100
AcDbEntity
  8
Layer_1
 62
7
100
AcDbSpline
 70
8
 71
3
 72
8
 73
4
 74
0
 40
0
 40
0
 40
0
 40
0
 40
1
 40
1
 40
1
 40
1
 10
166.955210
 20
302.230208
 30
0.0
 10
166.955210
 20
301.409517
 30
0.0
 10
166.284856
 20
300.744215
 30
0.0
 10
165.457934
 20
300.744215
 30
0.0
  0
SPLINE
  5
297
100
AcDbEntity
  8
Layer_1
 62
7
100
AcDbSpline
 70
8
 71
3
 72
8
 73
4
 74
0
 40
0
 40
0
 40
0
 40
0
 40
1
 40
1
 40
1
 40
1
 10
165.457934
 20
300.744215
 30
0.0
 10
164.631012
 20
300.744215
 30
0.0
 10
163.960658
 20
301.409517
 30
0.0
 10
163.960658
 20
302.230208
 30
0.0
  0
SPLINE
  5
298
100
AcDbEntity
  8
Layer_1
 62
7
100
AcDbSpline
 70
8
 71
3
 72
8
 73
4
 74
0
 40
0
 40
0
 40
0
 40
0
 40
1
 40
1
 40
1
 40
1
 10
163.960658
 20
302.230208
 30
0.0
 10
163.960658
 20
303.050899
 30
0.0
 10
164.631012
 20
303.716201
 30
0.0
 10
165.457934
 20
303.716201
 30
0.0
  0
SPLINE
  5
299
100
AcDbEntity
  8
Layer_1
 62
7
100
AcDbSpline
 70
8
 71
3
 72
8
 73
4
 74
0
 40
0
 40
0
 40
0
 40
0
 40
1
 40
1
 40
1
 40
1
 10
165.457934
 20
303.716201
 30
0.0
 10
166.284856
 20
303.716201
 30
0.0
 10
166.955210
 20
303.050899
 30
0.0
 10
166.955210
 20
302.230208
 30
0.0
  0
LINE
  5
29a
100
AcDbEntity
  8
Layer_1
 62
7
100
AcDbLine
 10
166.955210
 20
302.230208
 30
0.0
 11
166.955210
 21
302.230208
 31
0.0
  0
SPLINE
  5
29b
100
AcDbEntity
  8
Layer_1
 62
7
100
AcDbSpline
 70
8
 71
3
 72
8
 73
4
 74
0
 40
0
 40
0
 40
0
 40
0
 40
1
 40
1
 40
1
 40
1
 10
166.955210
 20
245.101068
 30
0.0
 10
166.955210
 20
244.280377
 30
0.0
 10
166.284856
 20
243.615075
 30
0.0
 10
165.457934
 20
243.615075
 30
0.0
  0
SPLINE
  5
29c
100
AcDbEntity
  8
Layer_1
 62
7
100
AcDbSpline
 70
8
 71
3
 72
8
 73
4
 74
0
 40
0
 40
0
 40
0
 40
0
 40
1
 40
1
 40
1
 40
1
 10
165.457934
 20
243.615075
 30
0.0
 10
164.631012
 20
243.615075
 30
0.0
 10
163.960658
 20
244.280377
 30
0.0
 10
163.960658
 20
245.101068
 30
0.0
  0
SPLINE
  5
29d
100
AcDbEntity
  8
Layer_1
 62
7
100
AcDbSpline
 70
8
 71
3
 72
8
 73
4
 74
0
 40
0
 40
0
 40
0
 40
0
 40
1
 40
1
 40
1
 40
1
 10
163.960658
 20
245.101068
 30
0.0
 10
163.960658
 20
245.921759
 30
0.0
 10
164.631012
 20
246.587061
 30
0.0
 10
165.457934
 20
246.587061
 30
0.0
  0
SPLINE
  5
29e
100
AcDbEntity
  8
Layer_1
 62
7
100
AcDbSpline
 70
8
 71
3
 72
8
 73
4
 74
0
 40
0
 40
0
 40
0
 40
0
 40
1
 40
1
 40
1
 40
1
 10
165.457934
 20
246.587061
 30
0.0
 10
166.284856
 20
246.587061
 30
0.0
 10
166.955210
 20
245.921759
 30
0.0
 10
166.955210
 20
245.101068
 30
0.0
  0
LINE
  5
29f
100
AcDbEntity
  8
Layer_1
 62
7
100
AcDbLine
 10
166.955210
 20
245.101068
 30
0.0
 11
166.955210
 21
245.101068
 31
0.0
  0
SPLINE
  5
2a0
100
AcDbEntity
  8
Layer_1
 62
7
100
AcDbSpline
 70
8
 71
3
 72
8
 73
4
 74
0
 40
0
 40
0
 40
0
 40
0
 40
1
 40
1
 40
1
 40
1
 10
205.508617
 20
302.230208
 30
0.0
 10
205.508617
 20
301.409517
 30
0.0
 10
204.838263
 20
300.744215
 30
0.0
 10
204.011341
 20
300.744215
 30
0.0
  0
SPLINE
  5
2a1
100
AcDbEntity
  8
Layer_1
 62
7
100
AcDbSpline
 70
8
 71
3
 72
8
 73
4
 74
0
 40
0
 40
0
 40
0
 40
0
 40
1
 40
1
 40
1
 40
1
 10
204.011341
 20
300.744215
 30
0.0
 10
203.184419
 20
300.744215
 30
0.0
 10
202.514065
 20
301.409517
 30
0.0
 10
202.514065
 20
302.230208
 30
0.0
  0
SPLINE
  5
2a2
100
AcDbEntity
  8
Layer_1
 62
7
100
AcDbSpline
 70
8
 71
3
 72
8
 73
4
 74
0
 40
0
 40
0
 40
0
 40
0
 40
1
 40
1
 40
1
 40
1
 10
202.514065
 20
302.230208
 30
0.0
 10
202.514065
 20
303.050899
 30
0.0
 10
203.184419
 20
303.716201
 30
0.0
 10
204.011341
 20
303.716201
 30
0.0
  0
SPLINE
  5
2a3
100
AcDbEntity
  8
Layer_1
 62
7
100
AcDbSpline
 70
8
 71
3
 72
8
 73
4
 74
0
 40
0
 40
0
 40
0
 40
0
 40
1
 40
1
 40
1
 40
1
 10
204.011341
 20
303.716201
 30
0.0
 10
204.838263
 20
303.716201
 30
0.0
 10
205.508617
 20
303.050899
 30
0.0
 10
205.508617
 20
302.230208
 30
0.0
  0
LINE
  5
2a4
100
AcDbEntity
  8
Layer_1
 62
7
100
AcDbLine
 10
205.508617
 20
302.230208
 30
0.0
 11
205.508617
 21
302.230208
 31
0.0
  0
SPLINE
  5
2a5
100
AcDbEntity
  8
Layer_1
 62
7
100
AcDbSpline
 70
8
 71
3
 72
8
 73
4
 74
0
 40
0
 40
0
 40
0
 40
0
 40
1
 40
1
 40
1
 40
1
 10
205.508617
 20
245.101068
 30
0.0
 10
205.508617
 20
244.280377
 30
0.0
 10
204.838263
 20
243.615075
 30
0.0
 10
204.011341
 20
243.615075
 30
0.0
  0
SPLINE
  5
2a6
100
AcDbEntity
  8
Layer_1
 62
7
100
AcDbSpline
 70
8
 71
3
 72
8
 73
4
 74
0
 40
0
 40
0
 40
0
 40
0
 40
1
 40
1
 40
1
 40
1
 10
204.011341
 20
243.615075
 30
0.0
 10
203.184419
 20
243.615075
 30
0.0
 10
202.514065
 20
244.280377
 30
0.0
 10
202.514065
 20
245.101068
 30
0.0
  0
SPLINE
  5
2a7
100
AcDbEntity
  8
Layer_1
 62
7
100
AcDbSpline
 70
8
 71
3
 72
8
 73
4
 74
0
 40
0
 40
0
 40
0
 40
0
 40
1
 40
1
 40
1
 40
1
 10
202.514065
 20
245.101068
 30
0.0
 10
202.514065
 20
245.921759
 30
0.0
 10
203.184419
 20
246.587061
 30
0.0
 10
204.011341
 20
246.587061
 30
0.0
  0
SPLINE
  5
2a8
100
AcDbEntity
  8
Layer_1
 62
7
100
AcDbSpline
 70
8
 71
3
 72
8
 73
4
 74
0
 40
0
 40
0
 40
0
 40
0
 40
1
 40
1
 40
1
 40
1
 10
204.011341
 20
246.587061
 30
0.0
 10
204.838263
 20
246.587061
 30
0.0
 10
205.508617
 20
245.921759
 30
0.0
 10
205.508617
 20
245.101068
 30
0.0
  0
LINE
  5
2a9
100
AcDbEntity
  8
Layer_1
 62
7
100
AcDbLine
 10
205.508617
 20
245.101068
 30
0.0
 11
205.508617
 21
245.101068
 31
0.0
  0
LINE
  5
2aa
100
AcDbEntity
  8
Layer_1
 62
7
100
AcDbLine
 10
136.857128
 20
297.165609
 30
0.0
 11
197.857130
 21
297.165609
 31
0.0
  0
LINE
  5
2ab
100
AcDbEntity
  8
Layer_1
 62
7
100
AcDbLine
 10
197.857130
 20
297.165609
 30
0.0
 11
197.857130
 21
250.165610
 31
0.0
  0
LINE
  5
2ac
100
AcDbEntity
  8
Layer_1
 62
7
100
AcDbLine
 10
197.857130
 20
250.165610
 30
0.0
 11
136.857128
 21
250.165610
 31
0.0
  0
LINE
  5
2ad
100
AcDbEntity
  8
Layer_1
 62
7
100
AcDbLine
 10
136.857128
 20
250.165610
 30
0.0
 11
136.857128
 21
297.165609
 31
0.0
  0
SPLINE
  5
2ae
100
AcDbEntity
  8
Layer_1
 62
7
100
AcDbSpline
 70
8
 71
3
 72
8
 73
4
 74
0
 40
0
 40
0
 40
0
 40
0
 40
1
 40
1
 40
1
 40
1
 10
106.955330
 20
302.230208
 30
0.0
 10
106.955330
 20
301.409517
 30
0.0
 10
106.284976
 20
300.744215
 30
0.0
 10
105.458054
 20
300.744215
 30
0.0
  0
SPLINE
  5
2af
100
AcDbEntity
  8
Layer_1
 62
7
100
AcDbSpline
 70
8
 71
3
 72
8
 73
4
 74
0
 40
0
 40
0
 40
0
 40
0
 40
1
 40
1
 40
1
 40
1
 10
105.458054
 20
300.744215
 30
0.0
 10
104.631132
 20
300.744215
 30
0.0
 10
103.960778
 20
301.409517
 30
0.0
 10
103.960778
 20
302.230208
 30
0.0
  0
SPLINE
  5
2b0
100
AcDbEntity
  8
Layer_1
 62
7
100
AcDbSpline
 70
8
 71
3
 72
8
 73
4
 74
0
 40
0
 40
0
 40
0
 40
0
 40
1
 40
1
 40
1
 40
1
 10
103.960778
 20
302.230208
 30
0.0
 10
103.960778
 20
303.050899
 30
0.0
 10
104.631132
 20
303.716201
 30
0.0
 10
105.458054
 20
303.716201
 30
0.0
  0
SPLINE
  5
2b1
100
AcDbEntity
  8
Layer_1
 62
7
100
AcDbSpline
 70
8
 71
3
 72
8
 73
4
 74
0
 40
0
 40
0
 40
0
 40
0
 40
1
 40
1
 40
1
 40
1
 10
105.458054
 20
303.716201
 30
0.0
 10
106.284976
 20
303.716201
 30
0.0
 10
106.955330
 20
303.050899
 30
0.0
 10
106.955330
 20
302.230208
 30
0.0
  0
LINE
  5
2b2
100
AcDbEntity
  8
Layer_1
 62
7
100
AcDbLine
 10
106.955330
 20
302.230208
 30
0.0
 11
106.955330
 21
302.230208
 31
0.0
  0
SPLINE
  5
2b3
100
AcDbEntity
  8
Layer_1
 62
7
100
AcDbSpline
 70
8
 71
3
 72
8
 73
4
 74
0
 40
0
 40
0
 40
0
 40
0
 40
1
 40
1
 40
1
 40
1
 10
106.955330
 20
245.101068
 30
0.0
 10
106.955330
 20
244.280377
 30
0.0
 10
106.284976
 20
243.615075
 30
0.0
 10
105.458054
 20
243.615075
 30
0.0
  0
SPLINE
  5
2b4
100
AcDbEntity
  8
Layer_1
 62
7
100
AcDbSpline
 70
8
 71
3
 72
8
 73
4
 74
0
 40
0
 40
0
 40
0
 40
0
 40
1
 40
1
 40
1
 40
1
 10
105.458054
 20
243.615075
 30
0.0
 10
104.631132
 20
243.615075
 30
0.0
 10
103.960778
 20
244.280377
 30
0.0
 10
103.960778
 20
245.101068
 30
0.0
  0
SPLINE
  5
2b5
100
AcDbEntity
  8
Layer_1
 62
7
100
AcDbSpline
 70
8
 71
3
 72
8
 73
4
 74
0
 40
0
 40
0
 40
0
 40
0
 40
1
 40
1
 40
1
 40
1
 10
103.960778
 20
245.101068
 30
0.0
 10
103.960778
 20
245.921759
 30
0.0
 10
104.631132
 20
246.587061
 30
0.0
 10
105.458054
 20
246.587061
 30
0.0
  0
SPLINE
  5
2b6
100
AcDbEntity
  8
Layer_1
 62
7
100
AcDbSpline
 70
8
 71
3
 72
8
 73
4
 74
0
 40
0
 40
0
 40
0
 40
0
 40
1
 40
1
 40
1
 40
1
 10
105.458054
 20
246.587061
 30
0.0
 10
106.284976
 20
246.587061
 30
0.0
 10
106.955330
 20
245.921759
 30
0.0
 10
106.955330
 20
245.101068
 30
0.0
  0
LINE
  5
2b7
100
AcDbEntity
  8
Layer_1
 62
7
100
AcDbLine
 10
106.955330
 20
245.101068
 30
0.0
 11
106.955330
 21
245.101068
 31
0.0
  0
LINE
  5
2b8
100
AcDbEntity
  8
Layer_1
 62
7
100
AcDbLine
 10
72.365049
 20
291.174331
 30
0.0
 11
107.352519
 21
291.174331
 31
0.0
  0
SPLINE
  5
2b9
100
AcDbEntity
  8
Layer_1
 62
7
100
AcDbSpline
 70
8
 71
3
 72
8
 73
4
 74
0
 40
0
 40
0
 40
0
 40
0
 40
1
 40
1
 40
1
 40
1
 10
107.352519
 20
291.174331
 30
0.0
 10
110.121528
 20
291.174331
 30
0.0
 10
112.350731
 20
288.571370
 30
0.0
 10
112.350731
 20
285.338094
 30
0.0
  0
LINE
  5
2ba
100
AcDbEntity
  8
Layer_1
 62
7
100
AcDbLine
 10
112.350731
 20
285.338094
 30
0.0
 11
112.350731
 21
261.993154
 31
0.0
  0
SPLINE
  5
2bb
100
AcDbEntity
  8
Layer_1
 62
7
100
AcDbSpline
 70
8
 71
3
 72
8
 73
4
 74
0
 40
0
 40
0
 40
0
 40
0
 40
1
 40
1
 40
1
 40
1
 10
112.350731
 20
261.993154
 30
0.0
 10
112.350731
 20
258.759881
 30
0.0
 10
110.121528
 20
256.156920
 30
0.0
 10
107.352519
 20
256.156920
 30
0.0
  0
LINE
  5
2bc
100
AcDbEntity
  8
Layer_1
 62
7
100
AcDbLine
 10
107.352519
 20
256.156920
 30
0.0
 11
72.365049
 21
256.156920
 31
0.0
  0
SPLINE
  5
2bd
100
AcDbEntity
  8
Layer_1
 62
7
100
AcDbSpline
 70
8
 71
3
 72
8
 73
4
 74
0
 40
0
 40
0
 40
0
 40
0
 40
1
 40
1
 40
1
 40
1
 10
72.365049
 20
256.156920
 30
0.0
 10
69.596040
 20
256.156920
 30
0.0
 10
67.366840
 20
258.759881
 30
0.0
 10
67.366840
 20
261.993154
 30
0.0
  0
LINE
  5
2be
100
AcDbEntity
  8
Layer_1
 62
7
100
AcDbLine
 10
67.366840
 20
261.993154
 30
0.0
 11
67.366840
 21
285.338094
 31
0.0
  0
SPLINE
  5
2bf
100
AcDbEntity
  8
Layer_1
 62
7
100
AcDbSpline
 70
8
 71
3
 72
8
 73
4
 74
0
 40
0
 40
0
 40
0
 40
0
 40
1
 40
1
 40
1
 40
1
 10
67.366840
 20
285.338094
 30
0.0
 10
67.366840
 20
288.571370
 30
0.0
 10
69.596040
 20
291.174331
 30
0.0
 10
72.365049
 20
291.174331
 30
0.0
  0
LINE
  5
2c0
100
AcDbEntity
  8
Layer_1
 62
7
100
AcDbLine
 10
72.365049
 20
291.174331
 30
0.0
 11
72.365049
 21
291.174331
 31
0.0
  0
LINE
  5
2c1
100
AcDbEntity
  8
Layer_1
 62
7
100
AcDbLine
 10
127.660383
 20
195.742786
 30
0.0
 11
127.660383
 21
175.590355
 31
0.0
  0
LINE
  5
2c2
100
AcDbEntity
  8
Layer_1
 62
7
100
AcDbLine
 10
127.660383
 20
175.590355
 30
0.0
 11
176.449550
 21
175.590355
 31
0.0
  0
LINE
  5
2c3
100
AcDbEntity
  8
Layer_1
 62
7
100
AcDbLine
 10
176.449550
 20
175.590355
 30
0.0
 11
176.449550
 21
188.713689
 31
0.0
  0
LINE
  5
2c4
100
AcDbEntity
  8
Layer_1
 62
7
100
AcDbLine
 10
176.449550
 20
188.713689
 30
0.0
 11
176.449550
 21
189.742798
 31
0.0
  0
LINE
  5
2c5
100
AcDbEntity
  8
Layer_1
 62
7
100
AcDbLine
 10
176.449550
 20
189.742798
 30
0.0
 11
176.494070
 21
193.661089
 31
0.0
  0
SPLINE
  5
2c6
100
AcDbEntity
  8
Layer_1
 62
7
100
AcDbSpline
 70
8
 71
3
 72
8
 73
4
 74
0
 40
0
 40
0
 40
0
 40
0
 40
1
 40
1
 40
1
 40
1
 10
176.494070
 20
193.661089
 30
0.0
 10
176.494070
 20
195.322215
 30
0.0
 10
177.837188
 20
196.668827
 30
0.0
 10
179.494005
 20
196.668827
 30
0.0
  0
LINE
  5
2c7
100
AcDbEntity
  8
Layer_1
 62
7
100
AcDbLine
 10
179.494005
 20
196.668827
 30
0.0
 11
190.499289
 21
196.668827
 31
0.0
  0
LINE
  5
2c8
100
AcDbEntity
  8
Layer_1
 62
7
100
AcDbLine
 10
190.499289
 20
196.668827
 30
0.0
 11
190.454828
 21
211.167994
 31
0.0
  0
LINE
  5
2c9
100
AcDbEntity
  8
Layer_1
 62
7
100
AcDbLine
 10
190.454828
 20
211.167994
 30
0.0
 11
176.449550
 21
211.167994
 31
0.0
  0
LINE
  5
2ca
100
AcDbEntity
  8
Layer_1
 62
7
100
AcDbLine
 10
176.449550
 20
211.167994
 30
0.0
 11
174.376966
 21
211.167994
 31
0.0
  0
LINE
  5
2cb
100
AcDbEntity
  8
Layer_1
 62
7
100
AcDbLine
 10
174.376966
 20
211.167994
 30
0.0
 11
157.240772
 21
211.167994
 31
0.0
  0
LINE
  5
2cc
100
AcDbEntity
  8
Layer_1
 62
7
100
AcDbLine
 10
157.240772
 20
211.167994
 30
0.0
 11
157.240772
 21
198.746655
 31
0.0
  0
SPLINE
  5
2cd
100
AcDbEntity
  8
Layer_1
 62
7
100
AcDbSpline
 70
8
 71
3
 72
8
 73
4
 74
0
 40
0
 40
0
 40
0
 40
0
 40
1
 40
1
 40
1
 40
1
 10
157.240772
 20
198.746655
 30
0.0
 10
157.240772
 20
197.089398
 30
0.0
 10
155.897659
 20
195.742786
 30
0.0
 10
154.240809
 20
195.742786
 30
0.0
  0
LINE
  5
2ce
100
AcDbEntity
  8
Layer_1
 62
7
100
AcDbLine
 10
154.240809
 20
195.742786
 30
0.0
 11
127.660383
 21
195.742786
 31
0.0
  0
LINE
  5
2cf
100
AcDbEntity
  8
Layer_1
 62
1
100
AcDbLine
 10
202.732382
 20
258.665611
 30
0.0
 11
207.153222
 21
258.665611
 31
0.0
  0
LINE
  5
2d0
100
AcDbEntity
  8
Layer_1
 62
1
100
AcDbLine
 10
207.153222
 20
258.665611
 30
0.0
 11
207.153222
 21
261.406409
 31
0.0
  0
LINE
  5
2d1
100
AcDbEntity
  8
Layer_1
 62
1
100
AcDbLine
 10
207.153222
 20
261.406409
 30
0.0
 11
207.153222
 21
258.665611
 31
0.0
  0
LINE
  5
2d2
100
AcDbEntity
  8
Layer_1
 62
1
100
AcDbLine
 10
207.153222
 20
258.665611
 30
0.0
 11
202.732382
 21
258.665611
 31
0.0
  0
LINE
  5
2d3
100
AcDbEntity
  8
Layer_1
 62
1
100
AcDbLine
 10
205.007183
 20
261.155016
 30
0.0
 11
205.007183
 21
258.665611
 31
0.0
  0
LINE
  5
2d4
100
AcDbEntity
  8
Layer_1
 62
1
100
AcDbLine
 10
205.007183
 20
258.665611
 30
0.0
 11
205.007183
 21
261.155016
 31
0.0
  0
LINE
  5
2d5
100
AcDbEntity
  8
Layer_1
 62
1
100
AcDbLine
 10
204.412424
 20
262.907584
 30
0.0
 11
204.412424
 21
265.648383
 31
0.0
  0
SPLINE
  5
2d6
100
AcDbEntity
  8
Layer_1
 62
1
100
AcDbSpline
 70
8
 71
3
 72
8
 73
4
 74
0
 40
0
 40
0
 40
0
 40
0
 40
1
 40
1
 40
1
 40
1
 10
204.412424
 20
265.648383
 30
0.0
 10
205.093025
 20
265.648383
 30
0.0
 10
205.963704
 20
265.378593
 30
0.0
 10
205.963704
 20
264.403680
 30
0.0
  0
SPLINE
  5
2d7
100
AcDbEntity
  8
Layer_1
 62
1
100
AcDbSpline
 70
8
 71
3
 72
8
 73
4
 74
0
 40
0
 40
0
 40
0
 40
0
 40
1
 40
1
 40
1
 40
1
 10
205.963704
 20
264.403680
 30
0.0
 10
205.963704
 20
263.434897
 30
0.0
 10
205.301497
 20
262.901453
 30
0.0
 10
204.289793
 20
262.901453
 30
0.0
  0
SPLINE
  5
2d8
100
AcDbEntity
  8
Layer_1
 62
1
100
AcDbSpline
 70
8
 71
3
 72
8
 73
4
 74
0
 40
0
 40
0
 40
0
 40
0
 40
1
 40
1
 40
1
 40
1
 10
204.289793
 20
262.901453
 30
0.0
 10
203.271960
 20
262.901453
 30
0.0
 10
202.732382
 20
263.588185
 30
0.0
 10
202.756908
 20
264.403680
 30
0.0
  0
SPLINE
  5
2d9
100
AcDbEntity
  8
Layer_1
 62
1
100
AcDbSpline
 70
8
 71
3
 72
8
 73
4
 74
0
 40
0
 40
0
 40
0
 40
0
 40
1
 40
1
 40
1
 40
1
 10
202.756908
 20
264.403680
 30
0.0
 10
202.781434
 20
265.225304
 30
0.0
 10
203.419117
 20
265.580936
 30
0.0
 10
203.645981
 20
265.623857
 30
0.0
  0
SPLINE
  5
2da
100
AcDbEntity
  8
Layer_1
 62
1
100
AcDbSpline
 70
8
 71
3
 72
8
 73
4
 74
0
 40
0
 40
0
 40
0
 40
0
 40
1
 40
1
 40
1
 40
1
 10
203.645981
 20
265.623857
 30
0.0
 10
203.419117
 20
265.580936
 30
0.0
 10
202.781434
 20
265.225304
 30
0.0
 10
202.756908
 20
264.403680
 30
0.0
  0
SPLINE
  5
2db
100
AcDbEntity
  8
Layer_1
 62
1
100
AcDbSpline
 70
8
 71
3
 72
8
 73
4
 74
0
 40
0
 40
0
 40
0
 40
0
 40
1
 40
1
 40
1
 40
1
 10
202.756908
 20
264.403680
 30
0.0
 10
202.732382
 20
263.588185
 30
0.0
 10
203.271960
 20
262.901453
 30
0.0
 10
204.289793
 20
262.901453
 30
0.0
  0
SPLINE
  5
2dc
100
AcDbEntity
  8
Layer_1
 62
1
100
AcDbSpline
 70
8
 71
3
 72
8
 73
4
 74
0
 40
0
 40
0
 40
0
 40
0
 40
1
 40
1
 40
1
 40
1
 10
204.289793
 20
262.901453
 30
0.0
 10
205.301497
 20
262.901453
 30
0.0
 10
205.963704
 20
263.434897
 30
0.0
 10
205.963704
 20
264.403680
 30
0.0
  0
SPLINE
  5
2dd
100
AcDbEntity
  8
Layer_1
 62
1
100
AcDbSpline
 70
8
 71
3
 72
8
 73
4
 74
0
 40
0
 40
0
 40
0
 40
0
 40
1
 40
1
 40
1
 40
1
 10
205.963704
 20
264.403680
 30
0.0
 10
205.963704
 20
265.378593
 30
0.0
 10
205.093025
 20
265.648383
 30
0.0
 10
204.412424
 20
265.648383
 30
0.0
  0
LINE
  5
2de
100
AcDbEntity
  8
Layer_1
 62
1
100
AcDbLine
 10
204.412424
 20
265.648383
 30
0.0
 11
204.412424
 21
262.907584
 31
0.0
  0
SPLINE
  5
2df
100
AcDbEntity
  8
Layer_1
 62
1
100
AcDbSpline
 70
8
 71
3
 72
8
 73
4
 74
0
 40
0
 40
0
 40
0
 40
0
 40
1
 40
1
 40
1
 40
1
 10
204.338845
 20
267.845390
 30
0.0
 10
205.043973
 20
267.826996
 30
0.0
 10
205.883994
 20
268.476939
 30
0.0
 10
205.877862
 20
269.047172
 30
0.0
  0
SPLINE
  5
2e0
100
AcDbEntity
  8
Layer_1
 62
1
100
AcDbSpline
 70
8
 71
3
 72
8
 73
4
 74
0
 40
0
 40
0
 40
0
 40
0
 40
1
 40
1
 40
1
 40
1
 10
205.877862
 20
269.047172
 30
0.0
 10
205.883994
 20
268.476939
 30
0.0
 10
205.043973
 20
267.826996
 30
0.0
 10
204.338845
 20
267.845390
 30
0.0
  0
LINE
  5
2e1
100
AcDbEntity
  8
Layer_1
 62
1
100
AcDbLine
 10
202.732382
 20
267.845390
 30
0.0
 11
205.877862
 21
267.845390
 31
0.0
  0
LINE
  5
2e2
100
AcDbEntity
  8
Layer_1
 62
1
100
AcDbLine
 10
205.877862
 20
267.845390
 30
0.0
 11
202.732382
 21
267.845390
 31
0.0
  0
SPLINE
  5
2e3
100
AcDbEntity
  8
Layer_1
 62
1
100
AcDbSpline
 70
8
 71
3
 72
8
 73
4
 74
0
 40
0
 40
0
 40
0
 40
0
 40
1
 40
1
 40
1
 40
1
 10
202.732382
 20
273.376709
 30
0.0
 10
202.732382
 20
273.376709
 30
0.0
 10
204.780319
 20
273.376709
 30
0.0
 10
205.062367
 20
273.376709
 30
0.0
  0
SPLINE
  5
2e4
100
AcDbEntity
  8
Layer_1
 62
1
100
AcDbSpline
 70
8
 71
3
 72
8
 73
4
 74
0
 40
0
 40
0
 40
0
 40
0
 40
1
 40
1
 40
1
 40
1
 10
205.062367
 20
273.376709
 30
0.0
 10
205.344418
 20
273.376709
 30
0.0
 10
205.871731
 20
273.094658
 30
0.0
 10
205.877862
 20
272.315953
 30
0.0
  0
SPLINE
  5
2e5
100
AcDbEntity
  8
Layer_1
 62
1
100
AcDbSpline
 70
8
 71
3
 72
8
 73
4
 74
0
 40
0
 40
0
 40
0
 40
0
 40
1
 40
1
 40
1
 40
1
 10
205.877862
 20
272.315953
 30
0.0
 10
205.883994
 20
271.531116
 30
0.0
 10
205.276971
 20
271.120302
 30
0.0
 10
204.712869
 20
271.120302
 30
0.0
  0
SPLINE
  5
2e6
100
AcDbEntity
  8
Layer_1
 62
1
100
AcDbSpline
 70
8
 71
3
 72
8
 73
4
 74
0
 40
0
 40
0
 40
0
 40
0
 40
1
 40
1
 40
1
 40
1
 10
204.712869
 20
271.120302
 30
0.0
 10
205.276971
 20
271.120302
 30
0.0
 10
205.883994
 20
271.531116
 30
0.0
 10
205.877862
 20
272.315953
 30
0.0
  0
SPLINE
  5
2e7
100
AcDbEntity
  8
Layer_1
 62
1
100
AcDbSpline
 70
8
 71
3
 72
8
 73
4
 74
0
 40
0
 40
0
 40
0
 40
0
 40
1
 40
1
 40
1
 40
1
 10
205.877862
 20
272.315953
 30
0.0
 10
205.871731
 20
273.094658
 30
0.0
 10
205.344418
 20
273.376709
 30
0.0
 10
205.062367
 20
273.376709
 30
0.0
  0
SPLINE
  5
2e8
100
AcDbEntity
  8
Layer_1
 62
1
100
AcDbSpline
 70
8
 71
3
 72
8
 73
4
 74
0
 40
0
 40
0
 40
0
 40
0
 40
1
 40
1
 40
1
 40
1
 10
205.062367
 20
273.376709
 30
0.0
 10
204.780319
 20
273.376709
 30
0.0
 10
202.732382
 20
273.376709
 30
0.0
 10
202.732382
 20
273.376709
 30
0.0
  0
LINE
  5
2e9
100
AcDbEntity
  8
Layer_1
 62
1
100
AcDbLine
 10
202.732382
 20
271.120302
 30
0.0
 11
205.877862
 21
271.120302
 31
0.0
  0
LINE
  5
2ea
100
AcDbEntity
  8
Layer_1
 62
1
100
AcDbLine
 10
205.877862
 20
271.120302
 30
0.0
 11
202.732382
 21
271.120302
 31
0.0
  0
LINE
  5
2eb
100
AcDbEntity
  8
Layer_1
 62
1
100
AcDbLine
 10
205.877862
 20
277.654225
 30
0.0
 11
202.732382
 21
276.397259
 31
0.0
  0
LINE
  5
2ec
100
AcDbEntity
  8
Layer_1
 62
1
100
AcDbLine
 10
202.732382
 20
276.397259
 30
0.0
 11
205.877862
 21
275.152557
 31
0.0
  0
LINE
  5
2ed
100
AcDbEntity
  8
Layer_1
 62
1
100
AcDbLine
 10
205.877862
 20
275.152557
 30
0.0
 11
202.732382
 21
276.397259
 31
0.0
  0
LINE
  5
2ee
100
AcDbEntity
  8
Layer_1
 62
1
100
AcDbLine
 10
202.732382
 20
276.397259
 30
0.0
 11
205.877862
 21
277.654225
 31
0.0
  0
SPLINE
  5
2ef
100
AcDbEntity
  8
Layer_1
 62
1
100
AcDbSpline
 70
8
 71
3
 72
8
 73
4
 74
0
 40
0
 40
0
 40
0
 40
0
 40
1
 40
1
 40
1
 40
1
 10
203.535614
 20
281.324432
 30
0.0
 10
203.271960
 20
281.140486
 30
0.0
 10
202.677198
 20
280.508935
 30
0.0
 10
202.695593
 20
280.006151
 30
0.0
  0
SPLINE
  5
2f0
100
AcDbEntity
  8
Layer_1
 62
1
100
AcDbSpline
 70
8
 71
3
 72
8
 73
4
 74
0
 40
0
 40
0
 40
0
 40
0
 40
1
 40
1
 40
1
 40
1
 10
202.695593
 20
280.006151
 30
0.0
 10
202.713987
 20
279.497233
 30
0.0
 10
202.873410
 20
279.092552
 30
0.0
 10
203.437509
 20
279.092552
 30
0.0
  0
SPLINE
  5
2f1
100
AcDbEntity
  8
Layer_1
 62
1
100
AcDbSpline
 70
8
 71
3
 72
8
 73
4
 74
0
 40
0
 40
0
 40
0
 40
0
 40
1
 40
1
 40
1
 40
1
 10
203.437509
 20
279.092552
 30
0.0
 10
204.007742
 20
279.092552
 30
0.0
 10
204.246872
 20
279.435918
 30
0.0
 10
204.308188
 20
280.085861
 30
0.0
  0
SPLINE
  5
2f2
100
AcDbEntity
  8
Layer_1
 62
1
100
AcDbSpline
 70
8
 71
3
 72
8
 73
4
 74
0
 40
0
 40
0
 40
0
 40
0
 40
1
 40
1
 40
1
 40
1
 10
204.308188
 20
280.085861
 30
0.0
 10
204.369503
 20
280.729670
 30
0.0
 10
204.467608
 20
281.017855
 30
0.0
 10
204.553449
 20
281.324432
 30
0.0
  0
SPLINE
  5
2f3
100
AcDbEntity
  8
Layer_1
 62
1
100
AcDbSpline
 70
8
 71
3
 72
8
 73
4
 74
0
 40
0
 40
0
 40
0
 40
0
 40
1
 40
1
 40
1
 40
1
 10
204.553449
 20
281.324432
 30
0.0
 10
204.467608
 20
281.017855
 30
0.0
 10
204.369503
 20
280.729670
 30
0.0
 10
204.308188
 20
280.085861
 30
0.0
  0
SPLINE
  5
2f4
100
AcDbEntity
  8
Layer_1
 62
1
100
AcDbSpline
 70
8
 71
3
 72
8
 73
4
 74
0
 40
0
 40
0
 40
0
 40
0
 40
1
 40
1
 40
1
 40
1
 10
204.308188
 20
280.085861
 30
0.0
 10
204.246872
 20
279.435918
 30
0.0
 10
204.007742
 20
279.092552
 30
0.0
 10
203.437509
 20
279.092552
 30
0.0
  0
SPLINE
  5
2f5
100
AcDbEntity
  8
Layer_1
 62
1
100
AcDbSpline
 70
8
 71
3
 72
8
 73
4
 74
0
 40
0
 40
0
 40
0
 40
0
 40
1
 40
1
 40
1
 40
1
 10
203.437509
 20
279.092552
 30
0.0
 10
202.873410
 20
279.092552
 30
0.0
 10
202.713987
 20
279.497233
 30
0.0
 10
202.695593
 20
280.006151
 30
0.0
  0
SPLINE
  5
2f6
100
AcDbEntity
  8
Layer_1
 62
1
100
AcDbSpline
 70
8
 71
3
 72
8
 73
4
 74
0
 40
0
 40
0
 40
0
 40
0
 40
1
 40
1
 40
1
 40
1
 10
202.695593
 20
280.006151
 30
0.0
 10
202.677198
 20
280.508935
 30
0.0
 10
203.271960
 20
281.140486
 30
0.0
 10
203.535614
 20
281.324432
 30
0.0
  0
SPLINE
  5
2f7
100
AcDbEntity
  8
Layer_1
 62
1
100
AcDbSpline
 70
8
 71
3
 72
8
 73
4
 74
0
 40
0
 40
0
 40
0
 40
0
 40
1
 40
1
 40
1
 40
1
 10
202.732382
 20
281.759772
 30
0.0
 10
202.732382
 20
281.759772
 30
0.0
 10
202.763042
 20
281.324432
 30
0.0
 10
203.130932
 20
281.324432
 30
0.0
  0
LINE
  5
2f8
100
AcDbEntity
  8
Layer_1
 62
1
100
AcDbLine
 10
203.130932
 20
281.324432
 30
0.0
 11
205.148209
 21
281.324432
 31
0.0
  0
SPLINE
  5
2f9
100
AcDbEntity
  8
Layer_1
 62
1
100
AcDbSpline
 70
8
 71
3
 72
8
 73
4
 74
0
 40
0
 40
0
 40
0
 40
0
 40
1
 40
1
 40
1
 40
1
 10
205.148209
 20
281.324432
 30
0.0
 10
205.405733
 20
281.324432
 30
0.0
 10
205.896257
 20
281.195667
 30
0.0
 10
205.896257
 20
280.367912
 30
0.0
  0
SPLINE
  5
2fa
100
AcDbEntity
  8
Layer_1
 62
1
100
AcDbSpline
 70
8
 71
3
 72
8
 73
4
 74
0
 40
0
 40
0
 40
0
 40
0
 40
1
 40
1
 40
1
 40
1
 10
205.896257
 20
280.367912
 30
0.0
 10
205.896257
 20
279.540154
 30
0.0
 10
205.522233
 20
279.233577
 30
0.0
 10
205.135946
 20
279.233577
 30
0.0
  0
SPLINE
  5
2fb
100
AcDbEntity
  8
Layer_1
 62
1
100
AcDbSpline
 70
8
 71
3
 72
8
 73
4
 74
0
 40
0
 40
0
 40
0
 40
0
 40
1
 40
1
 40
1
 40
1
 10
205.135946
 20
279.233577
 30
0.0
 10
205.522233
 20
279.233577
 30
0.0
 10
205.896257
 20
279.540154
 30
0.0
 10
205.896257
 20
280.367912
 30
0.0
  0
SPLINE
  5
2fc
100
AcDbEntity
  8
Layer_1
 62
1
100
AcDbSpline
 70
8
 71
3
 72
8
 73
4
 74
0
 40
0
 40
0
 40
0
 40
0
 40
1
 40
1
 40
1
 40
1
 10
205.896257
 20
280.367912
 30
0.0
 10
205.896257
 20
281.195667
 30
0.0
 10
205.405733
 20
281.324432
 30
0.0
 10
205.148209
 20
281.324432
 30
0.0
  0
LINE
  5
2fd
100
AcDbEntity
  8
Layer_1
 62
1
100
AcDbLine
 10
205.148209
 20
281.324432
 30
0.0
 11
203.130932
 21
281.324432
 31
0.0
  0
SPLINE
  5
2fe
100
AcDbEntity
  8
Layer_1
 62
1
100
AcDbSpline
 70
8
 71
3
 72
8
 73
4
 74
0
 40
0
 40
0
 40
0
 40
0
 40
1
 40
1
 40
1
 40
1
 10
203.130932
 20
281.324432
 30
0.0
 10
202.763042
 20
281.324432
 30
0.0
 10
202.732382
 20
281.759772
 30
0.0
 10
202.732382
 20
281.759772
 30
0.0
  0
LINE
  5
2ff
100
AcDbEntity
  8
Layer_1
 62
1
100
AcDbLine
 10
202.732382
 20
283.874387
 30
0.0
 11
207.153222
 21
283.874387
 31
0.0
  0
LINE
  5
300
100
AcDbEntity
  8
Layer_1
 62
1
100
AcDbLine
 10
207.153222
 20
283.874387
 30
0.0
 11
202.732382
 21
283.874387
 31
0.0
  0
LINE
  5
301
100
AcDbEntity
  8
Layer_1
 62
1
100
AcDbLine
 10
204.412424
 20
285.924812
 30
0.0
 11
204.412424
 21
288.665611
 31
0.0
  0
SPLINE
  5
302
100
AcDbEntity
  8
Layer_1
 62
1
100
AcDbSpline
 70
8
 71
3
 72
8
 73
4
 74
0
 40
0
 40
0
 40
0
 40
0
 40
1
 40
1
 40
1
 40
1
 10
204.412424
 20
288.665611
 30
0.0
 10
205.093025
 20
288.665611
 30
0.0
 10
205.963704
 20
288.395820
 30
0.0
 10
205.963704
 20
287.420908
 30
0.0
  0
SPLINE
  5
303
100
AcDbEntity
  8
Layer_1
 62
1
100
AcDbSpline
 70
8
 71
3
 72
8
 73
4
 74
0
 40
0
 40
0
 40
0
 40
0
 40
1
 40
1
 40
1
 40
1
 10
205.963704
 20
287.420908
 30
0.0
 10
205.963704
 20
286.452125
 30
0.0
 10
205.301497
 20
285.918681
 30
0.0
 10
204.289793
 20
285.918681
 30
0.0
  0
SPLINE
  5
304
100
AcDbEntity
  8
Layer_1
 62
1
100
AcDbSpline
 70
8
 71
3
 72
8
 73
4
 74
0
 40
0
 40
0
 40
0
 40
0
 40
1
 40
1
 40
1
 40
1
 10
204.289793
 20
285.918681
 30
0.0
 10
203.271960
 20
285.918681
 30
0.0
 10
202.732382
 20
286.605413
 30
0.0
 10
202.756908
 20
287.420908
 30
0.0
  0
SPLINE
  5
305
100
AcDbEntity
  8
Layer_1
 62
1
100
AcDbSpline
 70
8
 71
3
 72
8
 73
4
 74
0
 40
0
 40
0
 40
0
 40
0
 40
1
 40
1
 40
1
 40
1
 10
202.756908
 20
287.420908
 30
0.0
 10
202.781434
 20
288.242532
 30
0.0
 10
203.419117
 20
288.598164
 30
0.0
 10
203.645981
 20
288.641085
 30
0.0
  0
SPLINE
  5
306
100
AcDbEntity
  8
Layer_1
 62
1
100
AcDbSpline
 70
8
 71
3
 72
8
 73
4
 74
0
 40
0
 40
0
 40
0
 40
0
 40
1
 40
1
 40
1
 40
1
 10
203.645981
 20
288.641085
 30
0.0
 10
203.419117
 20
288.598164
 30
0.0
 10
202.781434
 20
288.242532
 30
0.0
 10
202.756908
 20
287.420908
 30
0.0
  0
SPLINE
  5
307
100
AcDbEntity
  8
Layer_1
 62
1
100
AcDbSpline
 70
8
 71
3
 72
8
 73
4
 74
0
 40
0
 40
0
 40
0
 40
0
 40
1
 40
1
 40
1
 40
1
 10
202.756908
 20
287.420908
 30
0.0
 10
202.732382
 20
286.605413
 30
0.0
 10
203.271960
 20
285.918681
 30
0.0
 10
204.289793
 20
285.918681
 30
0.0
  0
SPLINE
  5
308
100
AcDbEntity
  8
Layer_1
 62
1
100
AcDbSpline
 70
8
 71
3
 72
8
 73
4
 74
0
 40
0
 40
0
 40
0
 40
0
 40
1
 40
1
 40
1
 40
1
 10
204.289793
 20
285.918681
 30
0.0
 10
205.301497
 20
285.918681
 30
0.0
 10
205.963704
 20
286.452125
 30
0.0
 10
205.963704
 20
287.420908
 30
0.0
  0
SPLINE
  5
309
100
AcDbEntity
  8
Layer_1
 62
1
100
AcDbSpline
 70
8
 71
3
 72
8
 73
4
 74
0
 40
0
 40
0
 40
0
 40
0
 40
1
 40
1
 40
1
 40
1
 10
205.963704
 20
287.420908
 30
0.0
 10
205.963704
 20
288.395820
 30
0.0
 10
205.093025
 20
288.665611
 30
0.0
 10
204.412424
 20
288.665611
 30
0.0
  0
LINE
  5
30a
100
AcDbEntity
  8
Layer_1
 62
1
100
AcDbLine
 10
204.412424
 20
288.665611
 30
0.0
 11
204.412424
 21
285.924812
 31
0.0
  0
SPLINE
  5
30b
100
AcDbEntity
  8
Layer_1
 62
1
100
AcDbSpline
 70
8
 71
3
 72
8
 73
4
 74
0
 40
0
 40
0
 40
0
 40
0
 40
1
 40
1
 40
1
 40
1
 10
76.638952
 20
198.223042
 30
0.0
 10
76.397369
 20
198.223042
 30
0.0
 10
76.230294
 20
198.399149
 30
0.0
 10
76.230294
 20
198.688144
 30
0.0
  0
SPLINE
  5
30c
100
AcDbEntity
  8
Layer_1
 62
1
100
AcDbSpline
 70
8
 71
3
 72
8
 73
4
 74
0
 40
0
 40
0
 40
0
 40
0
 40
1
 40
1
 40
1
 40
1
 10
76.230294
 20
198.688144
 30
0.0
 10
76.230294
 20
198.977140
 30
0.0
 10
76.349956
 20
199.175824
 30
0.0
 10
76.647983
 20
199.175824
 30
0.0
  0
SPLINE
  5
30d
100
AcDbEntity
  8
Layer_1
 62
1
100
AcDbSpline
 70
8
 71
3
 72
8
 73
4
 74
0
 40
0
 40
0
 40
0
 40
0
 40
1
 40
1
 40
1
 40
1
 10
76.647983
 20
199.175824
 30
0.0
 10
76.946009
 20
199.175824
 30
0.0
 10
77.106312
 20
198.999718
 30
0.0
 10
77.106312
 20
198.606864
 30
0.0
  0
SPLINE
  5
30e
100
AcDbEntity
  8
Layer_1
 62
1
100
AcDbSpline
 70
8
 71
3
 72
8
 73
4
 74
0
 40
0
 40
0
 40
0
 40
0
 40
1
 40
1
 40
1
 40
1
 10
77.106312
 20
198.606864
 30
0.0
 10
77.104054
 20
198.997460
 30
0.0
 10
77.264356
 20
199.123895
 30
0.0
 10
77.481103
 20
199.123895
 30
0.0
  0
SPLINE
  5
30f
100
AcDbEntity
  8
Layer_1
 62
1
100
AcDbSpline
 70
8
 71
3
 72
8
 73
4
 74
0
 40
0
 40
0
 40
0
 40
0
 40
1
 40
1
 40
1
 40
1
 10
77.481103
 20
199.123895
 30
0.0
 10
77.697849
 20
199.123895
 30
0.0
 10
77.867183
 20
199.013264
 30
0.0
 10
77.867183
 20
198.706207
 30
0.0
  0
SPLINE
  5
310
100
AcDbEntity
  8
Layer_1
 62
1
100
AcDbSpline
 70
8
 71
3
 72
8
 73
4
 74
0
 40
0
 40
0
 40
0
 40
0
 40
1
 40
1
 40
1
 40
1
 10
77.867183
 20
198.706207
 30
0.0
 10
77.867183
 20
198.401407
 30
0.0
 10
77.675272
 20
198.254651
 30
0.0
 10
77.458525
 20
198.254651
 30
0.0
  0
SPLINE
  5
311
100
AcDbEntity
  8
Layer_1
 62
1
100
AcDbSpline
 70
8
 71
3
 72
8
 73
4
 74
0
 40
0
 40
0
 40
0
 40
0
 40
1
 40
1
 40
1
 40
1
 10
77.458525
 20
198.254651
 30
0.0
 10
77.675272
 20
198.254651
 30
0.0
 10
77.867183
 20
198.401407
 30
0.0
 10
77.867183
 20
198.706207
 30
0.0
  0
SPLINE
  5
312
100
AcDbEntity
  8
Layer_1
 62
1
100
AcDbSpline
 70
8
 71
3
 72
8
 73
4
 74
0
 40
0
 40
0
 40
0
 40
0
 40
1
 40
1
 40
1
 40
1
 10
77.867183
 20
198.706207
 30
0.0
 10
77.867183
 20
199.013264
 30
0.0
 10
77.697849
 20
199.123895
 30
0.0
 10
77.481103
 20
199.123895
 30
0.0
  0
SPLINE
  5
313
100
AcDbEntity
  8
Layer_1
 62
1
100
AcDbSpline
 70
8
 71
3
 72
8
 73
4
 74
0
 40
0
 40
0
 40
0
 40
0
 40
1
 40
1
 40
1
 40
1
 10
77.481103
 20
199.123895
 30
0.0
 10
77.264356
 20
199.123895
 30
0.0
 10
77.104054
 20
198.997460
 30
0.0
 10
77.106312
 20
198.606864
 30
0.0
  0
SPLINE
  5
314
100
AcDbEntity
  8
Layer_1
 62
1
100
AcDbSpline
 70
8
 71
3
 72
8
 73
4
 74
0
 40
0
 40
0
 40
0
 40
0
 40
1
 40
1
 40
1
 40
1
 10
77.106312
 20
198.606864
 30
0.0
 10
77.106312
 20
198.999718
 30
0.0
 10
76.946009
 20
199.175824
 30
0.0
 10
76.647983
 20
199.175824
 30
0.0
  0
SPLINE
  5
315
100
AcDbEntity
  8
Layer_1
 62
1
100
AcDbSpline
 70
8
 71
3
 72
8
 73
4
 74
0
 40
0
 40
0
 40
0
 40
0
 40
1
 40
1
 40
1
 40
1
 10
76.647983
 20
199.175824
 30
0.0
 10
76.349956
 20
199.175824
 30
0.0
 10
76.230294
 20
198.977140
 30
0.0
 10
76.230294
 20
198.688144
 30
0.0
  0
SPLINE
  5
316
100
AcDbEntity
  8
Layer_1
 62
1
100
AcDbSpline
 70
8
 71
3
 72
8
 73
4
 74
0
 40
0
 40
0
 40
0
 40
0
 40
1
 40
1
 40
1
 40
1
 10
76.230294
 20
198.688144
 30
0.0
 10
76.230294
 20
198.399149
 30
0.0
 10
76.397369
 20
198.223042
 30
0.0
 10
76.638952
 20
198.223042
 30
0.0
  0
LINE
  5
317
100
AcDbEntity
  8
Layer_1
 62
1
100
AcDbLine
 10
76.230294
 20
199.952957
 30
0.0
 11
76.354472
 21
199.952957
 31
0.0
  0
LINE
  5
318
100
AcDbEntity
  8
Layer_1
 62
1
100
AcDbLine
 10
76.354472
 20
199.952957
 30
0.0
 11
76.230294
 21
199.952957
 31
0.0
  0
SPLINE
  5
319
100
AcDbEntity
  8
Layer_1
 62
1
100
AcDbSpline
 70
8
 71
3
 72
8
 73
4
 74
0
 40
0
 40
0
 40
0
 40
0
 40
1
 40
1
 40
1
 40
1
 10
76.638952
 20
200.705714
 30
0.0
 10
76.397369
 20
200.705714
 30
0.0
 10
76.230294
 20
200.881821
 30
0.0
 10
76.230294
 20
201.170817
 30
0.0
  0
SPLINE
  5
31a
100
AcDbEntity
  8
Layer_1
 62
1
100
AcDbSpline
 70
8
 71
3
 72
8
 73
4
 74
0
 40
0
 40
0
 40
0
 40
0
 40
1
 40
1
 40
1
 40
1
 10
76.230294
 20
201.170817
 30
0.0
 10
76.230294
 20
201.459812
 30
0.0
 10
76.349956
 20
201.658497
 30
0.0
 10
76.647983
 20
201.658497
 30
0.0
  0
SPLINE
  5
31b
100
AcDbEntity
  8
Layer_1
 62
1
100
AcDbSpline
 70
8
 71
3
 72
8
 73
4
 74
0
 40
0
 40
0
 40
0
 40
0
 40
1
 40
1
 40
1
 40
1
 10
76.647983
 20
201.658497
 30
0.0
 10
76.946009
 20
201.658497
 30
0.0
 10
77.106312
 20
201.482390
 30
0.0
 10
77.106312
 20
201.089537
 30
0.0
  0
SPLINE
  5
31c
100
AcDbEntity
  8
Layer_1
 62
1
100
AcDbSpline
 70
8
 71
3
 72
8
 73
4
 74
0
 40
0
 40
0
 40
0
 40
0
 40
1
 40
1
 40
1
 40
1
 10
77.106312
 20
201.089537
 30
0.0
 10
77.104054
 20
201.480132
 30
0.0
 10
77.264356
 20
201.606568
 30
0.0
 10
77.481103
 20
201.606568
 30
0.0
  0
SPLINE
  5
31d
100
AcDbEntity
  8
Layer_1
 62
1
100
AcDbSpline
 70
8
 71
3
 72
8
 73
4
 74
0
 40
0
 40
0
 40
0
 40
0
 40
1
 40
1
 40
1
 40
1
 10
77.481103
 20
201.606568
 30
0.0
 10
77.697849
 20
201.606568
 30
0.0
 10
77.867183
 20
201.495937
 30
0.0
 10
77.867183
 20
201.188879
 30
0.0
  0
SPLINE
  5
31e
100
AcDbEntity
  8
Layer_1
 62
1
100
AcDbSpline
 70
8
 71
3
 72
8
 73
4
 74
0
 40
0
 40
0
 40
0
 40
0
 40
1
 40
1
 40
1
 40
1
 10
77.867183
 20
201.188879
 30
0.0
 10
77.867183
 20
200.884079
 30
0.0
 10
77.675272
 20
200.737323
 30
0.0
 10
77.458525
 20
200.737323
 30
0.0
  0
SPLINE
  5
31f
100
AcDbEntity
  8
Layer_1
 62
1
100
AcDbSpline
 70
8
 71
3
 72
8
 73
4
 74
0
 40
0
 40
0
 40
0
 40
0
 40
1
 40
1
 40
1
 40
1
 10
77.458525
 20
200.737323
 30
0.0
 10
77.675272
 20
200.737323
 30
0.0
 10
77.867183
 20
200.884079
 30
0.0
 10
77.867183
 20
201.188879
 30
0.0
  0
SPLINE
  5
320
100
AcDbEntity
  8
Layer_1
 62
1
100
AcDbSpline
 70
8
 71
3
 72
8
 73
4
 74
0
 40
0
 40
0
 40
0
 40
0
 40
1
 40
1
 40
1
 40
1
 10
77.867183
 20
201.188879
 30
0.0
 10
77.867183
 20
201.495937
 30
0.0
 10
77.697849
 20
201.606568
 30
0.0
 10
77.481103
 20
201.606568
 30
0.0
  0
SPLINE
  5
321
100
AcDbEntity
  8
Layer_1
 62
1
100
AcDbSpline
 70
8
 71
3
 72
8
 73
4
 74
0
 40
0
 40
0
 40
0
 40
0
 40
1
 40
1
 40
1
 40
1
 10
77.481103
 20
201.606568
 30
0.0
 10
77.264356
 20
201.606568
 30
0.0
 10
77.104054
 20
201.480132
 30
0.0
 10
77.106312
 20
201.089537
 30
0.0
  0
SPLINE
  5
322
100
AcDbEntity
  8
Layer_1
 62
1
100
AcDbSpline
 70
8
 71
3
 72
8
 73
4
 74
0
 40
0
 40
0
 40
0
 40
0
 40
1
 40
1
 40
1
 40
1
 10
77.106312
 20
201.089537
 30
0.0
 10
77.106312
 20
201.482390
 30
0.0
 10
76.946009
 20
201.658497
 30
0.0
 10
76.647983
 20
201.658497
 30
0.0
  0
SPLINE
  5
323
100
AcDbEntity
  8
Layer_1
 62
1
100
AcDbSpline
 70
8
 71
3
 72
8
 73
4
 74
0
 40
0
 40
0
 40
0
 40
0
 40
1
 40
1
 40
1
 40
1
 10
76.647983
 20
201.658497
 30
0.0
 10
76.349956
 20
201.658497
 30
0.0
 10
76.230294
 20
201.459812
 30
0.0
 10
76.230294
 20
201.170817
 30
0.0
  0
SPLINE
  5
324
100
AcDbEntity
  8
Layer_1
 62
1
100
AcDbSpline
 70
8
 71
3
 72
8
 73
4
 74
0
 40
0
 40
0
 40
0
 40
0
 40
1
 40
1
 40
1
 40
1
 10
76.230294
 20
201.170817
 30
0.0
 10
76.230294
 20
200.881821
 30
0.0
 10
76.397369
 20
200.705714
 30
0.0
 10
76.638952
 20
200.705714
 30
0.0
  0
LINE
  5
325
100
AcDbEntity
  8
Layer_1
 62
1
100
AcDbLine
 10
77.388534
 20
203.112965
 30
0.0
 11
76.230294
 21
202.650121
 31
0.0
  0
LINE
  5
326
100
AcDbEntity
  8
Layer_1
 62
1
100
AcDbLine
 10
76.230294
 20
202.650121
 30
0.0
 11
77.388534
 21
202.191792
 31
0.0
  0
LINE
  5
327
100
AcDbEntity
  8
Layer_1
 62
1
100
AcDbLine
 10
77.388534
 20
202.191792
 30
0.0
 11
76.230294
 21
202.650121
 31
0.0
  0
LINE
  5
328
100
AcDbEntity
  8
Layer_1
 62
1
100
AcDbLine
 10
76.230294
 20
202.650121
 30
0.0
 11
77.388534
 21
203.112965
 31
0.0
  0
LINE
  5
329
100
AcDbEntity
  8
Layer_1
 62
1
100
AcDbLine
 10
73.408072
 20
199.829485
 30
0.0
 11
75.035929
 21
199.829485
 31
0.0
  0
LINE
  5
32a
100
AcDbEntity
  8
Layer_1
 62
1
100
AcDbLine
 10
75.035929
 20
199.829485
 30
0.0
 11
73.408072
 21
199.829485
 31
0.0
  0
LINE
  5
32b
100
AcDbEntity
  8
Layer_1
 62
1
100
AcDbLine
 10
73.385494
 20
200.582242
 30
0.0
 11
75.051734
 21
201.135398
 31
0.0
  0
LINE
  5
32c
100
AcDbEntity
  8
Layer_1
 62
1
100
AcDbLine
 10
75.051734
 20
201.135398
 30
0.0
 11
73.385494
 21
200.582242
 31
0.0
  0
SPLINE
  5
32d
100
AcDbEntity
  8
Layer_1
 62
1
100
AcDbSpline
 70
8
 71
3
 72
8
 73
4
 74
0
 40
0
 40
0
 40
0
 40
0
 40
1
 40
1
 40
1
 40
1
 10
73.394525
 20
202.367368
 30
0.0
 10
73.394525
 20
202.762479
 30
0.0
 10
73.611272
 20
203.085342
 30
0.0
 10
74.234418
 20
203.085342
 30
0.0
  0
SPLINE
  5
32e
100
AcDbEntity
  8
Layer_1
 62
1
100
AcDbSpline
 70
8
 71
3
 72
8
 73
4
 74
0
 40
0
 40
0
 40
0
 40
0
 40
1
 40
1
 40
1
 40
1
 10
74.234418
 20
203.085342
 30
0.0
 10
74.857565
 20
203.085342
 30
0.0
 10
75.078827
 20
202.762479
 30
0.0
 10
75.078827
 20
202.367368
 30
0.0
  0
SPLINE
  5
32f
100
AcDbEntity
  8
Layer_1
 62
1
100
AcDbSpline
 70
8
 71
3
 72
8
 73
4
 74
0
 40
0
 40
0
 40
0
 40
0
 40
1
 40
1
 40
1
 40
1
 10
75.078827
 20
202.367368
 30
0.0
 10
75.078827
 20
201.972257
 30
0.0
 10
74.857565
 20
201.649395
 30
0.0
 10
74.234418
 20
201.649395
 30
0.0
  0
SPLINE
  5
330
100
AcDbEntity
  8
Layer_1
 62
1
100
AcDbSpline
 70
8
 71
3
 72
8
 73
4
 74
0
 40
0
 40
0
 40
0
 40
0
 40
1
 40
1
 40
1
 40
1
 10
74.234418
 20
201.649395
 30
0.0
 10
73.611272
 20
201.649395
 30
0.0
 10
73.394525
 20
201.972257
 30
0.0
 10
73.394525
 20
202.367368
 30
0.0
  0
SPLINE
  5
331
100
AcDbEntity
  8
Layer_1
 62
1
100
AcDbSpline
 70
8
 71
3
 72
8
 73
4
 74
0
 40
0
 40
0
 40
0
 40
0
 40
1
 40
1
 40
1
 40
1
 10
73.394525
 20
202.367368
 30
0.0
 10
73.394525
 20
202.762479
 30
0.0
 10
73.611272
 20
203.085342
 30
0.0
 10
74.234418
 20
203.085342
 30
0.0
  0
SPLINE
  5
332
100
AcDbEntity
  8
Layer_1
 62
1
100
AcDbSpline
 70
8
 71
3
 72
8
 73
4
 74
0
 40
0
 40
0
 40
0
 40
0
 40
1
 40
1
 40
1
 40
1
 10
74.234418
 20
203.085342
 30
0.0
 10
74.857565
 20
203.085342
 30
0.0
 10
75.078827
 20
202.762479
 30
0.0
 10
75.078827
 20
202.367368
 30
0.0
  0
SPLINE
  5
333
100
AcDbEntity
  8
Layer_1
 62
1
100
AcDbSpline
 70
8
 71
3
 72
8
 73
4
 74
0
 40
0
 40
0
 40
0
 40
0
 40
1
 40
1
 40
1
 40
1
 10
75.078827
 20
202.367368
 30
0.0
 10
75.078827
 20
201.972257
 30
0.0
 10
74.857565
 20
201.649395
 30
0.0
 10
74.234418
 20
201.649395
 30
0.0
  0
SPLINE
  5
334
100
AcDbEntity
  8
Layer_1
 62
1
100
AcDbSpline
 70
8
 71
3
 72
8
 73
4
 74
0
 40
0
 40
0
 40
0
 40
0
 40
1
 40
1
 40
1
 40
1
 10
74.234418
 20
201.649395
 30
0.0
 10
73.611272
 20
201.649395
 30
0.0
 10
73.394525
 20
201.972257
 30
0.0
 10
73.394525
 20
202.367368
 30
0.0
  0
LINE
  5
335
100
AcDbEntity
  8
Layer_1
 62
1
100
AcDbLine
 10
85.300584
 20
169.691154
 30
0.0
 11
83.672726
 21
169.099617
 31
0.0
  0
LINE
  5
336
100
AcDbEntity
  8
Layer_1
 62
1
100
AcDbLine
 10
83.672726
 20
169.099617
 30
0.0
 11
85.300584
 21
168.508079
 31
0.0
  0
LINE
  5
337
100
AcDbEntity
  8
Layer_1
 62
1
100
AcDbLine
 10
85.300584
 20
168.508079
 30
0.0
 11
83.672726
 21
169.099617
 31
0.0
  0
LINE
  5
338
100
AcDbEntity
  8
Layer_1
 62
1
100
AcDbLine
 10
83.672726
 20
169.099617
 30
0.0
 11
85.300584
 21
169.691154
 31
0.0
  0
LINE
  5
339
100
AcDbEntity
  8
Layer_1
 62
1
100
AcDbLine
 10
84.510362
 20
170.480530
 30
0.0
 11
84.510362
 21
171.105934
 31
0.0
  0
SPLINE
  5
33a
100
AcDbEntity
  8
Layer_1
 62
1
100
AcDbSpline
 70
8
 71
3
 72
8
 73
4
 74
0
 40
0
 40
0
 40
0
 40
0
 40
1
 40
1
 40
1
 40
1
 10
84.510362
 20
171.105934
 30
0.0
 10
84.510362
 20
171.431054
 30
0.0
 10
84.706789
 20
171.564263
 30
0.0
 10
84.903215
 20
171.557490
 30
0.0
  0
SPLINE
  5
33b
100
AcDbEntity
  8
Layer_1
 62
1
100
AcDbSpline
 70
8
 71
3
 72
8
 73
4
 74
0
 40
0
 40
0
 40
0
 40
0
 40
1
 40
1
 40
1
 40
1
 10
84.903215
 20
171.557490
 30
0.0
 10
85.099642
 20
171.548459
 30
0.0
 10
85.300584
 20
171.410734
 30
0.0
 10
85.300584
 20
171.110450
 30
0.0
  0
LINE
  5
33c
100
AcDbEntity
  8
Layer_1
 62
1
100
AcDbLine
 10
85.300584
 20
171.110450
 30
0.0
 11
85.300584
 21
170.480530
 31
0.0
  0
LINE
  5
33d
100
AcDbEntity
  8
Layer_1
 62
1
100
AcDbLine
 10
85.300584
 20
170.480530
 30
0.0
 11
83.672726
 21
170.480530
 31
0.0
  0
LINE
  5
33e
100
AcDbEntity
  8
Layer_1
 62
1
100
AcDbLine
 10
83.672726
 20
170.480530
 30
0.0
 11
83.672726
 21
171.173668
 31
0.0
  0
SPLINE
  5
33f
100
AcDbEntity
  8
Layer_1
 62
1
100
AcDbSpline
 70
8
 71
3
 72
8
 73
4
 74
0
 40
0
 40
0
 40
0
 40
0
 40
1
 40
1
 40
1
 40
1
 10
83.672726
 20
171.173668
 30
0.0
 10
83.672726
 20
171.431054
 30
0.0
 10
83.826255
 20
171.634254
 30
0.0
 10
84.083642
 20
171.634254
 30
0.0
  0
SPLINE
  5
340
100
AcDbEntity
  8
Layer_1
 62
1
100
AcDbSpline
 70
8
 71
3
 72
8
 73
4
 74
0
 40
0
 40
0
 40
0
 40
0
 40
1
 40
1
 40
1
 40
1
 10
84.083642
 20
171.634254
 30
0.0
 10
84.341029
 20
171.629739
 30
0.0
 10
84.510362
 20
171.415250
 30
0.0
 10
84.510362
 20
171.105934
 30
0.0
  0
SPLINE
  5
341
100
AcDbEntity
  8
Layer_1
 62
1
100
AcDbSpline
 70
8
 71
3
 72
8
 73
4
 74
0
 40
0
 40
0
 40
0
 40
0
 40
1
 40
1
 40
1
 40
1
 10
84.510362
 20
171.105934
 30
0.0
 10
84.510362
 20
171.415250
 30
0.0
 10
84.341029
 20
171.629739
 30
0.0
 10
84.083642
 20
171.634254
 30
0.0
  0
SPLINE
  5
342
100
AcDbEntity
  8
Layer_1
 62
1
100
AcDbSpline
 70
8
 71
3
 72
8
 73
4
 74
0
 40
0
 40
0
 40
0
 40
0
 40
1
 40
1
 40
1
 40
1
 10
84.083642
 20
171.634254
 30
0.0
 10
83.826255
 20
171.634254
 30
0.0
 10
83.672726
 20
171.431054
 30
0.0
 10
83.672726
 20
171.173668
 30
0.0
  0
LINE
  5
343
100
AcDbEntity
  8
Layer_1
 62
1
100
AcDbLine
 10
83.672726
 20
171.173668
 30
0.0
 11
83.672726
 21
170.480530
 31
0.0
  0
LINE
  5
344
100
AcDbEntity
  8
Layer_1
 62
1
100
AcDbLine
 10
83.672726
 20
170.480530
 30
0.0
 11
85.300584
 21
170.480530
 31
0.0
  0
LINE
  5
345
100
AcDbEntity
  8
Layer_1
 62
1
100
AcDbLine
 10
85.300584
 20
170.480530
 30
0.0
 11
85.300584
 21
171.110450
 31
0.0
  0
SPLINE
  5
346
100
AcDbEntity
  8
Layer_1
 62
1
100
AcDbSpline
 70
8
 71
3
 72
8
 73
4
 74
0
 40
0
 40
0
 40
0
 40
0
 40
1
 40
1
 40
1
 40
1
 10
85.300584
 20
171.110450
 30
0.0
 10
85.300584
 20
171.410734
 30
0.0
 10
85.099642
 20
171.548459
 30
0.0
 10
84.903215
 20
171.557490
 30
0.0
  0
SPLINE
  5
347
100
AcDbEntity
  8
Layer_1
 62
1
100
AcDbSpline
 70
8
 71
3
 72
8
 73
4
 74
0
 40
0
 40
0
 40
0
 40
0
 40
1
 40
1
 40
1
 40
1
 10
84.903215
 20
171.557490
 30
0.0
 10
84.706789
 20
171.564263
 30
0.0
 10
84.510362
 20
171.431054
 30
0.0
 10
84.510362
 20
171.105934
 30
0.0
  0
LINE
  5
348
100
AcDbEntity
  8
Layer_1
 62
1
100
AcDbLine
 10
84.510362
 20
171.105934
 30
0.0
 11
84.510362
 21
170.480530
 31
0.0
  0
LINE
  5
349
100
AcDbEntity
  8
Layer_1
 62
1
100
AcDbLine
 10
83.672726
 20
172.190196
 30
0.0
 11
85.300584
 21
172.835920
 31
0.0
  0
LINE
  5
34a
100
AcDbEntity
  8
Layer_1
 62
1
100
AcDbLine
 10
85.300584
 20
172.835920
 30
0.0
 11
83.672726
 21
173.483902
 31
0.0
  0
LINE
  5
34b
100
AcDbEntity
  8
Layer_1
 62
1
100
AcDbLine
 10
83.672726
 20
173.483902
 30
0.0
 11
85.300584
 21
172.835920
 31
0.0
  0
LINE
  5
34c
100
AcDbEntity
  8
Layer_1
 62
1
100
AcDbLine
 10
85.300584
 20
172.835920
 30
0.0
 11
83.672726
 21
172.190196
 31
0.0
  0
LINE
  5
34d
100
AcDbEntity
  8
Layer_1
 62
1
100
AcDbLine
 10
84.185242
 20
172.393396
 30
0.0
 11
84.185242
 21
173.278444
 31
0.0
  0
LINE
  5
34e
100
AcDbEntity
  8
Layer_1
 62
1
100
AcDbLine
 10
84.185242
 20
173.278444
 30
0.0
 11
84.185242
 21
172.393396
 31
0.0
  0
LINE
  5
34f
100
AcDbEntity
  8
Layer_1
 62
1
100
AcDbLine
 10
83.672726
 20
174.618224
 30
0.0
 11
85.300584
 21
174.618224
 31
0.0
  0
LINE
  5
350
100
AcDbEntity
  8
Layer_1
 62
1
100
AcDbLine
 10
85.300584
 20
174.618224
 30
0.0
 11
85.300584
 21
174.033459
 31
0.0
  0
LINE
  5
351
100
AcDbEntity
  8
Layer_1
 62
1
100
AcDbLine
 10
85.300584
 20
174.033459
 30
0.0
 11
85.300584
 21
175.207504
 31
0.0
  0
LINE
  5
352
100
AcDbEntity
  8
Layer_1
 62
1
100
AcDbLine
 10
85.300584
 20
175.207504
 30
0.0
 11
85.300584
 21
174.618224
 31
0.0
  0
LINE
  5
353
100
AcDbEntity
  8
Layer_1
 62
1
100
AcDbLine
 10
85.300584
 20
174.618224
 30
0.0
 11
83.672726
 21
174.618224
 31
0.0
  0
LINE
  5
354
100
AcDbEntity
  8
Layer_1
 62
1
100
AcDbLine
 10
80.850504
 20
174.618224
 30
0.0
 11
82.478362
 21
174.618224
 31
0.0
  0
LINE
  5
355
100
AcDbEntity
  8
Layer_1
 62
1
100
AcDbLine
 10
82.478362
 20
174.618224
 30
0.0
 11
82.478362
 21
174.033459
 31
0.0
  0
LINE
  5
356
100
AcDbEntity
  8
Layer_1
 62
1
100
AcDbLine
 10
82.478362
 20
174.033459
 30
0.0
 11
82.478362
 21
175.207504
 31
0.0
  0
LINE
  5
357
100
AcDbEntity
  8
Layer_1
 62
1
100
AcDbLine
 10
82.478362
 20
175.207504
 30
0.0
 11
82.478362
 21
174.618224
 31
0.0
  0
LINE
  5
358
100
AcDbEntity
  8
Layer_1
 62
1
100
AcDbLine
 10
82.478362
 20
174.618224
 30
0.0
 11
80.850504
 21
174.618224
 31
0.0
  0
LINE
  5
359
100
AcDbEntity
  8
Layer_1
 62
1
100
AcDbLine
 10
78.818504
 20
170.385139
 30
0.0
 11
78.818504
 21
170.965388
 31
0.0
  0
SPLINE
  5
35a
100
AcDbEntity
  8
Layer_1
 62
1
100
AcDbSpline
 70
8
 71
3
 72
8
 73
4
 74
0
 40
0
 40
0
 40
0
 40
0
 40
1
 40
1
 40
1
 40
1
 10
78.818504
 20
170.965388
 30
0.0
 10
78.263091
 20
170.965388
 30
0.0
 10
78.016993
 20
170.714774
 30
0.0
 10
78.016993
 20
170.315148
 30
0.0
  0
SPLINE
  5
35b
100
AcDbEntity
  8
Layer_1
 62
1
100
AcDbSpline
 70
8
 71
3
 72
8
 73
4
 74
0
 40
0
 40
0
 40
0
 40
0
 40
1
 40
1
 40
1
 40
1
 10
78.016993
 20
170.315148
 30
0.0
 10
78.016993
 20
169.915521
 30
0.0
 10
78.226966
 20
169.601690
 30
0.0
 10
78.843340
 20
169.601690
 30
0.0
  0
SPLINE
  5
35c
100
AcDbEntity
  8
Layer_1
 62
1
100
AcDbSpline
 70
8
 71
3
 72
8
 73
4
 74
0
 40
0
 40
0
 40
0
 40
0
 40
1
 40
1
 40
1
 40
1
 10
78.843340
 20
169.601690
 30
0.0
 10
79.461971
 20
169.601690
 30
0.0
 10
79.676460
 20
169.868108
 30
0.0
 10
79.676460
 20
170.315148
 30
0.0
  0
SPLINE
  5
35d
100
AcDbEntity
  8
Layer_1
 62
1
100
AcDbSpline
 70
8
 71
3
 72
8
 73
4
 74
0
 40
0
 40
0
 40
0
 40
0
 40
1
 40
1
 40
1
 40
1
 10
79.676460
 20
170.315148
 30
0.0
 10
79.676460
 20
170.633494
 30
0.0
 10
79.565829
 20
170.861530
 30
0.0
 10
79.274575
 20
170.965388
 30
0.0
  0
SPLINE
  5
35e
100
AcDbEntity
  8
Layer_1
 62
1
100
AcDbSpline
 70
8
 71
3
 72
8
 73
4
 74
0
 40
0
 40
0
 40
0
 40
0
 40
1
 40
1
 40
1
 40
1
 10
79.274575
 20
170.965388
 30
0.0
 10
79.565829
 20
170.861530
 30
0.0
 10
79.676460
 20
170.633494
 30
0.0
 10
79.676460
 20
170.315148
 30
0.0
  0
SPLINE
  5
35f
100
AcDbEntity
  8
Layer_1
 62
1
100
AcDbSpline
 70
8
 71
3
 72
8
 73
4
 74
0
 40
0
 40
0
 40
0
 40
0
 40
1
 40
1
 40
1
 40
1
 10
79.676460
 20
170.315148
 30
0.0
 10
79.676460
 20
169.868108
 30
0.0
 10
79.461971
 20
169.601690
 30
0.0
 10
78.843340
 20
169.601690
 30
0.0
  0
SPLINE
  5
360
100
AcDbEntity
  8
Layer_1
 62
1
100
AcDbSpline
 70
8
 71
3
 72
8
 73
4
 74
0
 40
0
 40
0
 40
0
 40
0
 40
1
 40
1
 40
1
 40
1
 10
78.843340
 20
169.601690
 30
0.0
 10
78.226966
 20
169.601690
 30
0.0
 10
78.016993
 20
169.915521
 30
0.0
 10
78.016993
 20
170.315148
 30
0.0
  0
SPLINE
  5
361
100
AcDbEntity
  8
Layer_1
 62
1
100
AcDbSpline
 70
8
 71
3
 72
8
 73
4
 74
0
 40
0
 40
0
 40
0
 40
0
 40
1
 40
1
 40
1
 40
1
 10
78.016993
 20
170.315148
 30
0.0
 10
78.016993
 20
170.714774
 30
0.0
 10
78.263091
 20
170.965388
 30
0.0
 10
78.818504
 20
170.965388
 30
0.0
  0
LINE
  5
362
100
AcDbEntity
  8
Layer_1
 62
1
100
AcDbLine
 10
78.818504
 20
170.965388
 30
0.0
 11
78.818504
 21
170.385139
 31
0.0
  0
LINE
  5
363
100
AcDbEntity
  8
Layer_1
 62
1
100
AcDbLine
 10
78.028282
 20
170.965388
 30
0.0
 11
78.818504
 21
170.965388
 31
0.0
  0
LINE
  5
364
100
AcDbEntity
  8
Layer_1
 62
1
100
AcDbLine
 10
78.818504
 20
170.965388
 30
0.0
 11
78.028282
 21
170.965388
 31
0.0
  0
LINE
  5
365
100
AcDbEntity
  8
Layer_1
 62
1
100
AcDbLine
 10
78.028282
 20
171.763758
 30
0.0
 11
79.656140
 21
171.763758
 31
0.0
  0
LINE
  5
366
100
AcDbEntity
  8
Layer_1
 62
1
100
AcDbLine
 10
79.656140
 20
171.763758
 30
0.0
 11
78.028282
 21
172.924256
 31
0.0
  0
LINE
  5
367
100
AcDbEntity
  8
Layer_1
 62
1
100
AcDbLine
 10
78.028282
 20
172.924256
 30
0.0
 11
79.656140
 21
172.924256
 31
0.0
  0
LINE
  5
368
100
AcDbEntity
  8
Layer_1
 62
1
100
AcDbLine
 10
79.656140
 20
172.924256
 30
0.0
 11
78.028282
 21
172.924256
 31
0.0
  0
LINE
  5
369
100
AcDbEntity
  8
Layer_1
 62
1
100
AcDbLine
 10
78.028282
 20
172.924256
 30
0.0
 11
79.656140
 21
171.763758
 31
0.0
  0
LINE
  5
36a
100
AcDbEntity
  8
Layer_1
 62
1
100
AcDbLine
 10
79.656140
 20
171.763758
 30
0.0
 11
78.028282
 21
171.763758
 31
0.0
  0
LINE
  5
36b
100
AcDbEntity
  8
Layer_1
 62
1
100
AcDbLine
 10
78.028282
 20
173.977438
 30
0.0
 11
79.656140
 21
173.977438
 31
0.0
  0
LINE
  5
36c
100
AcDbEntity
  8
Layer_1
 62
1
100
AcDbLine
 10
79.656140
 20
173.977438
 30
0.0
 11
79.656140
 21
174.564461
 31
0.0
  0
SPLINE
  5
36d
100
AcDbEntity
  8
Layer_1
 62
1
100
AcDbSpline
 70
8
 71
3
 72
8
 73
4
 74
0
 40
0
 40
0
 40
0
 40
0
 40
1
 40
1
 40
1
 40
1
 10
79.656140
 20
174.564461
 30
0.0
 10
79.656140
 20
175.101812
 30
0.0
 10
79.204584
 20
175.167287
 30
0.0
 10
78.865917
 20
175.180834
 30
0.0
  0
SPLINE
  5
36e
100
AcDbEntity
  8
Layer_1
 62
1
100
AcDbSpline
 70
8
 71
3
 72
8
 73
4
 74
0
 40
0
 40
0
 40
0
 40
0
 40
1
 40
1
 40
1
 40
1
 10
78.865917
 20
175.180834
 30
0.0
 10
78.527251
 20
175.194381
 30
0.0
 10
78.028282
 20
175.079234
 30
0.0
 10
78.028282
 20
174.564461
 30
0.0
  0
LINE
  5
36f
100
AcDbEntity
  8
Layer_1
 62
1
100
AcDbLine
 10
78.028282
 20
174.564461
 30
0.0
 11
78.028282
 21
173.977438
 31
0.0
  0
LINE
  5
370
100
AcDbEntity
  8
Layer_1
 62
1
100
AcDbLine
 10
78.028282
 20
173.977438
 30
0.0
 11
79.656140
 21
173.977438
 31
0.0
  0
LINE
  5
371
100
AcDbEntity
  8
Layer_1
 62
1
100
AcDbLine
 10
79.656140
 20
173.977438
 30
0.0
 11
79.656140
 21
174.564461
 31
0.0
  0
SPLINE
  5
372
100
AcDbEntity
  8
Layer_1
 62
1
100
AcDbSpline
 70
8
 71
3
 72
8
 73
4
 74
0
 40
0
 40
0
 40
0
 40
0
 40
1
 40
1
 40
1
 40
1
 10
79.656140
 20
174.564461
 30
0.0
 10
79.656140
 20
175.101812
 30
0.0
 10
79.204584
 20
175.167287
 30
0.0
 10
78.865917
 20
175.180834
 30
0.0
  0
SPLINE
  5
373
100
AcDbEntity
  8
Layer_1
 62
1
100
AcDbSpline
 70
8
 71
3
 72
8
 73
4
 74
0
 40
0
 40
0
 40
0
 40
0
 40
1
 40
1
 40
1
 40
1
 10
78.865917
 20
175.180834
 30
0.0
 10
78.527251
 20
175.194381
 30
0.0
 10
78.028282
 20
175.079234
 30
0.0
 10
78.028282
 20
174.564461
 30
0.0
  0
LINE
  5
374
100
AcDbEntity
  8
Layer_1
 62
1
100
AcDbLine
 10
78.028282
 20
174.564461
 30
0.0
 11
78.028282
 21
173.977438
 31
0.0
  0
LINE
  5
375
100
AcDbEntity
  8
Layer_1
 62
1
100
AcDbLine
 10
93.694957
 20
195.087260
 30
0.0
 11
95.322814
 21
195.087260
 31
0.0
  0
LINE
  5
376
100
AcDbEntity
  8
Layer_1
 62
1
100
AcDbLine
 10
95.322814
 20
195.087260
 30
0.0
 11
95.322814
 21
194.502495
 31
0.0
  0
LINE
  5
377
100
AcDbEntity
  8
Layer_1
 62
1
100
AcDbLine
 10
95.322814
 20
194.502495
 30
0.0
 11
95.322814
 21
195.676540
 31
0.0
  0
LINE
  5
378
100
AcDbEntity
  8
Layer_1
 62
1
100
AcDbLine
 10
95.322814
 20
195.676540
 30
0.0
 11
95.322814
 21
195.087260
 31
0.0
  0
LINE
  5
379
100
AcDbEntity
  8
Layer_1
 62
1
100
AcDbLine
 10
95.322814
 20
195.087260
 30
0.0
 11
93.694957
 21
195.087260
 31
0.0
  0
LINE
  5
37a
100
AcDbEntity
  8
Layer_1
 62
1
100
AcDbLine
 10
93.706246
 20
196.222287
 30
0.0
 11
94.514530
 21
196.768669
 31
0.0
  0
LINE
  5
37b
100
AcDbEntity
  8
Layer_1
 62
1
100
AcDbLine
 10
94.514530
 20
196.768669
 30
0.0
 11
95.322814
 21
196.231318
 31
0.0
  0
LINE
  5
37c
100
AcDbEntity
  8
Layer_1
 62
1
100
AcDbLine
 10
95.322814
 20
196.231318
 30
0.0
 11
94.514530
 21
196.768669
 31
0.0
  0
LINE
  5
37d
100
AcDbEntity
  8
Layer_1
 62
1
100
AcDbLine
 10
94.514530
 20
196.768669
 30
0.0
 11
95.322814
 21
197.312794
 31
0.0
  0
LINE
  5
37e
100
AcDbEntity
  8
Layer_1
 62
1
100
AcDbLine
 10
95.322814
 20
197.312794
 30
0.0
 11
94.514530
 21
196.768669
 31
0.0
  0
LINE
  5
37f
100
AcDbEntity
  8
Layer_1
 62
1
100
AcDbLine
 10
94.514530
 20
196.768669
 30
0.0
 11
93.694957
 21
197.312794
 31
0.0
  0
LINE
  5
380
100
AcDbEntity
  8
Layer_1
 62
1
100
AcDbLine
 10
93.694957
 20
197.312794
 30
0.0
 11
94.514530
 21
196.768669
 31
0.0
  0
LINE
  5
381
100
AcDbEntity
  8
Layer_1
 62
1
100
AcDbLine
 10
94.514530
 20
196.768669
 30
0.0
 11
93.706246
 21
196.222287
 31
0.0
  0
SPLINE
  5
382
100
AcDbEntity
  8
Layer_1
 62
1
100
AcDbSpline
 70
8
 71
3
 72
8
 73
4
 74
0
 40
0
 40
0
 40
0
 40
0
 40
1
 40
1
 40
1
 40
1
 10
90.872734
 20
195.904575
 30
0.0
 10
90.904343
 20
195.859420
 30
0.0
 10
90.967561
 20
195.848131
 30
0.0
 10
90.994654
 20
195.848131
 30
0.0
  0
LINE
  5
383
100
AcDbEntity
  8
Layer_1
 62
1
100
AcDbLine
 10
90.994654
 20
195.848131
 30
0.0
 11
91.405570
 21
195.807491
 31
0.0
  0
SPLINE
  5
384
100
AcDbEntity
  8
Layer_1
 62
1
100
AcDbSpline
 70
8
 71
3
 72
8
 73
4
 74
0
 40
0
 40
0
 40
0
 40
0
 40
1
 40
1
 40
1
 40
1
 10
91.405570
 20
195.807491
 30
0.0
 10
91.581677
 20
195.793944
 30
0.0
 10
91.703597
 20
195.667509
 30
0.0
 10
91.703597
 20
195.416895
 30
0.0
  0
SPLINE
  5
385
100
AcDbEntity
  8
Layer_1
 62
1
100
AcDbSpline
 70
8
 71
3
 72
8
 73
4
 74
0
 40
0
 40
0
 40
0
 40
0
 40
1
 40
1
 40
1
 40
1
 10
91.703597
 20
195.416895
 30
0.0
 10
91.703597
 20
195.667509
 30
0.0
 10
91.581677
 20
195.793944
 30
0.0
 10
91.405570
 20
195.807491
 30
0.0
  0
LINE
  5
386
100
AcDbEntity
  8
Layer_1
 62
1
100
AcDbLine
 10
91.405570
 20
195.807491
 30
0.0
 11
90.994654
 21
195.848131
 31
0.0
  0
SPLINE
  5
387
100
AcDbEntity
  8
Layer_1
 62
1
100
AcDbSpline
 70
8
 71
3
 72
8
 73
4
 74
0
 40
0
 40
0
 40
0
 40
0
 40
1
 40
1
 40
1
 40
1
 10
90.994654
 20
195.848131
 30
0.0
 10
90.967561
 20
195.848131
 30
0.0
 10
90.904343
 20
195.859420
 30
0.0
 10
90.872734
 20
195.904575
 30
0.0
  0
LINE
  5
388
100
AcDbEntity
  8
Layer_1
 62
1
100
AcDbLine
 10
90.872734
 20
194.746335
 30
0.0
 11
92.500592
 21
194.746335
 31
0.0
  0
LINE
  5
389
100
AcDbEntity
  8
Layer_1
 62
1
100
AcDbLine
 10
92.500592
 20
194.746335
 30
0.0
 11
92.500592
 21
195.340131
 31
0.0
  0
SPLINE
  5
38a
100
AcDbEntity
  8
Layer_1
 62
1
100
AcDbSpline
 70
8
 71
3
 72
8
 73
4
 74
0
 40
0
 40
0
 40
0
 40
0
 40
1
 40
1
 40
1
 40
1
 10
92.500592
 20
195.340131
 30
0.0
 10
92.500592
 20
195.755562
 30
0.0
 10
92.358352
 20
195.843615
 30
0.0
 10
92.139348
 20
195.854904
 30
0.0
  0
SPLINE
  5
38b
100
AcDbEntity
  8
Layer_1
 62
1
100
AcDbSpline
 70
8
 71
3
 72
8
 73
4
 74
0
 40
0
 40
0
 40
0
 40
0
 40
1
 40
1
 40
1
 40
1
 10
92.139348
 20
195.854904
 30
0.0
 10
91.920343
 20
195.863935
 30
0.0
 10
91.703597
 20
195.753304
 30
0.0
 10
91.703597
 20
195.385286
 30
0.0
  0
LINE
  5
38c
100
AcDbEntity
  8
Layer_1
 62
1
100
AcDbLine
 10
91.703597
 20
195.385286
 30
0.0
 11
91.703597
 21
194.746335
 31
0.0
  0
LINE
  5
38d
100
AcDbEntity
  8
Layer_1
 62
1
100
AcDbLine
 10
91.703597
 20
194.746335
 30
0.0
 11
91.703597
 21
195.385286
 31
0.0
  0
SPLINE
  5
38e
100
AcDbEntity
  8
Layer_1
 62
1
100
AcDbSpline
 70
8
 71
3
 72
8
 73
4
 74
0
 40
0
 40
0
 40
0
 40
0
 40
1
 40
1
 40
1
 40
1
 10
91.703597
 20
195.385286
 30
0.0
 10
91.703597
 20
195.746531
 30
0.0
 10
91.920343
 20
195.863935
 30
0.0
 10
92.139348
 20
195.854904
 30
0.0
  0
SPLINE
  5
38f
100
AcDbEntity
  8
Layer_1
 62
1
100
AcDbSpline
 70
8
 71
3
 72
8
 73
4
 74
0
 40
0
 40
0
 40
0
 40
0
 40
1
 40
1
 40
1
 40
1
 10
92.139348
 20
195.854904
 30
0.0
 10
92.358352
 20
195.843615
 30
0.0
 10
92.500592
 20
195.746531
 30
0.0
 10
92.500592
 20
195.340131
 30
0.0
  0
LINE
  5
390
100
AcDbEntity
  8
Layer_1
 62
1
100
AcDbLine
 10
92.500592
 20
195.340131
 30
0.0
 11
92.500592
 21
194.746335
 31
0.0
  0
LINE
  5
391
100
AcDbEntity
  8
Layer_1
 62
1
100
AcDbLine
 10
92.500592
 20
194.746335
 30
0.0
 11
90.872734
 21
194.746335
 31
0.0
  0
LINE
  5
392
100
AcDbEntity
  8
Layer_1
 62
1
100
AcDbLine
 10
90.884023
 20
196.460412
 30
0.0
 11
91.692308
 21
197.006794
 31
0.0
  0
LINE
  5
393
100
AcDbEntity
  8
Layer_1
 62
1
100
AcDbLine
 10
91.692308
 20
197.006794
 30
0.0
 11
92.500592
 21
196.469443
 31
0.0
  0
LINE
  5
394
100
AcDbEntity
  8
Layer_1
 62
1
100
AcDbLine
 10
92.500592
 20
196.469443
 30
0.0
 11
91.692308
 21
197.006794
 31
0.0
  0
LINE
  5
395
100
AcDbEntity
  8
Layer_1
 62
1
100
AcDbLine
 10
91.692308
 20
197.006794
 30
0.0
 11
92.500592
 21
197.550919
 31
0.0
  0
LINE
  5
396
100
AcDbEntity
  8
Layer_1
 62
1
100
AcDbLine
 10
92.500592
 20
197.550919
 30
0.0
 11
91.692308
 21
197.006794
 31
0.0
  0
LINE
  5
397
100
AcDbEntity
  8
Layer_1
 62
1
100
AcDbLine
 10
91.692308
 20
197.006794
 30
0.0
 11
90.872734
 21
197.550919
 31
0.0
  0
LINE
  5
398
100
AcDbEntity
  8
Layer_1
 62
1
100
AcDbLine
 10
90.872734
 20
197.550919
 30
0.0
 11
91.692308
 21
197.006794
 31
0.0
  0
LINE
  5
399
100
AcDbEntity
  8
Layer_1
 62
1
100
AcDbLine
 10
91.692308
 20
197.006794
 30
0.0
 11
90.884023
 21
196.460412
 31
0.0
  0
LINE
  5
39a
100
AcDbEntity
  8
Layer_1
 62
1
100
AcDbLine
 10
89.678370
 20
195.685571
 30
0.0
 11
88.050512
 21
195.094033
 31
0.0
  0
LINE
  5
39b
100
AcDbEntity
  8
Layer_1
 62
1
100
AcDbLine
 10
88.050512
 20
195.094033
 30
0.0
 11
89.678370
 21
194.502495
 31
0.0
  0
LINE
  5
39c
100
AcDbEntity
  8
Layer_1
 62
1
100
AcDbLine
 10
89.678370
 20
194.502495
 30
0.0
 11
88.050512
 21
195.094033
 31
0.0
  0
LINE
  5
39d
100
AcDbEntity
  8
Layer_1
 62
1
100
AcDbLine
 10
88.050512
 20
195.094033
 30
0.0
 11
89.678370
 21
195.685571
 31
0.0
  0
SPLINE
  5
39e
100
AcDbEntity
  8
Layer_1
 62
1
100
AcDbSpline
 70
8
 71
3
 72
8
 73
4
 74
0
 40
0
 40
0
 40
0
 40
0
 40
1
 40
1
 40
1
 40
1
 10
89.680628
 20
197.375800
 30
0.0
 10
89.680628
 20
197.375800
 30
0.0
 10
88.838477
 20
197.375800
 30
0.0
 10
88.567543
 20
197.375800
 30
0.0
  0
SPLINE
  5
39f
100
AcDbEntity
  8
Layer_1
 62
1
100
AcDbSpline
 70
8
 71
3
 72
8
 73
4
 74
0
 40
0
 40
0
 40
0
 40
0
 40
1
 40
1
 40
1
 40
1
 10
88.567543
 20
197.375800
 30
0.0
 10
88.296610
 20
197.375800
 30
0.0
 10
88.050512
 20
197.208724
 30
0.0
 10
88.052770
 20
196.811355
 30
0.0
  0
SPLINE
  5
3a0
100
AcDbEntity
  8
Layer_1
 62
1
100
AcDbSpline
 70
8
 71
3
 72
8
 73
4
 74
0
 40
0
 40
0
 40
0
 40
0
 40
1
 40
1
 40
1
 40
1
 10
88.052770
 20
196.811355
 30
0.0
 10
88.059543
 20
196.413986
 30
0.0
 10
88.280806
 20
196.231106
 30
0.0
 10
88.567543
 20
196.231106
 30
0.0
  0
LINE
  5
3a1
100
AcDbEntity
  8
Layer_1
 62
1
100
AcDbLine
 10
88.567543
 20
196.231106
 30
0.0
 11
89.680628
 21
196.231106
 31
0.0
  0
LINE
  5
3a2
100
AcDbEntity
  8
Layer_1
 62
1
100
AcDbLine
 10
89.680628
 20
196.231106
 30
0.0
 11
88.567543
 21
196.231106
 31
0.0
  0
SPLINE
  5
3a3
100
AcDbEntity
  8
Layer_1
 62
1
100
AcDbSpline
 70
8
 71
3
 72
8
 73
4
 74
0
 40
0
 40
0
 40
0
 40
0
 40
1
 40
1
 40
1
 40
1
 10
88.567543
 20
196.231106
 30
0.0
 10
88.280806
 20
196.231106
 30
0.0
 10
88.059543
 20
196.413986
 30
0.0
 10
88.052770
 20
196.811355
 30
0.0
  0
SPLINE
  5
3a4
100
AcDbEntity
  8
Layer_1
 62
1
100
AcDbSpline
 70
8
 71
3
 72
8
 73
4
 74
0
 40
0
 40
0
 40
0
 40
0
 40
1
 40
1
 40
1
 40
1
 10
88.052770
 20
196.811355
 30
0.0
 10
88.050512
 20
197.208724
 30
0.0
 10
88.296610
 20
197.375800
 30
0.0
 10
88.567543
 20
197.375800
 30
0.0
  0
SPLINE
  5
3a5
100
AcDbEntity
  8
Layer_1
 62
1
100
AcDbSpline
 70
8
 71
3
 72
8
 73
4
 74
0
 40
0
 40
0
 40
0
 40
0
 40
1
 40
1
 40
1
 40
1
 10
88.567543
 20
197.375800
 30
0.0
 10
88.838477
 20
197.375800
 30
0.0
 10
89.680628
 20
197.375800
 30
0.0
 10
89.680628
 20
197.375800
 30
0.0
  0
SPLINE
  5
3a6
100
AcDbEntity
  8
Layer_1
 62
1
100
AcDbSpline
 70
8
 71
3
 72
8
 73
4
 74
0
 40
0
 40
0
 40
0
 40
0
 40
1
 40
1
 40
1
 40
1
 10
88.542708
 20
197.915620
 30
0.0
 10
88.181463
 20
197.915620
 30
0.0
 10
88.036966
 20
198.191069
 30
0.0
 10
88.036966
 20
198.513931
 30
0.0
  0
SPLINE
  5
3a7
100
AcDbEntity
  8
Layer_1
 62
1
100
AcDbSpline
 70
8
 71
3
 72
8
 73
4
 74
0
 40
0
 40
0
 40
0
 40
0
 40
1
 40
1
 40
1
 40
1
 10
88.036966
 20
198.513931
 30
0.0
 10
88.036966
 20
198.841309
 30
0.0
 10
88.242423
 20
199.046767
 30
0.0
 10
88.443366
 20
199.053540
 30
0.0
  0
SPLINE
  5
3a8
100
AcDbEntity
  8
Layer_1
 62
1
100
AcDbSpline
 70
8
 71
3
 72
8
 73
4
 74
0
 40
0
 40
0
 40
0
 40
0
 40
1
 40
1
 40
1
 40
1
 10
88.443366
 20
199.053540
 30
0.0
 10
88.642050
 20
199.060314
 30
0.0
 10
88.800094
 20
198.958714
 30
0.0
 10
88.842992
 20
198.757771
 30
0.0
  0
LINE
  5
3a9
100
AcDbEntity
  8
Layer_1
 62
1
100
AcDbLine
 10
88.842992
 20
198.757771
 30
0.0
 11
88.962654
 21
198.204616
 31
0.0
  0
SPLINE
  5
3aa
100
AcDbEntity
  8
Layer_1
 62
1
100
AcDbSpline
 70
8
 71
3
 72
8
 73
4
 74
0
 40
0
 40
0
 40
0
 40
0
 40
1
 40
1
 40
1
 40
1
 10
88.962654
 20
198.204616
 30
0.0
 10
88.996521
 20
198.048829
 30
0.0
 10
89.086832
 20
197.956260
 30
0.0
 10
89.299063
 20
197.956260
 30
0.0
  0
SPLINE
  5
3ab
100
AcDbEntity
  8
Layer_1
 62
1
100
AcDbSpline
 70
8
 71
3
 72
8
 73
4
 74
0
 40
0
 40
0
 40
0
 40
0
 40
1
 40
1
 40
1
 40
1
 10
89.299063
 20
197.956260
 30
0.0
 10
89.511294
 20
197.956260
 30
0.0
 10
89.694174
 20
198.134625
 30
0.0
 10
89.694174
 20
198.459745
 30
0.0
  0
SPLINE
  5
3ac
100
AcDbEntity
  8
Layer_1
 62
1
100
AcDbSpline
 70
8
 71
3
 72
8
 73
4
 74
0
 40
0
 40
0
 40
0
 40
0
 40
1
 40
1
 40
1
 40
1
 10
89.694174
 20
198.459745
 30
0.0
 10
89.694174
 20
198.784865
 30
0.0
 10
89.540646
 20
199.021931
 30
0.0
 10
89.271970
 20
199.012900
 30
0.0
  0
SPLINE
  5
3ad
100
AcDbEntity
  8
Layer_1
 62
1
100
AcDbSpline
 70
8
 71
3
 72
8
 73
4
 74
0
 40
0
 40
0
 40
0
 40
0
 40
1
 40
1
 40
1
 40
1
 10
89.271970
 20
199.012900
 30
0.0
 10
89.540646
 20
199.021931
 30
0.0
 10
89.694174
 20
198.784865
 30
0.0
 10
89.694174
 20
198.459745
 30
0.0
  0
SPLINE
  5
3ae
100
AcDbEntity
  8
Layer_1
 62
1
100
AcDbSpline
 70
8
 71
3
 72
8
 73
4
 74
0
 40
0
 40
0
 40
0
 40
0
 40
1
 40
1
 40
1
 40
1
 10
89.694174
 20
198.459745
 30
0.0
 10
89.694174
 20
198.134625
 30
0.0
 10
89.511294
 20
197.956260
 30
0.0
 10
89.299063
 20
197.956260
 30
0.0
  0
SPLINE
  5
3af
100
AcDbEntity
  8
Layer_1
 62
1
100
AcDbSpline
 70
8
 71
3
 72
8
 73
4
 74
0
 40
0
 40
0
 40
0
 40
0
 40
1
 40
1
 40
1
 40
1
 10
89.299063
 20
197.956260
 30
0.0
 10
89.086832
 20
197.956260
 30
0.0
 10
88.998779
 20
198.044314
 30
0.0
 10
88.962654
 20
198.204616
 30
0.0
  0
LINE
  5
3b0
100
AcDbEntity
  8
Layer_1
 62
1
100
AcDbLine
 10
88.962654
 20
198.204616
 30
0.0
 11
88.842992
 21
198.757771
 31
0.0
  0
SPLINE
  5
3b1
100
AcDbEntity
  8
Layer_1
 62
1
100
AcDbSpline
 70
8
 71
3
 72
8
 73
4
 74
0
 40
0
 40
0
 40
0
 40
0
 40
1
 40
1
 40
1
 40
1
 10
88.842992
 20
198.757771
 30
0.0
 10
88.800094
 20
198.963229
 30
0.0
 10
88.642050
 20
199.060314
 30
0.0
 10
88.443366
 20
199.053540
 30
0.0
  0
SPLINE
  5
3b2
100
AcDbEntity
  8
Layer_1
 62
1
100
AcDbSpline
 70
8
 71
3
 72
8
 73
4
 74
0
 40
0
 40
0
 40
0
 40
0
 40
1
 40
1
 40
1
 40
1
 10
88.443366
 20
199.053540
 30
0.0
 10
88.242423
 20
199.046767
 30
0.0
 10
88.036966
 20
198.841309
 30
0.0
 10
88.036966
 20
198.513931
 30
0.0
  0
SPLINE
  5
3b3
100
AcDbEntity
  8
Layer_1
 62
1
100
AcDbSpline
 70
8
 71
3
 72
8
 73
4
 74
0
 40
0
 40
0
 40
0
 40
0
 40
1
 40
1
 40
1
 40
1
 10
88.036966
 20
198.513931
 30
0.0
 10
88.036966
 20
198.191069
 30
0.0
 10
88.181463
 20
197.915620
 30
0.0
 10
88.542708
 20
197.915620
 30
0.0
  0
LINE
  5
3b4
100
AcDbEntity
  8
Layer_1
 62
1
100
AcDbLine
 10
88.888148
 20
199.843974
 30
0.0
 11
88.888148
 21
200.469379
 31
0.0
  0
SPLINE
  5
3b5
100
AcDbEntity
  8
Layer_1
 62
1
100
AcDbSpline
 70
8
 71
3
 72
8
 73
4
 74
0
 40
0
 40
0
 40
0
 40
0
 40
1
 40
1
 40
1
 40
1
 10
88.888148
 20
200.469379
 30
0.0
 10
88.888148
 20
200.794499
 30
0.0
 10
89.084574
 20
200.927708
 30
0.0
 10
89.281001
 20
200.920934
 30
0.0
  0
SPLINE
  5
3b6
100
AcDbEntity
  8
Layer_1
 62
1
100
AcDbSpline
 70
8
 71
3
 72
8
 73
4
 74
0
 40
0
 40
0
 40
0
 40
0
 40
1
 40
1
 40
1
 40
1
 10
89.281001
 20
200.920934
 30
0.0
 10
89.477428
 20
200.911903
 30
0.0
 10
89.678370
 20
200.774179
 30
0.0
 10
89.678370
 20
200.473894
 30
0.0
  0
LINE
  5
3b7
100
AcDbEntity
  8
Layer_1
 62
1
100
AcDbLine
 10
89.678370
 20
200.473894
 30
0.0
 11
89.678370
 21
199.843974
 31
0.0
  0
LINE
  5
3b8
100
AcDbEntity
  8
Layer_1
 62
1
100
AcDbLine
 10
89.678370
 20
199.843974
 30
0.0
 11
88.050512
 21
199.843974
 31
0.0
  0
LINE
  5
3b9
100
AcDbEntity
  8
Layer_1
 62
1
100
AcDbLine
 10
88.050512
 20
199.843974
 30
0.0
 11
88.050512
 21
200.537112
 31
0.0
  0
SPLINE
  5
3ba
100
AcDbEntity
  8
Layer_1
 62
1
100
AcDbSpline
 70
8
 71
3
 72
8
 73
4
 74
0
 40
0
 40
0
 40
0
 40
0
 40
1
 40
1
 40
1
 40
1
 10
88.050512
 20
200.537112
 30
0.0
 10
88.050512
 20
200.794499
 30
0.0
 10
88.204041
 20
200.997699
 30
0.0
 10
88.461428
 20
200.997699
 30
0.0
  0
SPLINE
  5
3bb
100
AcDbEntity
  8
Layer_1
 62
1
100
AcDbSpline
 70
8
 71
3
 72
8
 73
4
 74
0
 40
0
 40
0
 40
0
 40
0
 40
1
 40
1
 40
1
 40
1
 10
88.461428
 20
200.997699
 30
0.0
 10
88.718814
 20
200.993183
 30
0.0
 10
88.888148
 20
200.778694
 30
0.0
 10
88.888148
 20
200.469379
 30
0.0
  0
SPLINE
  5
3bc
100
AcDbEntity
  8
Layer_1
 62
1
100
AcDbSpline
 70
8
 71
3
 72
8
 73
4
 74
0
 40
0
 40
0
 40
0
 40
0
 40
1
 40
1
 40
1
 40
1
 10
88.888148
 20
200.469379
 30
0.0
 10
88.888148
 20
200.778694
 30
0.0
 10
88.718814
 20
200.993183
 30
0.0
 10
88.461428
 20
200.997699
 30
0.0
  0
SPLINE
  5
3bd
100
AcDbEntity
  8
Layer_1
 62
1
100
AcDbSpline
 70
8
 71
3
 72
8
 73
4
 74
0
 40
0
 40
0
 40
0
 40
0
 40
1
 40
1
 40
1
 40
1
 10
88.461428
 20
200.997699
 30
0.0
 10
88.204041
 20
200.997699
 30
0.0
 10
88.050512
 20
200.794499
 30
0.0
 10
88.050512
 20
200.537112
 30
0.0
  0
LINE
  5
3be
100
AcDbEntity
  8
Layer_1
 62
1
100
AcDbLine
 10
88.050512
 20
200.537112
 30
0.0
 11
88.050512
 21
199.843974
 31
0.0
  0
LINE
  5
3bf
100
AcDbEntity
  8
Layer_1
 62
1
100
AcDbLine
 10
88.050512
 20
199.843974
 30
0.0
 11
89.678370
 21
199.843974
 31
0.0
  0
LINE
  5
3c0
100
AcDbEntity
  8
Layer_1
 62
1
100
AcDbLine
 10
89.678370
 20
199.843974
 30
0.0
 11
89.678370
 21
200.473894
 31
0.0
  0
SPLINE
  5
3c1
100
AcDbEntity
  8
Layer_1
 62
1
100
AcDbSpline
 70
8
 71
3
 72
8
 73
4
 74
0
 40
0
 40
0
 40
0
 40
0
 40
1
 40
1
 40
1
 40
1
 10
89.678370
 20
200.473894
 30
0.0
 10
89.678370
 20
200.774179
 30
0.0
 10
89.477428
 20
200.911903
 30
0.0
 10
89.281001
 20
200.920934
 30
0.0
  0
SPLINE
  5
3c2
100
AcDbEntity
  8
Layer_1
 62
1
100
AcDbSpline
 70
8
 71
3
 72
8
 73
4
 74
0
 40
0
 40
0
 40
0
 40
0
 40
1
 40
1
 40
1
 40
1
 10
89.281001
 20
200.920934
 30
0.0
 10
89.084574
 20
200.927708
 30
0.0
 10
88.888148
 20
200.794499
 30
0.0
 10
88.888148
 20
200.469379
 30
0.0
  0
LINE
  5
3c3
100
AcDbEntity
  8
Layer_1
 62
1
100
AcDbLine
 10
88.888148
 20
200.469379
 30
0.0
 11
88.888148
 21
199.843974
 31
0.0
  0
LINE
  5
3c4
100
AcDbEntity
  8
Layer_1
 62
1
100
AcDbLine
 10
86.079472
 20
194.502495
 30
0.0
 11
86.079472
 21
195.159509
 31
0.0
  0
LINE
  5
3c5
100
AcDbEntity
  8
Layer_1
 62
1
100
AcDbLine
 10
86.079472
 20
195.159509
 30
0.0
 11
86.079472
 21
194.502495
 31
0.0
  0
LINE
  5
3c6
100
AcDbEntity
  8
Layer_1
 62
1
100
AcDbLine
 10
83.196290
 20
195.285944
 30
0.0
 11
83.196290
 21
195.866193
 31
0.0
  0
SPLINE
  5
3c7
100
AcDbEntity
  8
Layer_1
 62
1
100
AcDbSpline
 70
8
 71
3
 72
8
 73
4
 74
0
 40
0
 40
0
 40
0
 40
0
 40
1
 40
1
 40
1
 40
1
 10
83.196290
 20
195.866193
 30
0.0
 10
82.640877
 20
195.866193
 30
0.0
 10
82.394779
 20
195.615580
 30
0.0
 10
82.394779
 20
195.215953
 30
0.0
  0
SPLINE
  5
3c8
100
AcDbEntity
  8
Layer_1
 62
1
100
AcDbSpline
 70
8
 71
3
 72
8
 73
4
 74
0
 40
0
 40
0
 40
0
 40
0
 40
1
 40
1
 40
1
 40
1
 10
82.394779
 20
195.215953
 30
0.0
 10
82.394779
 20
194.816326
 30
0.0
 10
82.604752
 20
194.502495
 30
0.0
 10
83.221126
 20
194.502495
 30
0.0
  0
SPLINE
  5
3c9
100
AcDbEntity
  8
Layer_1
 62
1
100
AcDbSpline
 70
8
 71
3
 72
8
 73
4
 74
0
 40
0
 40
0
 40
0
 40
0
 40
1
 40
1
 40
1
 40
1
 10
83.221126
 20
194.502495
 30
0.0
 10
83.839757
 20
194.502495
 30
0.0
 10
84.054246
 20
194.768913
 30
0.0
 10
84.054246
 20
195.215953
 30
0.0
  0
SPLINE
  5
3ca
100
AcDbEntity
  8
Layer_1
 62
1
100
AcDbSpline
 70
8
 71
3
 72
8
 73
4
 74
0
 40
0
 40
0
 40
0
 40
0
 40
1
 40
1
 40
1
 40
1
 10
84.054246
 20
195.215953
 30
0.0
 10
84.054246
 20
195.534300
 30
0.0
 10
83.943614
 20
195.762335
 30
0.0
 10
83.652361
 20
195.866193
 30
0.0
  0
SPLINE
  5
3cb
100
AcDbEntity
  8
Layer_1
 62
1
100
AcDbSpline
 70
8
 71
3
 72
8
 73
4
 74
0
 40
0
 40
0
 40
0
 40
0
 40
1
 40
1
 40
1
 40
1
 10
83.652361
 20
195.866193
 30
0.0
 10
83.943614
 20
195.762335
 30
0.0
 10
84.054246
 20
195.534300
 30
0.0
 10
84.054246
 20
195.215953
 30
0.0
  0
SPLINE
  5
3cc
100
AcDbEntity
  8
Layer_1
 62
1
100
AcDbSpline
 70
8
 71
3
 72
8
 73
4
 74
0
 40
0
 40
0
 40
0
 40
0
 40
1
 40
1
 40
1
 40
1
 10
84.054246
 20
195.215953
 30
0.0
 10
84.054246
 20
194.768913
 30
0.0
 10
83.839757
 20
194.502495
 30
0.0
 10
83.221126
 20
194.502495
 30
0.0
  0
SPLINE
  5
3cd
100
AcDbEntity
  8
Layer_1
 62
1
100
AcDbSpline
 70
8
 71
3
 72
8
 73
4
 74
0
 40
0
 40
0
 40
0
 40
0
 40
1
 40
1
 40
1
 40
1
 10
83.221126
 20
194.502495
 30
0.0
 10
82.604752
 20
194.502495
 30
0.0
 10
82.394779
 20
194.816326
 30
0.0
 10
82.394779
 20
195.215953
 30
0.0
  0
SPLINE
  5
3ce
100
AcDbEntity
  8
Layer_1
 62
1
100
AcDbSpline
 70
8
 71
3
 72
8
 73
4
 74
0
 40
0
 40
0
 40
0
 40
0
 40
1
 40
1
 40
1
 40
1
 10
82.394779
 20
195.215953
 30
0.0
 10
82.394779
 20
195.615580
 30
0.0
 10
82.640877
 20
195.866193
 30
0.0
 10
83.196290
 20
195.866193
 30
0.0
  0
LINE
  5
3cf
100
AcDbEntity
  8
Layer_1
 62
1
100
AcDbLine
 10
83.196290
 20
195.866193
 30
0.0
 11
83.196290
 21
195.285944
 31
0.0
  0
LINE
  5
3d0
100
AcDbEntity
  8
Layer_1
 62
1
100
AcDbLine
 10
82.406068
 20
195.866193
 30
0.0
 11
83.196290
 21
195.866193
 31
0.0
  0
LINE
  5
3d1
100
AcDbEntity
  8
Layer_1
 62
1
100
AcDbLine
 10
83.196290
 20
195.866193
 30
0.0
 11
82.406068
 21
195.866193
 31
0.0
  0
LINE
  5
3d2
100
AcDbEntity
  8
Layer_1
 62
1
100
AcDbLine
 10
82.406068
 20
196.664563
 30
0.0
 11
84.033926
 21
196.664563
 31
0.0
  0
LINE
  5
3d3
100
AcDbEntity
  8
Layer_1
 62
1
100
AcDbLine
 10
84.033926
 20
196.664563
 30
0.0
 11
82.406068
 21
197.825061
 31
0.0
  0
LINE
  5
3d4
100
AcDbEntity
  8
Layer_1
 62
1
100
AcDbLine
 10
82.406068
 20
197.825061
 30
0.0
 11
84.033926
 21
197.825061
 31
0.0
  0
LINE
  5
3d5
100
AcDbEntity
  8
Layer_1
 62
1
100
AcDbLine
 10
84.033926
 20
197.825061
 30
0.0
 11
82.406068
 21
197.825061
 31
0.0
  0
LINE
  5
3d6
100
AcDbEntity
  8
Layer_1
 62
1
100
AcDbLine
 10
82.406068
 20
197.825061
 30
0.0
 11
84.033926
 21
196.664563
 31
0.0
  0
LINE
  5
3d7
100
AcDbEntity
  8
Layer_1
 62
1
100
AcDbLine
 10
84.033926
 20
196.664563
 30
0.0
 11
82.406068
 21
196.664563
 31
0.0
  0
LINE
  5
3d8
100
AcDbEntity
  8
Layer_1
 62
1
100
AcDbLine
 10
82.406068
 20
198.878244
 30
0.0
 11
84.033926
 21
198.878244
 31
0.0
  0
LINE
  5
3d9
100
AcDbEntity
  8
Layer_1
 62
1
100
AcDbLine
 10
84.033926
 20
198.878244
 30
0.0
 11
84.033926
 21
199.465266
 31
0.0
  0
SPLINE
  5
3da
100
AcDbEntity
  8
Layer_1
 62
1
100
AcDbSpline
 70
8
 71
3
 72
8
 73
4
 74
0
 40
0
 40
0
 40
0
 40
0
 40
1
 40
1
 40
1
 40
1
 10
84.033926
 20
199.465266
 30
0.0
 10
84.033926
 20
200.002617
 30
0.0
 10
83.582370
 20
200.068093
 30
0.0
 10
83.243703
 20
200.081639
 30
0.0
  0
SPLINE
  5
3db
100
AcDbEntity
  8
Layer_1
 62
1
100
AcDbSpline
 70
8
 71
3
 72
8
 73
4
 74
0
 40
0
 40
0
 40
0
 40
0
 40
1
 40
1
 40
1
 40
1
 10
83.243703
 20
200.081639
 30
0.0
 10
82.905037
 20
200.095186
 30
0.0
 10
82.406068
 20
199.980039
 30
0.0
 10
82.406068
 20
199.465266
 30
0.0
  0
LINE
  5
3dc
100
AcDbEntity
  8
Layer_1
 62
1
100
AcDbLine
 10
82.406068
 20
199.465266
 30
0.0
 11
82.406068
 21
198.878244
 31
0.0
  0
LINE
  5
3dd
100
AcDbEntity
  8
Layer_1
 62
1
100
AcDbLine
 10
82.406068
 20
198.878244
 30
0.0
 11
84.033926
 21
198.878244
 31
0.0
  0
LINE
  5
3de
100
AcDbEntity
  8
Layer_1
 62
1
100
AcDbLine
 10
84.033926
 20
198.878244
 30
0.0
 11
84.033926
 21
199.465266
 31
0.0
  0
SPLINE
  5
3df
100
AcDbEntity
  8
Layer_1
 62
1
100
AcDbSpline
 70
8
 71
3
 72
8
 73
4
 74
0
 40
0
 40
0
 40
0
 40
0
 40
1
 40
1
 40
1
 40
1
 10
84.033926
 20
199.465266
 30
0.0
 10
84.033926
 20
200.002617
 30
0.0
 10
83.582370
 20
200.068093
 30
0.0
 10
83.243703
 20
200.081639
 30
0.0
  0
SPLINE
  5
3e0
100
AcDbEntity
  8
Layer_1
 62
1
100
AcDbSpline
 70
8
 71
3
 72
8
 73
4
 74
0
 40
0
 40
0
 40
0
 40
0
 40
1
 40
1
 40
1
 40
1
 10
83.243703
 20
200.081639
 30
0.0
 10
82.905037
 20
200.095186
 30
0.0
 10
82.406068
 20
199.980039
 30
0.0
 10
82.406068
 20
199.465266
 30
0.0
  0
LINE
  5
3e1
100
AcDbEntity
  8
Layer_1
 62
1
100
AcDbLine
 10
82.406068
 20
199.465266
 30
0.0
 11
82.406068
 21
198.878244
 31
0.0
  0
LINE
  5
3e2
100
AcDbEntity
  8
Layer_1
 62
7
100
AcDbLine
 10
59.191088
 20
118.719578
 30
0.0
 11
69.191088
 21
118.719578
 31
0.0
  0
LINE
  5
3e3
100
AcDbEntity
  8
Layer_1
 62
7
100
AcDbLine
 10
69.191088
 20
118.719578
 30
0.0
 11
69.191088
 21
108.719578
 31
0.0
  0
LINE
  5
3e4
100
AcDbEntity
  8
Layer_1
 62
7
100
AcDbLine
 10
69.191088
 20
108.719578
 30
0.0
 11
59.191088
 21
108.719578
 31
0.0
  0
LINE
  5
3e5
100
AcDbEntity
  8
Layer_1
 62
7
100
AcDbLine
 10
59.191088
 20
108.719578
 30
0.0
 11
59.191088
 21
118.719578
 31
0.0
  0
ENDSEC
  0
SECTION
  2
OBJECTS
  0
DICTIONARY
  5
C
330
0
100
AcDbDictionary
  3
ACAD_GROUP
350
D
  3
ACAD_MLINESTYLE
350
17
  0
DICTIONARY
  5
D
330
C
100
AcDbDictionary
  0
DICTIONARY
  5
1A
330
C
100
AcDbDictionary
  0
DICTIONARY
  5
17
330
C
100
AcDbDictionary
  3
STANDARD
350
18
  0
DICTIONARY
  5
19
330
C
100
AcDbDictionary
  0
ENDSEC
  0
EOF
